<svg width="245" height="324" viewBox="0 0 245 324" fill="none" xmlns="http://www.w3.org/2000/svg">
<g clip-path="url(#clip0_2765_37914)">
<rect x="31" y="31" width="200" height="200" rx="16" fill="#F3F5F7"/>
<g clip-path="url(#clip1_2765_37914)">
<path d="M231 -46H29V564H231V-46Z" fill="#F5F5F5"/>
<path d="M46.4531 62.9464V62.2163H51.5441V62.9464H49.4096V69.0117H48.5876V62.9464H46.4531ZM54.1028 69.1179C53.6123 69.1179 53.1891 69.0097 52.8333 68.7928C52.4798 68.5739 52.2069 68.2683 52.0147 67.8772C51.8247 67.4834 51.7297 67.0256 51.7297 66.503C51.7297 65.9811 51.8247 65.5213 52.0147 65.1228C52.2069 64.7224 52.4743 64.4107 52.8168 64.1871C53.1615 63.9616 53.5637 63.8488 54.0232 63.8488C54.2884 63.8488 54.5502 63.8928 54.8087 63.9816C55.0673 64.0703 55.3026 64.2138 55.5147 64.4127C55.7268 64.6096 55.8959 64.8705 56.0218 65.1962C56.1477 65.5213 56.2107 65.9217 56.2107 66.3969V66.7286H52.2865V66.0518H55.4153C55.4153 65.7642 55.3578 65.5079 55.2429 65.2823C55.1303 65.0567 54.9689 64.8786 54.759 64.7477C54.5513 64.6176 54.3061 64.5522 54.0232 64.5522C53.7117 64.5522 53.4421 64.6296 53.2145 64.7844C52.9891 64.9373 52.8157 65.1362 52.6941 65.3818C52.5727 65.6274 52.5119 65.8903 52.5119 66.1713V66.6225C52.5119 67.0075 52.5781 67.3339 52.7107 67.6015C52.8455 67.8672 53.0322 68.0694 53.2709 68.2089C53.5095 68.3457 53.7868 68.4144 54.1028 68.4144C54.3083 68.4144 54.4939 68.3857 54.6596 68.3283C54.8275 68.2682 54.9723 68.1802 55.0938 68.0627C55.2153 67.9432 55.3092 67.7951 55.3755 67.6182L56.1312 67.8304C56.0517 68.0867 55.9179 68.313 55.7301 68.5072C55.5423 68.7001 55.3103 68.8502 55.0341 68.9583C54.7579 69.0645 54.4475 69.1179 54.1028 69.1179ZM57.8472 63.9148L59.0669 65.9991L60.2866 63.9148H61.1881L59.5442 66.4636L61.1881 69.0117H60.2866L59.0669 67.0342L57.8472 69.0117H56.9457L58.5631 66.4636L56.9457 63.9148H57.8472ZM64.5183 63.9148V64.5789H61.88V63.9148H64.5183ZM62.6489 62.6942H63.4311V67.5515C63.4311 67.7731 63.4632 67.9386 63.5273 68.0493C63.5935 68.1581 63.6775 68.2309 63.7791 68.2683C63.883 68.3036 63.9924 68.3216 64.1073 68.3216C64.1935 68.3216 64.2641 68.317 64.3194 68.3083C64.3747 68.2969 64.4188 68.2883 64.452 68.2816L64.6111 68.985C64.5581 69.0051 64.484 69.0251 64.389 69.0451C64.294 69.0671 64.1735 69.0778 64.0277 69.0778C63.8068 69.0778 63.5902 69.0304 63.3781 68.9356C63.1682 68.8402 62.9937 68.6954 62.8545 68.5005C62.7175 68.3063 62.6489 68.0607 62.6489 67.7644V62.6942Z" fill="#344054"/>
<path d="M96.0026 80.6912H51.3359C48.5745 80.6912 46.3359 82.9322 46.3359 85.6966V101.714C46.3359 104.479 48.5745 106.72 51.3359 106.72H96.0026C98.764 106.72 101.003 104.479 101.003 101.714V85.6966C101.003 82.9322 98.764 80.6912 96.0026 80.6912Z" fill="white"/>
<path d="M57.3672 97.376V96.7787L59.6077 94.3233C59.8707 94.0357 60.0872 93.7861 60.2573 93.5732C60.4275 93.3589 60.5534 93.1574 60.6352 92.9698C60.7191 92.7796 60.7611 92.5801 60.7611 92.3725C60.7611 92.1336 60.7037 91.9267 60.5888 91.7518C60.4761 91.577 60.3214 91.4422 60.1247 91.3467C59.9281 91.252 59.7071 91.2046 59.4619 91.2046C59.2011 91.2046 58.9735 91.2586 58.7791 91.3668C58.5869 91.4729 58.4377 91.6224 58.3317 91.8146C58.2278 92.0075 58.1759 92.233 58.1759 92.492H57.3937C57.3937 92.0936 57.4854 91.7438 57.6688 91.4435C57.8522 91.1425 58.1019 90.9083 58.4179 90.7401C58.736 90.5719 59.0929 90.4878 59.4884 90.4878C59.8861 90.4878 60.2385 90.5719 60.5457 90.7401C60.8528 90.9083 61.0937 91.1345 61.2682 91.4201C61.4428 91.7051 61.5301 92.0228 61.5301 92.3725C61.5301 92.6221 61.4848 92.8664 61.3942 93.1053C61.3058 93.3422 61.1511 93.6065 60.9301 93.8989C60.7114 94.1885 60.4076 94.5422 60.0187 94.9607L58.4941 96.5931V96.6459H61.6494V97.376H57.3672ZM62.7133 95.9825V95.3057L65.6963 90.5806H66.1868V91.629H65.8553L63.6015 95.1989V95.2523H67.6186V95.9825H62.7133ZM65.9084 97.376V95.7769V95.4612V90.5806H66.6906V97.376H65.9084Z" fill="#344054"/>
<path d="M86.6641 91.7031L82.6641 95.7075L78.6641 91.7031" stroke="#98A2B3" stroke-width="2" stroke-linecap="round" stroke-linejoin="round"/>
<path d="M96.0026 80.6912H51.3359C48.5745 80.6912 46.3359 82.9322 46.3359 85.6966V101.714C46.3359 104.479 48.5745 106.72 51.3359 106.72H96.0026C98.764 106.72 101.003 104.479 101.003 101.714V85.6966C101.003 82.9322 98.764 80.6912 96.0026 80.6912Z" stroke="#E4E7EC"/>
<path d="M208.669 80.6912H117.336C114.575 80.6912 112.336 82.9322 112.336 85.6966V101.714C112.336 104.479 114.575 106.72 117.336 106.72H208.669C211.431 106.72 213.669 104.479 213.669 101.714V85.6966C213.669 82.9322 211.431 80.6912 208.669 80.6912Z" fill="white"/>
<path d="M124.314 90.5806V97.376H123.492V90.5806H124.314ZM126.638 94.31V97.376H125.856V92.2791H126.612V93.076H126.678C126.798 92.817 126.979 92.6088 127.222 92.4519C127.465 92.2924 127.778 92.213 128.163 92.213C128.508 92.213 128.81 92.2838 129.068 92.4252C129.326 92.5647 129.528 92.777 129.671 93.0626C129.815 93.3456 129.886 93.704 129.886 94.1378V97.376H129.104V94.1905C129.104 93.7901 129 93.4784 128.793 93.2548C128.585 93.0292 128.3 92.9165 127.938 92.9165C127.688 92.9165 127.465 92.9705 127.268 93.0793C127.074 93.1874 126.92 93.3456 126.808 93.5538C126.695 93.7614 126.638 94.0137 126.638 94.31ZM133.53 92.2791V92.9431H130.892V92.2791H133.53ZM131.66 91.0584H132.443V95.9157C132.443 96.1373 132.475 96.3028 132.539 96.4136C132.605 96.5224 132.689 96.5951 132.791 96.6325C132.895 96.6679 133.004 96.6859 133.119 96.6859C133.205 96.6859 133.276 96.6812 133.331 96.6726C133.386 96.6612 133.43 96.6525 133.464 96.6459L133.623 97.3493C133.57 97.3693 133.496 97.3893 133.401 97.4094C133.306 97.4314 133.185 97.4421 133.04 97.4421C132.818 97.4421 132.602 97.3947 132.39 97.2999C132.18 97.2045 132.005 97.0596 131.866 96.8648C131.729 96.6706 131.66 96.425 131.66 96.1286V91.0584ZM136.786 97.4821C136.296 97.4821 135.873 97.374 135.517 97.1571C135.164 96.9382 134.89 96.6325 134.698 96.2414C134.508 95.8477 134.413 95.3898 134.413 94.8673C134.413 94.3454 134.508 93.8855 134.698 93.4871C134.89 93.0866 135.158 92.775 135.5 92.5514C135.845 92.3258 136.247 92.213 136.707 92.213C136.972 92.213 137.234 92.2571 137.492 92.3458C137.751 92.4346 137.986 92.5781 138.198 92.777C138.41 92.9738 138.58 93.2348 138.706 93.5605C138.831 93.8855 138.894 94.2859 138.894 94.7611V95.0928H134.97V94.4161H138.099C138.099 94.1284 138.042 93.8722 137.926 93.6466C137.814 93.421 137.652 93.2428 137.442 93.112C137.235 92.9819 136.99 92.9165 136.707 92.9165C136.395 92.9165 136.126 92.9939 135.898 93.1487C135.673 93.3015 135.499 93.5004 135.378 93.746C135.256 93.9916 135.196 94.2546 135.196 94.5356V94.9867C135.196 95.3718 135.262 95.6982 135.394 95.9658C135.529 96.2314 135.716 96.4336 135.954 96.5731C136.193 96.7099 136.47 96.7787 136.786 96.7787C136.992 96.7787 137.178 96.75 137.343 96.6926C137.511 96.6325 137.656 96.5444 137.778 96.427C137.899 96.3075 137.993 96.1593 138.059 95.9825L138.815 96.1947C138.735 96.451 138.602 96.6772 138.414 96.8714C138.226 97.0643 137.994 97.2145 137.718 97.3226C137.442 97.4287 137.131 97.4821 136.786 97.4821ZM140.084 97.376V92.2791H140.84V93.0493H140.893C140.986 92.797 141.154 92.5921 141.396 92.4353C141.64 92.2784 141.914 92.1997 142.218 92.1997C142.276 92.1997 142.348 92.201 142.434 92.203C142.52 92.205 142.586 92.2083 142.63 92.213V93.0092C142.603 93.0025 142.542 92.9925 142.447 92.9792C142.354 92.9638 142.256 92.9565 142.152 92.9565C141.905 92.9565 141.684 93.0086 141.49 93.112C141.297 93.2141 141.145 93.3556 141.032 93.5371C140.922 93.716 140.866 93.9209 140.866 94.1505V97.376H140.084Z" fill="#344054"/>
<path d="M199.336 91.7031L195.336 95.7075L191.336 91.7031" stroke="#98A2B3" stroke-width="2" stroke-linecap="round" stroke-linejoin="round"/>
<path d="M208.669 80.6912H117.336C114.575 80.6912 112.336 82.9322 112.336 85.6966V101.714C112.336 104.479 114.575 106.72 117.336 106.72H208.669C211.431 106.72 213.669 104.479 213.669 101.714V85.6966C213.669 82.9322 211.431 80.6912 208.669 80.6912Z" stroke="#E4E7EC"/>
<path d="M46 120.843C46 118.756 47.69 117.064 49.7747 117.064H74.2222V143.76H49.7747C47.69 143.76 46 142.068 46 139.981V120.843Z" fill="white"/>
<path fill-rule="evenodd" clip-rule="evenodd" d="M60.4394 130.412C61.7382 130.412 62.7912 129.354 62.7912 128.05C62.7912 126.746 61.7382 125.688 60.4394 125.688H56.8047V130.412H60.4394Z" stroke="#344054" stroke-width="2.12329" stroke-linecap="round" stroke-linejoin="round"/>
<path fill-rule="evenodd" clip-rule="evenodd" d="M61.2946 135.135C62.5935 135.135 63.6464 134.078 63.6464 132.774C63.6464 131.469 62.5935 130.412 61.2946 130.412H56.8047V135.135H61.2946Z" stroke="#344054" stroke-width="2.12329" stroke-linecap="round" stroke-linejoin="round"/>
<path d="M46 120.843C46 118.756 47.69 117.064 49.7747 117.064H74.2222V143.76H49.7747C47.69 143.76 46 142.068 46 139.981V120.843Z" stroke="#E4E7EC"/>
<path d="M102.449 117.064H74.2266V143.76H102.449V117.064Z" fill="white"/>
<path d="M87.3906 126.161H91.1654" stroke="#344054" stroke-width="1.41553" stroke-linecap="round" stroke-linejoin="round"/>
<path d="M85.5078 134.663H89.2825" stroke="#344054" stroke-width="1.41553" stroke-linecap="round" stroke-linejoin="round"/>
<path d="M89.5155 126.149L87.1562 134.663" stroke="#344054" stroke-width="1.41553" stroke-linecap="round" stroke-linejoin="round"/>
<path d="M102.449 117.064H74.2266V143.76H102.449V117.064Z" stroke="#E4E7EC"/>
<path d="M102.445 117.064H126.893C128.977 117.064 130.667 118.756 130.667 120.843V139.981C130.667 142.068 128.977 143.76 126.893 143.76H102.445V117.064Z" fill="white"/>
<path d="M112.773 135.135H120.323" stroke="#344054" stroke-width="1.41553" stroke-linecap="round" stroke-linejoin="round"/>
<path d="M119.618 126.183C119.618 127.759 119.618 128.365 119.618 129.94C119.618 131.635 118.245 133.01 116.551 133.01C114.857 133.01 113.484 131.635 113.484 129.94C113.484 128.365 113.484 127.759 113.484 126.183" stroke="#344054" stroke-width="1.41553" stroke-linecap="round"/>
<path d="M102.445 117.064H126.893C128.977 117.064 130.667 118.756 130.667 120.843V139.981C130.667 142.068 128.977 143.76 126.893 143.76H102.445V117.064Z" stroke="#E4E7EC"/>
<path d="M140.664 121.069C140.664 118.857 142.455 117.064 144.664 117.064H209.997C212.207 117.064 213.997 118.857 213.997 121.069V140.423C213.997 142.635 212.207 144.427 209.997 144.427H144.664C142.455 144.427 140.664 142.635 140.664 140.423V121.069Z" fill="white"/>
<path d="M167.96 132.872C167.96 133.024 167.836 133.148 167.684 133.148C167.53 133.148 167.406 133.024 167.406 132.872C167.406 132.873 167.406 132.874 167.406 132.874C167.406 132.874 167.416 132.798 167.53 132.627C167.572 132.565 167.622 132.496 167.684 132.422C167.744 132.496 167.795 132.565 167.836 132.627C167.951 132.798 167.96 132.874 167.96 132.874C167.96 132.874 167.96 132.873 167.96 132.872Z" fill="#344054" stroke="#344054" stroke-width="2"/>
<path d="M163.875 126.378L164.71 127.213" stroke="#344054" stroke-width="2" stroke-linecap="round"/>
<path d="M164.537 127.046L160.867 130.72L163.536 133.391L167.206 129.717L164.537 127.046Z" stroke="#344054" stroke-width="2" stroke-linejoin="round"/>
<path d="M161.789 129.818L165.79 131.136" stroke="#344054" stroke-width="2" stroke-linecap="round"/>
<path d="M159.898 135.233H169.335" stroke="#344054" stroke-width="1.41553" stroke-linecap="round"/>
<path d="M190.273 123.404H180.94C179.467 123.404 178.273 124.6 178.273 126.074V135.418C178.273 136.892 179.467 138.087 180.94 138.087H190.273C191.746 138.087 192.94 136.892 192.94 135.418V126.074C192.94 124.6 191.746 123.404 190.273 123.404Z" fill="#12B76A"/>
<path d="M140.664 121.069C140.664 118.857 142.455 117.064 144.664 117.064H209.997C212.207 117.064 213.997 118.857 213.997 121.069V140.423C213.997 142.635 212.207 144.427 209.997 144.427H144.664C142.455 144.427 140.664 142.635 140.664 140.423V121.069Z" stroke="#E4E7EC"/>
<path d="M46 158.217C46 156.13 47.69 154.438 49.7747 154.438H74.2222V181.362H49.7747C47.69 181.362 46 179.671 46 177.584V158.217Z" fill="white"/>
<path d="M64.3603 164.358H55.8672" stroke="#344054" stroke-width="2" stroke-linecap="round" stroke-linejoin="round"/>
<path d="M62.473 166.72H55.8672" stroke="#344054" stroke-width="2" stroke-linecap="round" stroke-linejoin="round"/>
<path d="M64.3603 169.082H55.8672" stroke="#344054" stroke-width="2" stroke-linecap="round" stroke-linejoin="round"/>
<path d="M62.473 171.443H55.8672" stroke="#344054" stroke-width="2" stroke-linecap="round" stroke-linejoin="round"/>
<path d="M46 158.217C46 156.13 47.69 154.438 49.7747 154.438H74.2222V181.362H49.7747C47.69 181.362 46 179.671 46 177.584V158.217Z" stroke="#E4E7EC"/>
<path d="M102.449 154.438H74.2266V181.363H102.449V154.438Z" fill="white"/>
<path d="M91.1699 166.72H85.5078" stroke="#344054" stroke-width="2" stroke-linecap="round" stroke-linejoin="round"/>
<path d="M92.5791 164.358H84.0859" stroke="#344054" stroke-width="2" stroke-linecap="round" stroke-linejoin="round"/>
<path d="M92.5791 169.082H84.0859" stroke="#344054" stroke-width="2" stroke-linecap="round" stroke-linejoin="round"/>
<path d="M91.1699 171.443H85.5078" stroke="#344054" stroke-width="2" stroke-linecap="round" stroke-linejoin="round"/>
<path d="M102.449 154.438H74.2266V181.363H102.449V154.438Z" stroke="#E4E7EC"/>
<path d="M102.445 154.438H126.893C128.977 154.438 130.667 156.13 130.667 158.217V177.584C130.667 179.671 128.977 181.362 126.893 181.362H102.445V154.438Z" fill="white"/>
<path d="M120.798 164.358H112.305" stroke="#344054" stroke-width="2" stroke-linecap="round" stroke-linejoin="round"/>
<path d="M120.801 166.719H114.195" stroke="#344054" stroke-width="2" stroke-linecap="round" stroke-linejoin="round"/>
<path d="M120.798 169.081H112.305" stroke="#344054" stroke-width="2" stroke-linecap="round" stroke-linejoin="round"/>
<path d="M120.801 171.443H114.195" stroke="#344054" stroke-width="2" stroke-linecap="round" stroke-linejoin="round"/>
<path d="M102.445 154.438H126.893C128.977 154.438 130.667 156.13 130.667 158.217V177.584C130.667 179.671 128.977 181.362 126.893 181.362H102.445V154.438Z" stroke="#E4E7EC"/>
<path d="M140.664 158.443C140.664 156.231 142.455 154.438 144.664 154.438H177.331V181.134H144.664C142.455 181.134 140.664 179.342 140.664 177.13V158.443Z" fill="white"/>
<path d="M161.064 165.178C161.007 164.697 160.776 164.324 160.372 164.059C159.968 163.793 159.473 163.661 158.886 163.661C158.456 163.661 158.08 163.73 157.759 163.869C157.44 164.008 157.19 164.199 157.01 164.443C156.834 164.686 156.746 164.963 156.746 165.272C156.746 165.531 156.807 165.754 156.93 165.94C157.056 166.124 157.217 166.277 157.413 166.4C157.609 166.52 157.814 166.62 158.028 166.699C158.243 166.775 158.44 166.837 158.62 166.884L159.605 167.149C159.858 167.216 160.139 167.307 160.448 167.424C160.76 167.541 161.059 167.701 161.343 167.903C161.63 168.102 161.867 168.358 162.053 168.671C162.24 168.984 162.332 169.367 162.332 169.823C162.332 170.347 162.195 170.821 161.92 171.245C161.649 171.668 161.252 172.004 160.728 172.254C160.206 172.504 159.574 172.629 158.829 172.629C158.134 172.629 157.533 172.516 157.025 172.292C156.52 172.068 156.122 171.755 155.832 171.354C155.544 170.952 155.382 170.486 155.344 169.955H156.556C156.588 170.322 156.711 170.625 156.926 170.865C157.143 171.103 157.418 171.28 157.749 171.396C158.084 171.51 158.444 171.567 158.829 171.567C159.277 171.567 159.68 171.494 160.036 171.349C160.393 171.2 160.676 170.995 160.884 170.733C161.092 170.467 161.196 170.158 161.196 169.804C161.196 169.482 161.106 169.219 160.926 169.017C160.746 168.815 160.51 168.65 160.216 168.524C159.922 168.398 159.605 168.287 159.264 168.192L158.071 167.85C157.314 167.633 156.714 167.321 156.272 166.917C155.83 166.512 155.609 165.983 155.609 165.329C155.609 164.786 155.756 164.311 156.05 163.907C156.346 163.5 156.744 163.183 157.242 162.959C157.744 162.732 158.305 162.618 158.924 162.618C159.548 162.618 160.104 162.73 160.59 162.954C161.076 163.175 161.462 163.479 161.746 163.864C162.033 164.25 162.184 164.688 162.2 165.178H161.064Z" fill="#344054"/>
<path d="M154.586 168.088H163.09V168.998H154.586V168.088Z" fill="#344054"/>
<path d="M140.664 158.443C140.664 156.231 142.455 154.438 144.664 154.438H177.331V181.134H144.664C142.455 181.134 140.664 179.342 140.664 177.13V158.443Z" stroke="#E4E7EC"/>
<path d="M177.336 154.438H210.003C212.212 154.438 214.003 156.231 214.003 158.443V177.13C214.003 179.342 212.212 181.134 210.003 181.134H177.336V154.438Z" fill="white"/>
<path d="M191.844 168.636C191.844 167.611 192.028 166.727 192.398 165.981C192.767 165.236 193.274 164.66 193.918 164.256C194.561 163.851 195.297 163.649 196.124 163.649C196.951 163.649 197.686 163.851 198.33 164.256C198.974 164.66 199.481 165.236 199.85 165.981C200.22 166.727 200.404 167.611 200.404 168.636C200.404 169.66 200.22 170.544 199.85 171.29C199.481 172.036 198.974 172.611 198.33 173.015C197.686 173.42 196.951 173.622 196.124 173.622C195.297 173.622 194.561 173.42 193.918 173.015C193.274 172.611 192.767 172.036 192.398 171.29C192.028 170.544 191.844 169.66 191.844 168.636ZM192.98 168.636C192.98 169.476 193.12 170.186 193.401 170.764C193.679 171.342 194.056 171.78 194.533 172.077C195.006 172.374 195.537 172.522 196.124 172.522C196.711 172.522 197.243 172.374 197.72 172.077C198.193 171.78 198.57 171.342 198.851 170.764C199.129 170.186 199.268 169.476 199.268 168.636C199.268 167.795 199.129 167.086 198.851 166.508C198.57 165.929 198.193 165.491 197.72 165.194C197.243 164.897 196.711 164.749 196.124 164.749C195.537 164.749 195.006 164.897 194.533 165.194C194.056 165.491 193.679 165.929 193.401 166.508C193.12 167.086 192.98 167.795 192.98 168.636Z" fill="#344054"/>
<path d="M201.198 161.128H191.047V160.217H201.198V161.128Z" fill="#344054"/>
<path d="M177.336 154.438H210.003C212.212 154.438 214.003 156.231 214.003 158.443V177.13C214.003 179.342 212.212 181.134 210.003 181.134H177.336V154.438Z" stroke="#E4E7EC"/>
</g>
</g>
<path d="M113.275 261.897V259.909H123.72V261.897H119.674V273H117.322V261.897H113.275ZM128.554 273.192C127.57 273.192 126.72 272.987 126.004 272.578C125.292 272.165 124.744 271.581 124.361 270.827C123.977 270.068 123.786 269.175 123.786 268.148C123.786 267.138 123.977 266.252 124.361 265.489C124.749 264.722 125.29 264.126 125.984 263.7C126.679 263.269 127.495 263.054 128.433 263.054C129.038 263.054 129.609 263.152 130.146 263.348C130.687 263.54 131.164 263.838 131.578 264.243C131.995 264.648 132.323 265.163 132.562 265.79C132.801 266.412 132.92 267.153 132.92 268.014V268.724H124.872V267.164H130.702C130.698 266.721 130.602 266.327 130.414 265.982C130.227 265.632 129.965 265.357 129.628 265.157C129.296 264.957 128.908 264.857 128.465 264.857C127.992 264.857 127.576 264.972 127.218 265.202C126.86 265.428 126.581 265.726 126.381 266.097C126.185 266.463 126.085 266.866 126.08 267.305V268.666C126.08 269.237 126.185 269.727 126.394 270.136C126.602 270.541 126.894 270.852 127.269 271.07C127.644 271.283 128.083 271.389 128.586 271.389C128.923 271.389 129.227 271.342 129.5 271.249C129.773 271.151 130.009 271.008 130.21 270.82C130.41 270.633 130.561 270.401 130.663 270.124L132.824 270.366C132.688 270.937 132.428 271.436 132.044 271.862C131.665 272.284 131.179 272.612 130.587 272.847C129.994 273.077 129.317 273.192 128.554 273.192ZM136.559 263.182L138.54 266.806L140.554 263.182H143.002L140.042 268.091L143.053 273H140.617L138.54 269.465L136.482 273H134.027L137.019 268.091L134.104 263.182H136.559ZM149.694 263.182V264.972H144.05V263.182H149.694ZM145.443 260.83H147.757V270.047C147.757 270.358 147.804 270.597 147.898 270.763C147.996 270.925 148.124 271.036 148.282 271.095C148.439 271.155 148.614 271.185 148.806 271.185C148.951 271.185 149.083 271.174 149.202 271.153C149.326 271.131 149.419 271.112 149.483 271.095L149.873 272.904C149.75 272.947 149.573 272.994 149.343 273.045C149.117 273.096 148.84 273.126 148.512 273.134C147.932 273.151 147.41 273.064 146.946 272.872C146.481 272.676 146.112 272.374 145.84 271.964C145.571 271.555 145.439 271.044 145.443 270.43V260.83Z" fill="#101828"/>
<path d="M19.3082 300H17.831L22.1037 288.364H23.5582L27.831 300H26.3537L22.8764 290.205H22.7855L19.3082 300ZM19.8537 295.455H25.8082V296.705H19.8537V295.455ZM33.0071 300.182C32.1889 300.182 31.4844 299.989 30.8935 299.602C30.3026 299.216 29.848 298.684 29.5298 298.006C29.2116 297.328 29.0526 296.553 29.0526 295.682C29.0526 294.795 29.2154 294.013 29.5412 293.335C29.8707 292.653 30.3291 292.121 30.9162 291.739C31.5071 291.352 32.1965 291.159 32.9844 291.159C33.598 291.159 34.151 291.273 34.6435 291.5C35.1359 291.727 35.5393 292.045 35.8537 292.455C36.1681 292.864 36.3632 293.341 36.4389 293.886H35.098C34.9957 293.489 34.7685 293.136 34.4162 292.83C34.0677 292.519 33.598 292.364 33.0071 292.364C32.4844 292.364 32.026 292.5 31.6321 292.773C31.242 293.042 30.937 293.422 30.7173 293.915C30.5014 294.403 30.3935 294.977 30.3935 295.636C30.3935 296.311 30.4995 296.898 30.7116 297.398C30.9276 297.898 31.2306 298.286 31.6207 298.562C32.0147 298.839 32.4768 298.977 33.0071 298.977C33.3556 298.977 33.6719 298.917 33.956 298.795C34.2401 298.674 34.4806 298.5 34.6776 298.273C34.8745 298.045 35.0147 297.773 35.098 297.455H36.4389C36.3632 297.97 36.1757 298.434 35.8764 298.847C35.581 299.256 35.1889 299.581 34.7003 299.824C34.2154 300.062 33.651 300.182 33.0071 300.182ZM41.9446 300.182C41.1264 300.182 40.4219 299.989 39.831 299.602C39.2401 299.216 38.7855 298.684 38.4673 298.006C38.1491 297.328 37.9901 296.553 37.9901 295.682C37.9901 294.795 38.1529 294.013 38.4787 293.335C38.8082 292.653 39.2666 292.121 39.8537 291.739C40.4446 291.352 41.134 291.159 41.9219 291.159C42.5355 291.159 43.0885 291.273 43.581 291.5C44.0734 291.727 44.4768 292.045 44.7912 292.455C45.1056 292.864 45.3007 293.341 45.3764 293.886H44.0355C43.9332 293.489 43.706 293.136 43.3537 292.83C43.0052 292.519 42.5355 292.364 41.9446 292.364C41.4219 292.364 40.9635 292.5 40.5696 292.773C40.1795 293.042 39.8745 293.422 39.6548 293.915C39.4389 294.403 39.331 294.977 39.331 295.636C39.331 296.311 39.437 296.898 39.6491 297.398C39.8651 297.898 40.1681 298.286 40.5582 298.562C40.9522 298.839 41.4143 298.977 41.9446 298.977C42.2931 298.977 42.6094 298.917 42.8935 298.795C43.1776 298.674 43.4181 298.5 43.6151 298.273C43.812 298.045 43.9522 297.773 44.0355 297.455H45.3764C45.3007 297.97 45.1132 298.434 44.8139 298.847C44.5185 299.256 44.1264 299.581 43.6378 299.824C43.1529 300.062 42.5885 300.182 41.9446 300.182ZM50.9957 300.182C50.1548 300.182 49.4295 299.996 48.8196 299.625C48.2135 299.25 47.7457 298.727 47.4162 298.057C47.0904 297.383 46.9276 296.598 46.9276 295.705C46.9276 294.811 47.0904 294.023 47.4162 293.341C47.7457 292.655 48.2041 292.121 48.7912 291.739C49.3821 291.352 50.0715 291.159 50.8594 291.159C51.3139 291.159 51.7628 291.235 52.206 291.386C52.6491 291.538 53.0526 291.784 53.4162 292.125C53.7798 292.462 54.0696 292.909 54.2855 293.466C54.5014 294.023 54.6094 294.708 54.6094 295.523V296.091H47.8821V294.932H53.2457C53.2457 294.439 53.1473 294 52.9503 293.614C52.7571 293.227 52.4806 292.922 52.1207 292.699C51.7647 292.475 51.3442 292.364 50.8594 292.364C50.3253 292.364 49.8632 292.496 49.473 292.761C49.0866 293.023 48.7893 293.364 48.581 293.784C48.3726 294.205 48.2685 294.655 48.2685 295.136V295.909C48.2685 296.568 48.3821 297.127 48.6094 297.585C48.8404 298.04 49.1605 298.386 49.5696 298.625C49.9787 298.86 50.4541 298.977 50.9957 298.977C51.348 298.977 51.6662 298.928 51.9503 298.83C52.2382 298.727 52.4863 298.576 52.6946 298.375C52.9029 298.17 53.0639 297.917 53.1776 297.614L54.473 297.977C54.3366 298.417 54.1075 298.803 53.7855 299.136C53.4635 299.466 53.0658 299.723 52.5923 299.909C52.1188 300.091 51.5866 300.182 50.9957 300.182ZM62.831 293.227L61.6264 293.568C61.5507 293.367 61.4389 293.172 61.2912 292.983C61.1473 292.79 60.9503 292.631 60.7003 292.506C60.4503 292.381 60.1302 292.318 59.7401 292.318C59.206 292.318 58.7609 292.441 58.4048 292.688C58.0526 292.93 57.8764 293.239 57.8764 293.614C57.8764 293.947 57.9976 294.21 58.2401 294.403C58.4825 294.597 58.8613 294.758 59.3764 294.886L60.6719 295.205C61.4522 295.394 62.0336 295.684 62.4162 296.074C62.7988 296.46 62.9901 296.958 62.9901 297.568C62.9901 298.068 62.8461 298.515 62.5582 298.909C62.2741 299.303 61.8764 299.614 61.3651 299.841C60.8537 300.068 60.259 300.182 59.581 300.182C58.6908 300.182 57.9541 299.989 57.3707 299.602C56.7874 299.216 56.4181 298.652 56.2628 297.909L57.5355 297.591C57.6567 298.061 57.8859 298.413 58.223 298.648C58.5639 298.883 59.009 299 59.5582 299C60.1832 299 60.6795 298.867 61.0469 298.602C61.4181 298.333 61.6037 298.011 61.6037 297.636C61.6037 297.333 61.4976 297.08 61.2855 296.875C61.0734 296.667 60.7476 296.511 60.3082 296.409L58.8537 296.068C58.0545 295.879 57.4673 295.585 57.0923 295.188C56.7211 294.786 56.5355 294.284 56.5355 293.682C56.5355 293.189 56.6738 292.754 56.9503 292.375C57.2306 291.996 57.6113 291.699 58.0923 291.483C58.5772 291.267 59.1264 291.159 59.7401 291.159C60.6037 291.159 61.2817 291.348 61.7741 291.727C62.2704 292.106 62.6226 292.606 62.831 293.227ZM71.1903 293.227L69.9858 293.568C69.91 293.367 69.7983 293.172 69.6506 292.983C69.5066 292.79 69.3097 292.631 69.0597 292.506C68.8097 292.381 68.4896 292.318 68.0994 292.318C67.5653 292.318 67.1203 292.441 66.7642 292.688C66.4119 292.93 66.2358 293.239 66.2358 293.614C66.2358 293.947 66.357 294.21 66.5994 294.403C66.8419 294.597 67.2206 294.758 67.7358 294.886L69.0312 295.205C69.8116 295.394 70.393 295.684 70.7756 296.074C71.1581 296.46 71.3494 296.958 71.3494 297.568C71.3494 298.068 71.2055 298.515 70.9176 298.909C70.6335 299.303 70.2358 299.614 69.7244 299.841C69.2131 300.068 68.6184 300.182 67.9403 300.182C67.0502 300.182 66.3134 299.989 65.7301 299.602C65.1468 299.216 64.7775 298.652 64.6222 297.909L65.8949 297.591C66.0161 298.061 66.2453 298.413 66.5824 298.648C66.9233 298.883 67.3684 299 67.9176 299C68.5426 299 69.0388 298.867 69.4062 298.602C69.7775 298.333 69.9631 298.011 69.9631 297.636C69.9631 297.333 69.857 297.08 69.6449 296.875C69.4328 296.667 69.107 296.511 68.6676 296.409L67.2131 296.068C66.4138 295.879 65.8267 295.585 65.4517 295.188C65.0805 294.786 64.8949 294.284 64.8949 293.682C64.8949 293.189 65.0331 292.754 65.3097 292.375C65.59 291.996 65.9706 291.699 66.4517 291.483C66.9366 291.267 67.4858 291.159 68.0994 291.159C68.9631 291.159 69.6411 291.348 70.1335 291.727C70.6297 292.106 70.982 292.606 71.1903 293.227ZM77.8679 300V291.273H79.1634V292.636H79.277C79.4588 292.17 79.7524 291.809 80.1577 291.551C80.563 291.29 81.0497 291.159 81.6179 291.159C82.1937 291.159 82.6728 291.29 83.0554 291.551C83.4418 291.809 83.7429 292.17 83.9588 292.636H84.0497C84.2732 292.186 84.6084 291.828 85.0554 291.562C85.5024 291.294 86.0384 291.159 86.6634 291.159C87.4437 291.159 88.0819 291.403 88.5781 291.892C89.0743 292.377 89.3224 293.133 89.3224 294.159V300H87.9815V294.159C87.9815 293.515 87.8054 293.055 87.4531 292.778C87.1009 292.502 86.6861 292.364 86.2088 292.364C85.5952 292.364 85.1198 292.549 84.7827 292.92C84.4455 293.288 84.277 293.754 84.277 294.318V300H82.9134V294.023C82.9134 293.527 82.7524 293.127 82.4304 292.824C82.1084 292.517 81.6937 292.364 81.1861 292.364C80.8376 292.364 80.5118 292.456 80.2088 292.642C79.9096 292.828 79.6671 293.085 79.4815 293.415C79.2997 293.741 79.2088 294.117 79.2088 294.545V300H77.8679ZM95.3196 300.182C94.5317 300.182 93.8404 299.994 93.2457 299.619C92.6548 299.244 92.1927 298.72 91.8594 298.045C91.5298 297.371 91.3651 296.583 91.3651 295.682C91.3651 294.773 91.5298 293.979 91.8594 293.301C92.1927 292.623 92.6548 292.097 93.2457 291.722C93.8404 291.347 94.5317 291.159 95.3196 291.159C96.1075 291.159 96.7969 291.347 97.3878 291.722C97.9825 292.097 98.4446 292.623 98.7741 293.301C99.1075 293.979 99.2741 294.773 99.2741 295.682C99.2741 296.583 99.1075 297.371 98.7741 298.045C98.4446 298.72 97.9825 299.244 97.3878 299.619C96.7969 299.994 96.1075 300.182 95.3196 300.182ZM95.3196 298.977C95.9181 298.977 96.4105 298.824 96.7969 298.517C97.1832 298.21 97.4692 297.807 97.6548 297.307C97.8404 296.807 97.9332 296.265 97.9332 295.682C97.9332 295.098 97.8404 294.555 97.6548 294.051C97.4692 293.547 97.1832 293.14 96.7969 292.83C96.4105 292.519 95.9181 292.364 95.3196 292.364C94.7211 292.364 94.2287 292.519 93.8423 292.83C93.456 293.14 93.17 293.547 92.9844 294.051C92.7988 294.555 92.706 295.098 92.706 295.682C92.706 296.265 92.7988 296.807 92.9844 297.307C93.17 297.807 93.456 298.21 93.8423 298.517C94.2287 298.824 94.7211 298.977 95.3196 298.977ZM101.321 300V291.273H102.616V292.591H102.707C102.866 292.159 103.154 291.809 103.571 291.54C103.988 291.271 104.457 291.136 104.98 291.136C105.079 291.136 105.202 291.138 105.349 291.142C105.497 291.146 105.609 291.152 105.685 291.159V292.523C105.639 292.511 105.535 292.494 105.372 292.472C105.213 292.445 105.045 292.432 104.866 292.432C104.442 292.432 104.063 292.521 103.73 292.699C103.401 292.873 103.139 293.116 102.946 293.426C102.757 293.733 102.662 294.083 102.662 294.477V300H101.321ZM110.668 300.182C109.827 300.182 109.101 299.996 108.491 299.625C107.885 299.25 107.418 298.727 107.088 298.057C106.762 297.383 106.599 296.598 106.599 295.705C106.599 294.811 106.762 294.023 107.088 293.341C107.418 292.655 107.876 292.121 108.463 291.739C109.054 291.352 109.743 291.159 110.531 291.159C110.986 291.159 111.435 291.235 111.878 291.386C112.321 291.538 112.724 291.784 113.088 292.125C113.452 292.462 113.741 292.909 113.957 293.466C114.173 294.023 114.281 294.708 114.281 295.523V296.091H107.554V294.932H112.918C112.918 294.439 112.819 294 112.622 293.614C112.429 293.227 112.152 292.922 111.793 292.699C111.437 292.475 111.016 292.364 110.531 292.364C109.997 292.364 109.535 292.496 109.145 292.761C108.759 293.023 108.461 293.364 108.253 293.784C108.045 294.205 107.94 294.655 107.94 295.136V295.909C107.94 296.568 108.054 297.127 108.281 297.585C108.512 298.04 108.832 298.386 109.241 298.625C109.651 298.86 110.126 298.977 110.668 298.977C111.02 298.977 111.338 298.928 111.622 298.83C111.91 298.727 112.158 298.576 112.366 298.375C112.575 298.17 112.736 297.917 112.849 297.614L114.145 297.977C114.009 298.417 113.779 298.803 113.457 299.136C113.135 299.466 112.738 299.723 112.264 299.909C111.791 300.091 111.259 300.182 110.668 300.182ZM124.616 291.273V292.409H120.094V291.273H124.616ZM121.412 289.182H122.753V297.5C122.753 297.879 122.808 298.163 122.918 298.352C123.031 298.538 123.175 298.663 123.349 298.727C123.527 298.788 123.715 298.818 123.912 298.818C124.06 298.818 124.181 298.811 124.276 298.795C124.37 298.777 124.446 298.761 124.503 298.75L124.776 299.955C124.685 299.989 124.558 300.023 124.395 300.057C124.232 300.095 124.026 300.114 123.776 300.114C123.397 300.114 123.026 300.032 122.662 299.869C122.302 299.706 122.003 299.458 121.764 299.125C121.529 298.792 121.412 298.371 121.412 297.864V289.182ZM130.085 300.182C129.297 300.182 128.606 299.994 128.011 299.619C127.42 299.244 126.958 298.72 126.625 298.045C126.295 297.371 126.131 296.583 126.131 295.682C126.131 294.773 126.295 293.979 126.625 293.301C126.958 292.623 127.42 292.097 128.011 291.722C128.606 291.347 129.297 291.159 130.085 291.159C130.873 291.159 131.563 291.347 132.153 291.722C132.748 292.097 133.21 292.623 133.54 293.301C133.873 293.979 134.04 294.773 134.04 295.682C134.04 296.583 133.873 297.371 133.54 298.045C133.21 298.72 132.748 299.244 132.153 299.619C131.563 299.994 130.873 300.182 130.085 300.182ZM130.085 298.977C130.684 298.977 131.176 298.824 131.562 298.517C131.949 298.21 132.235 297.807 132.42 297.307C132.606 296.807 132.699 296.265 132.699 295.682C132.699 295.098 132.606 294.555 132.42 294.051C132.235 293.547 131.949 293.14 131.562 292.83C131.176 292.519 130.684 292.364 130.085 292.364C129.487 292.364 128.994 292.519 128.608 292.83C128.222 293.14 127.936 293.547 127.75 294.051C127.564 294.555 127.472 295.098 127.472 295.682C127.472 296.265 127.564 296.807 127.75 297.307C127.936 297.807 128.222 298.21 128.608 298.517C128.994 298.824 129.487 298.977 130.085 298.977ZM139.632 300.182C138.844 300.182 138.153 299.994 137.558 299.619C136.967 299.244 136.505 298.72 136.172 298.045C135.842 297.371 135.678 296.583 135.678 295.682C135.678 294.773 135.842 293.979 136.172 293.301C136.505 292.623 136.967 292.097 137.558 291.722C138.153 291.347 138.844 291.159 139.632 291.159C140.42 291.159 141.109 291.347 141.7 291.722C142.295 292.097 142.757 292.623 143.087 293.301C143.42 293.979 143.587 294.773 143.587 295.682C143.587 296.583 143.42 297.371 143.087 298.045C142.757 298.72 142.295 299.244 141.7 299.619C141.109 299.994 140.42 300.182 139.632 300.182ZM139.632 298.977C140.231 298.977 140.723 298.824 141.109 298.517C141.496 298.21 141.782 297.807 141.967 297.307C142.153 296.807 142.246 296.265 142.246 295.682C142.246 295.098 142.153 294.555 141.967 294.051C141.782 293.547 141.496 293.14 141.109 292.83C140.723 292.519 140.231 292.364 139.632 292.364C139.034 292.364 138.541 292.519 138.155 292.83C137.768 293.14 137.482 293.547 137.297 294.051C137.111 294.555 137.018 295.098 137.018 295.682C137.018 296.265 137.111 296.807 137.297 297.307C137.482 297.807 137.768 298.21 138.155 298.517C138.541 298.824 139.034 298.977 139.632 298.977ZM146.974 288.364V300H145.634V288.364H146.974ZM155.612 293.227L154.408 293.568C154.332 293.367 154.22 293.172 154.072 292.983C153.929 292.79 153.732 292.631 153.482 292.506C153.232 292.381 152.911 292.318 152.521 292.318C151.987 292.318 151.542 292.441 151.186 292.688C150.834 292.93 150.658 293.239 150.658 293.614C150.658 293.947 150.779 294.21 151.021 294.403C151.264 294.597 151.643 294.758 152.158 294.886L153.453 295.205C154.233 295.394 154.815 295.684 155.197 296.074C155.58 296.46 155.771 296.958 155.771 297.568C155.771 298.068 155.627 298.515 155.339 298.909C155.055 299.303 154.658 299.614 154.146 299.841C153.635 300.068 153.04 300.182 152.362 300.182C151.472 300.182 150.735 299.989 150.152 299.602C149.569 299.216 149.199 298.652 149.044 297.909L150.317 297.591C150.438 298.061 150.667 298.413 151.004 298.648C151.345 298.883 151.79 299 152.339 299C152.964 299 153.461 298.867 153.828 298.602C154.199 298.333 154.385 298.011 154.385 297.636C154.385 297.333 154.279 297.08 154.067 296.875C153.855 296.667 153.529 296.511 153.089 296.409L151.635 296.068C150.836 295.879 150.249 295.585 149.874 295.188C149.502 294.786 149.317 294.284 149.317 293.682C149.317 293.189 149.455 292.754 149.732 292.375C150.012 291.996 150.393 291.699 150.874 291.483C151.358 291.267 151.908 291.159 152.521 291.159C153.385 291.159 154.063 291.348 154.555 291.727C155.052 292.106 155.404 292.606 155.612 293.227ZM166.085 291.273V292.409H161.562V291.273H166.085ZM162.881 289.182H164.222V297.5C164.222 297.879 164.277 298.163 164.386 298.352C164.5 298.538 164.644 298.663 164.818 298.727C164.996 298.788 165.184 298.818 165.381 298.818C165.528 298.818 165.65 298.811 165.744 298.795C165.839 298.777 165.915 298.761 165.972 298.75L166.244 299.955C166.153 299.989 166.027 300.023 165.864 300.057C165.701 300.095 165.494 300.114 165.244 300.114C164.866 300.114 164.494 300.032 164.131 299.869C163.771 299.706 163.472 299.458 163.233 299.125C162.998 298.792 162.881 298.371 162.881 297.864V289.182ZM171.554 300.182C170.766 300.182 170.075 299.994 169.48 299.619C168.889 299.244 168.427 298.72 168.094 298.045C167.764 297.371 167.599 296.583 167.599 295.682C167.599 294.773 167.764 293.979 168.094 293.301C168.427 292.623 168.889 292.097 169.48 291.722C170.075 291.347 170.766 291.159 171.554 291.159C172.342 291.159 173.031 291.347 173.622 291.722C174.217 292.097 174.679 292.623 175.009 293.301C175.342 293.979 175.509 294.773 175.509 295.682C175.509 296.583 175.342 297.371 175.009 298.045C174.679 298.72 174.217 299.244 173.622 299.619C173.031 299.994 172.342 300.182 171.554 300.182ZM171.554 298.977C172.152 298.977 172.645 298.824 173.031 298.517C173.418 298.21 173.704 297.807 173.889 297.307C174.075 296.807 174.168 296.265 174.168 295.682C174.168 295.098 174.075 294.555 173.889 294.051C173.704 293.547 173.418 293.14 173.031 292.83C172.645 292.519 172.152 292.364 171.554 292.364C170.955 292.364 170.463 292.519 170.077 292.83C169.69 293.14 169.404 293.547 169.219 294.051C169.033 294.555 168.94 295.098 168.94 295.682C168.94 296.265 169.033 296.807 169.219 297.307C169.404 297.807 169.69 298.21 170.077 298.517C170.463 298.824 170.955 298.977 171.554 298.977ZM185.714 300.182C184.874 300.182 184.148 299.996 183.538 299.625C182.932 299.25 182.464 298.727 182.135 298.057C181.809 297.383 181.646 296.598 181.646 295.705C181.646 294.811 181.809 294.023 182.135 293.341C182.464 292.655 182.923 292.121 183.51 291.739C184.101 291.352 184.79 291.159 185.578 291.159C186.033 291.159 186.482 291.235 186.925 291.386C187.368 291.538 187.771 291.784 188.135 292.125C188.499 292.462 188.788 292.909 189.004 293.466C189.22 294.023 189.328 294.708 189.328 295.523V296.091H182.601V294.932H187.964C187.964 294.439 187.866 294 187.669 293.614C187.476 293.227 187.199 292.922 186.839 292.699C186.483 292.475 186.063 292.364 185.578 292.364C185.044 292.364 184.582 292.496 184.192 292.761C183.805 293.023 183.508 293.364 183.3 293.784C183.091 294.205 182.987 294.655 182.987 295.136V295.909C182.987 296.568 183.101 297.127 183.328 297.585C183.559 298.04 183.879 298.386 184.288 298.625C184.697 298.86 185.173 298.977 185.714 298.977C186.067 298.977 186.385 298.928 186.669 298.83C186.957 298.727 187.205 298.576 187.413 298.375C187.622 298.17 187.783 297.917 187.896 297.614L189.192 297.977C189.055 298.417 188.826 298.803 188.504 299.136C188.182 299.466 187.785 299.723 187.311 299.909C186.838 300.091 186.305 300.182 185.714 300.182ZM192.709 294.75V300H191.368V291.273H192.663V292.636H192.777C192.982 292.193 193.292 291.837 193.709 291.568C194.125 291.295 194.663 291.159 195.322 291.159C195.913 291.159 196.43 291.28 196.874 291.523C197.317 291.761 197.661 292.125 197.908 292.614C198.154 293.098 198.277 293.712 198.277 294.455V300H196.936V294.545C196.936 293.86 196.758 293.326 196.402 292.943C196.046 292.557 195.557 292.364 194.936 292.364C194.508 292.364 194.125 292.456 193.788 292.642C193.455 292.828 193.192 293.098 192.999 293.455C192.805 293.811 192.709 294.242 192.709 294.75ZM202.068 294.75V300H200.727V288.364H202.068V292.636H202.182C202.386 292.186 202.693 291.828 203.102 291.562C203.515 291.294 204.064 291.159 204.75 291.159C205.345 291.159 205.866 291.278 206.312 291.517C206.759 291.752 207.106 292.114 207.352 292.602C207.602 293.087 207.727 293.705 207.727 294.455V300H206.386V294.545C206.386 293.852 206.206 293.316 205.847 292.938C205.491 292.555 204.996 292.364 204.364 292.364C203.924 292.364 203.53 292.456 203.182 292.642C202.837 292.828 202.564 293.098 202.364 293.455C202.167 293.811 202.068 294.242 202.068 294.75ZM212.749 300.205C212.196 300.205 211.694 300.1 211.243 299.892C210.792 299.68 210.434 299.375 210.169 298.977C209.904 298.576 209.771 298.091 209.771 297.523C209.771 297.023 209.87 296.617 210.067 296.307C210.264 295.992 210.527 295.746 210.857 295.568C211.186 295.39 211.55 295.258 211.947 295.17C212.349 295.08 212.752 295.008 213.158 294.955C213.688 294.886 214.118 294.835 214.447 294.801C214.781 294.763 215.023 294.701 215.175 294.614C215.33 294.527 215.408 294.375 215.408 294.159V294.114C215.408 293.553 215.254 293.117 214.947 292.807C214.644 292.496 214.184 292.341 213.567 292.341C212.927 292.341 212.425 292.481 212.061 292.761C211.697 293.042 211.442 293.341 211.294 293.659L210.021 293.205C210.249 292.674 210.552 292.261 210.93 291.966C211.313 291.667 211.73 291.458 212.18 291.341C212.635 291.22 213.082 291.159 213.521 291.159C213.802 291.159 214.124 291.193 214.487 291.261C214.855 291.326 215.209 291.46 215.55 291.665C215.894 291.869 216.18 292.178 216.408 292.591C216.635 293.004 216.749 293.557 216.749 294.25V300H215.408V298.818H215.339C215.249 299.008 215.097 299.21 214.885 299.426C214.673 299.642 214.391 299.826 214.038 299.977C213.686 300.129 213.256 300.205 212.749 300.205ZM212.953 299C213.483 299 213.93 298.896 214.294 298.688C214.661 298.479 214.938 298.21 215.124 297.881C215.313 297.551 215.408 297.205 215.408 296.841V295.614C215.351 295.682 215.226 295.744 215.033 295.801C214.843 295.854 214.624 295.902 214.374 295.943C214.127 295.981 213.887 296.015 213.652 296.045C213.421 296.072 213.233 296.095 213.089 296.114C212.741 296.159 212.415 296.233 212.112 296.335C211.813 296.434 211.571 296.583 211.385 296.784C211.203 296.981 211.112 297.25 211.112 297.591C211.112 298.057 211.285 298.409 211.629 298.648C211.978 298.883 212.419 299 212.953 299ZM220.537 294.75V300H219.196V291.273H220.491V292.636H220.605C220.81 292.193 221.12 291.837 221.537 291.568C221.954 291.295 222.491 291.159 223.151 291.159C223.741 291.159 224.259 291.28 224.702 291.523C225.145 291.761 225.49 292.125 225.736 292.614C225.982 293.098 226.105 293.712 226.105 294.455V300H224.764V294.545C224.764 293.86 224.586 293.326 224.23 292.943C223.874 292.557 223.385 292.364 222.764 292.364C222.336 292.364 221.954 292.456 221.616 292.642C221.283 292.828 221.02 293.098 220.827 293.455C220.634 293.811 220.537 294.242 220.537 294.75ZM232.101 300.182C231.283 300.182 230.578 299.989 229.987 299.602C229.396 299.216 228.942 298.684 228.624 298.006C228.305 297.328 228.146 296.553 228.146 295.682C228.146 294.795 228.309 294.013 228.635 293.335C228.964 292.653 229.423 292.121 230.01 291.739C230.601 291.352 231.29 291.159 232.078 291.159C232.692 291.159 233.245 291.273 233.737 291.5C234.23 291.727 234.633 292.045 234.947 292.455C235.262 292.864 235.457 293.341 235.533 293.886H234.192C234.089 293.489 233.862 293.136 233.51 292.83C233.161 292.519 232.692 292.364 232.101 292.364C231.578 292.364 231.12 292.5 230.726 292.773C230.336 293.042 230.031 293.422 229.811 293.915C229.595 294.403 229.487 294.977 229.487 295.636C229.487 296.311 229.593 296.898 229.805 297.398C230.021 297.898 230.324 298.286 230.714 298.562C231.108 298.839 231.571 298.977 232.101 298.977C232.449 298.977 232.766 298.917 233.05 298.795C233.334 298.674 233.574 298.5 233.771 298.273C233.968 298.045 234.108 297.773 234.192 297.455H235.533C235.457 297.97 235.269 298.434 234.97 298.847C234.675 299.256 234.283 299.581 233.794 299.824C233.309 300.062 232.745 300.182 232.101 300.182ZM241.152 300.182C240.311 300.182 239.586 299.996 238.976 299.625C238.37 299.25 237.902 298.727 237.572 298.057C237.247 297.383 237.084 296.598 237.084 295.705C237.084 294.811 237.247 294.023 237.572 293.341C237.902 292.655 238.36 292.121 238.947 291.739C239.538 291.352 240.228 291.159 241.016 291.159C241.47 291.159 241.919 291.235 242.362 291.386C242.805 291.538 243.209 291.784 243.572 292.125C243.936 292.462 244.226 292.909 244.442 293.466C244.658 294.023 244.766 294.708 244.766 295.523V296.091H238.038V294.932H243.402C243.402 294.439 243.304 294 243.107 293.614C242.913 293.227 242.637 292.922 242.277 292.699C241.921 292.475 241.5 292.364 241.016 292.364C240.482 292.364 240.019 292.496 239.629 292.761C239.243 293.023 238.946 293.364 238.737 293.784C238.529 294.205 238.425 294.655 238.425 295.136V295.909C238.425 296.568 238.538 297.127 238.766 297.585C238.997 298.04 239.317 298.386 239.726 298.625C240.135 298.86 240.61 298.977 241.152 298.977C241.504 298.977 241.822 298.928 242.107 298.83C242.394 298.727 242.643 298.576 242.851 298.375C243.059 298.17 243.22 297.917 243.334 297.614L244.629 297.977C244.493 298.417 244.264 298.803 243.942 299.136C243.62 299.466 243.222 299.723 242.749 299.909C242.275 300.091 241.743 300.182 241.152 300.182ZM94.6598 320.182C93.8189 320.182 93.0935 319.996 92.4837 319.625C91.8776 319.25 91.4098 318.727 91.0803 318.057C90.7545 317.383 90.5916 316.598 90.5916 315.705C90.5916 314.811 90.7545 314.023 91.0803 313.341C91.4098 312.655 91.8681 312.121 92.4553 311.739C93.0462 311.352 93.7356 311.159 94.5234 311.159C94.978 311.159 95.4268 311.235 95.87 311.386C96.3132 311.538 96.7166 311.784 97.0803 312.125C97.4439 312.462 97.7337 312.909 97.9496 313.466C98.1655 314.023 98.2734 314.708 98.2734 315.523V316.091H91.5462V314.932H96.9098C96.9098 314.439 96.8113 314 96.6143 313.614C96.4212 313.227 96.1446 312.922 95.7848 312.699C95.4287 312.475 95.0083 312.364 94.5234 312.364C93.9893 312.364 93.5272 312.496 93.1371 312.761C92.7507 313.023 92.4534 313.364 92.245 313.784C92.0367 314.205 91.9325 314.655 91.9325 315.136V315.909C91.9325 316.568 92.0462 317.127 92.2734 317.585C92.5045 318.04 92.8246 318.386 93.2337 318.625C93.6428 318.86 94.1181 318.977 94.6598 318.977C95.0121 318.977 95.3303 318.928 95.6143 318.83C95.9022 318.727 96.1503 318.576 96.3587 318.375C96.567 318.17 96.728 317.917 96.8416 317.614L98.1371 317.977C98.0007 318.417 97.7715 318.803 97.4496 319.136C97.1276 319.466 96.7299 319.723 96.2564 319.909C95.7829 320.091 95.2507 320.182 94.6598 320.182ZM101.079 311.273L103.17 314.841L105.261 311.273H106.806L103.988 315.636L106.806 320H105.261L103.17 316.614L101.079 320H99.5334L102.306 315.636L99.5334 311.273H101.079ZM108.719 323.273V311.273H110.015V312.659H110.174C110.272 312.508 110.409 312.314 110.583 312.08C110.761 311.841 111.015 311.629 111.344 311.443C111.678 311.254 112.129 311.159 112.697 311.159C113.432 311.159 114.079 311.343 114.64 311.71C115.201 312.078 115.638 312.598 115.952 313.273C116.267 313.947 116.424 314.742 116.424 315.659C116.424 316.583 116.267 317.384 115.952 318.062C115.638 318.737 115.202 319.259 114.646 319.631C114.089 319.998 113.447 320.182 112.719 320.182C112.159 320.182 111.71 320.089 111.373 319.903C111.036 319.714 110.776 319.5 110.594 319.261C110.413 319.019 110.272 318.818 110.174 318.659H110.06V323.273H108.719ZM110.038 315.636C110.038 316.295 110.134 316.877 110.327 317.381C110.521 317.881 110.803 318.273 111.174 318.557C111.545 318.837 112 318.977 112.538 318.977C113.098 318.977 113.566 318.83 113.941 318.534C114.32 318.235 114.604 317.833 114.793 317.33C114.987 316.822 115.083 316.258 115.083 315.636C115.083 315.023 114.988 314.47 114.799 313.977C114.613 313.481 114.331 313.089 113.952 312.801C113.577 312.509 113.106 312.364 112.538 312.364C111.992 312.364 111.534 312.502 111.163 312.778C110.791 313.051 110.511 313.434 110.322 313.926C110.132 314.415 110.038 314.985 110.038 315.636ZM122.129 320.182C121.288 320.182 120.562 319.996 119.952 319.625C119.346 319.25 118.879 318.727 118.549 318.057C118.223 317.383 118.06 316.598 118.06 315.705C118.06 314.811 118.223 314.023 118.549 313.341C118.879 312.655 119.337 312.121 119.924 311.739C120.515 311.352 121.204 311.159 121.992 311.159C122.447 311.159 122.896 311.235 123.339 311.386C123.782 311.538 124.185 311.784 124.549 312.125C124.913 312.462 125.202 312.909 125.418 313.466C125.634 314.023 125.742 314.708 125.742 315.523V316.091H119.015V314.932H124.379C124.379 314.439 124.28 314 124.083 313.614C123.89 313.227 123.613 312.922 123.254 312.699C122.897 312.475 122.477 312.364 121.992 312.364C121.458 312.364 120.996 312.496 120.606 312.761C120.219 313.023 119.922 313.364 119.714 313.784C119.505 314.205 119.401 314.655 119.401 315.136V315.909C119.401 316.568 119.515 317.127 119.742 317.585C119.973 318.04 120.293 318.386 120.702 318.625C121.112 318.86 121.587 318.977 122.129 318.977C122.481 318.977 122.799 318.928 123.083 318.83C123.371 318.727 123.619 318.576 123.827 318.375C124.036 318.17 124.197 317.917 124.31 317.614L125.606 317.977C125.469 318.417 125.24 318.803 124.918 319.136C124.596 319.466 124.199 319.723 123.725 319.909C123.252 320.091 122.719 320.182 122.129 320.182ZM127.782 320V311.273H129.077V312.591H129.168C129.327 312.159 129.615 311.809 130.032 311.54C130.449 311.271 130.918 311.136 131.441 311.136C131.54 311.136 131.663 311.138 131.81 311.142C131.958 311.146 132.07 311.152 132.146 311.159V312.523C132.1 312.511 131.996 312.494 131.833 312.472C131.674 312.445 131.505 312.432 131.327 312.432C130.903 312.432 130.524 312.521 130.191 312.699C129.862 312.873 129.6 313.116 129.407 313.426C129.218 313.733 129.123 314.083 129.123 314.477V320H127.782ZM133.735 320V311.273H135.076V320H133.735ZM134.417 309.818C134.156 309.818 133.93 309.729 133.741 309.551C133.555 309.373 133.462 309.159 133.462 308.909C133.462 308.659 133.555 308.445 133.741 308.267C133.93 308.089 134.156 308 134.417 308C134.678 308 134.902 308.089 135.087 308.267C135.277 308.445 135.371 308.659 135.371 308.909C135.371 309.159 135.277 309.373 135.087 309.551C134.902 309.729 134.678 309.818 134.417 309.818ZM141.191 320.182C140.35 320.182 139.625 319.996 139.015 319.625C138.409 319.25 137.941 318.727 137.612 318.057C137.286 317.383 137.123 316.598 137.123 315.705C137.123 314.811 137.286 314.023 137.612 313.341C137.941 312.655 138.399 312.121 138.987 311.739C139.577 311.352 140.267 311.159 141.055 311.159C141.509 311.159 141.958 311.235 142.401 311.386C142.844 311.538 143.248 311.784 143.612 312.125C143.975 312.462 144.265 312.909 144.481 313.466C144.697 314.023 144.805 314.708 144.805 315.523V316.091H138.077V314.932H143.441C143.441 314.439 143.343 314 143.146 313.614C142.952 313.227 142.676 312.922 142.316 312.699C141.96 312.475 141.54 312.364 141.055 312.364C140.521 312.364 140.058 312.496 139.668 312.761C139.282 313.023 138.985 313.364 138.776 313.784C138.568 314.205 138.464 314.655 138.464 315.136V315.909C138.464 316.568 138.577 317.127 138.805 317.585C139.036 318.04 139.356 318.386 139.765 318.625C140.174 318.86 140.649 318.977 141.191 318.977C141.543 318.977 141.862 318.928 142.146 318.83C142.433 318.727 142.682 318.576 142.89 318.375C143.098 318.17 143.259 317.917 143.373 317.614L144.668 317.977C144.532 318.417 144.303 318.803 143.981 319.136C143.659 319.466 143.261 319.723 142.788 319.909C142.314 320.091 141.782 320.182 141.191 320.182ZM148.185 314.75V320H146.844V311.273H148.14V312.636H148.254C148.458 312.193 148.769 311.837 149.185 311.568C149.602 311.295 150.14 311.159 150.799 311.159C151.39 311.159 151.907 311.28 152.35 311.523C152.793 311.761 153.138 312.125 153.384 312.614C153.63 313.098 153.754 313.712 153.754 314.455V320H152.413V314.545C152.413 313.86 152.235 313.326 151.879 312.943C151.522 312.557 151.034 312.364 150.413 312.364C149.985 312.364 149.602 312.456 149.265 312.642C148.932 312.828 148.668 313.098 148.475 313.455C148.282 313.811 148.185 314.242 148.185 314.75ZM159.749 320.182C158.931 320.182 158.227 319.989 157.636 319.602C157.045 319.216 156.59 318.684 156.272 318.006C155.954 317.328 155.795 316.553 155.795 315.682C155.795 314.795 155.958 314.013 156.283 313.335C156.613 312.653 157.071 312.121 157.658 311.739C158.249 311.352 158.939 311.159 159.727 311.159C160.34 311.159 160.893 311.273 161.386 311.5C161.878 311.727 162.281 312.045 162.596 312.455C162.91 312.864 163.105 313.341 163.181 313.886H161.84C161.738 313.489 161.511 313.136 161.158 312.83C160.81 312.519 160.34 312.364 159.749 312.364C159.227 312.364 158.768 312.5 158.374 312.773C157.984 313.042 157.679 313.422 157.46 313.915C157.244 314.403 157.136 314.977 157.136 315.636C157.136 316.311 157.242 316.898 157.454 317.398C157.67 317.898 157.973 318.286 158.363 318.562C158.757 318.839 159.219 318.977 159.749 318.977C160.098 318.977 160.414 318.917 160.698 318.795C160.982 318.674 161.223 318.5 161.42 318.273C161.617 318.045 161.757 317.773 161.84 317.455H163.181C163.105 317.97 162.918 318.434 162.619 318.847C162.323 319.256 161.931 319.581 161.442 319.824C160.958 320.062 160.393 320.182 159.749 320.182ZM168.8 320.182C167.96 320.182 167.234 319.996 166.624 319.625C166.018 319.25 165.55 318.727 165.221 318.057C164.895 317.383 164.732 316.598 164.732 315.705C164.732 314.811 164.895 314.023 165.221 313.341C165.55 312.655 166.009 312.121 166.596 311.739C167.187 311.352 167.876 311.159 168.664 311.159C169.119 311.159 169.567 311.235 170.011 311.386C170.454 311.538 170.857 311.784 171.221 312.125C171.585 312.462 171.874 312.909 172.09 313.466C172.306 314.023 172.414 314.708 172.414 315.523V316.091H165.687V314.932H171.05C171.05 314.439 170.952 314 170.755 313.614C170.562 313.227 170.285 312.922 169.925 312.699C169.569 312.475 169.149 312.364 168.664 312.364C168.13 312.364 167.668 312.496 167.278 312.761C166.891 313.023 166.594 313.364 166.386 313.784C166.177 314.205 166.073 314.655 166.073 315.136V315.909C166.073 316.568 166.187 317.127 166.414 317.585C166.645 318.04 166.965 318.386 167.374 318.625C167.783 318.86 168.259 318.977 168.8 318.977C169.153 318.977 169.471 318.928 169.755 318.83C170.043 318.727 170.291 318.576 170.499 318.375C170.708 318.17 170.869 317.917 170.982 317.614L172.278 317.977C172.141 318.417 171.912 318.803 171.59 319.136C171.268 319.466 170.871 319.723 170.397 319.909C169.924 320.091 169.391 320.182 168.8 320.182Z" fill="#667085"/>
<circle cx="31" cy="31" r="28" fill="#C8951A" stroke="white" stroke-width="6"/>
<path d="M26.1747 40H23.1463L29.951 21.0909H33.2472L40.0518 40H37.0234L31.6776 24.5256H31.5298L26.1747 40ZM26.6825 32.5952H36.5064V34.9957H26.6825V32.5952Z" fill="white"/>
<defs>
<clipPath id="clip0_2765_37914">
<rect x="31" y="31" width="200" height="200" rx="16" fill="white"/>
</clipPath>
<clipPath id="clip1_2765_37914">
<rect width="202" height="610" fill="white" transform="translate(29 -46)"/>
</clipPath>
</defs>
</svg>
