<svg width="264" height="321" viewBox="0 0 264 321" fill="none" xmlns="http://www.w3.org/2000/svg">
<g clip-path="url(#clip0_2846_25756)">
<rect x="33" y="31" width="200" height="200" rx="16" fill="#F3F5F7"/>
<path d="M87.5 69H50.7674C48.6867 69 47 70.681 47 72.7546V105.607C47 107.681 48.6867 109.362 50.7674 109.362H87.5C89.5807 109.362 91.2674 107.681 91.2674 105.607V72.7546C91.2674 70.681 89.5807 69 87.5 69Z" fill="white"/>
<path d="M62.0678 86.8344L59.2422 89.6503L62.0678 92.4663" stroke="#C8951A" stroke-linecap="round" stroke-linejoin="round"/>
<path d="M65.8359 83.0797L68.6615 80.2638L71.4871 83.0797" stroke="#C8951A" stroke-linecap="round" stroke-linejoin="round"/>
<path d="M71.4871 96.2209L68.6615 99.0368L65.8359 96.2209" stroke="#C8951A" stroke-linecap="round" stroke-linejoin="round"/>
<path d="M75.2578 86.8344L78.0834 89.6503L75.2578 92.4663" stroke="#C8951A" stroke-linecap="round" stroke-linejoin="round"/>
<path d="M59.2422 89.6503H78.0794" stroke="#C8951A" stroke-linecap="round" stroke-linejoin="round"/>
<path d="M68.6641 80.2638V99.0368" stroke="#C8951A" stroke-linecap="round" stroke-linejoin="round"/>
<path d="M57.1719 121.308H58.4262L60.6068 126.615H60.6871L62.8679 121.308H64.1221V128.135H63.1387V123.195H63.0753L61.0551 128.125H60.2389L58.2188 123.192H58.1552V128.135H57.1719V121.308ZM67.7085 128.238C67.2268 128.238 66.8064 128.128 66.4475 127.908C66.0885 127.688 65.8098 127.381 65.6113 126.985C65.4129 126.59 65.3137 126.127 65.3137 125.598C65.3137 125.067 65.4129 124.603 65.6113 124.205C65.8098 123.807 66.0885 123.498 66.4475 123.278C66.8064 123.058 67.2268 122.948 67.7085 122.948C68.19 122.948 68.6104 123.058 68.9694 123.278C69.3284 123.498 69.6071 123.807 69.8055 124.205C70.004 124.603 70.1032 125.067 70.1032 125.598C70.1032 126.127 70.004 126.59 69.8055 126.985C69.6071 127.381 69.3284 127.688 68.9694 127.908C68.6104 128.128 68.19 128.238 67.7085 128.238ZM67.7118 127.402C68.024 127.402 68.2826 127.319 68.4878 127.155C68.6929 126.991 68.8445 126.772 68.9426 126.498C69.043 126.225 69.0931 125.924 69.0931 125.595C69.0931 125.268 69.043 124.968 68.9426 124.695C68.8445 124.42 68.6929 124.198 68.4878 124.032C68.2826 123.865 68.024 123.782 67.7118 123.782C67.3974 123.782 67.1365 123.865 66.9292 124.032C66.724 124.198 66.5713 124.42 66.471 124.695C66.3728 124.968 66.3237 125.268 66.3237 125.595C66.3237 125.924 66.3728 126.225 66.471 126.498C66.5713 126.772 66.724 126.991 66.9292 127.155C67.1365 127.319 67.3974 127.402 67.7118 127.402ZM75.4396 123.015L73.5766 128.135H72.5064L70.64 123.015H71.7137L73.0148 126.955H73.0683L74.366 123.015H75.4396ZM78.4189 128.238C77.9128 128.238 77.4769 128.131 77.1112 127.915C76.7477 127.697 76.4667 127.392 76.2683 126.998C76.0721 126.603 75.974 126.14 75.974 125.608C75.974 125.084 76.0721 124.622 76.2683 124.222C76.4667 123.822 76.7433 123.51 77.0978 123.285C77.4546 123.061 77.8715 122.948 78.3487 122.948C78.6386 122.948 78.9195 122.996 79.1915 123.092C79.4635 123.187 79.7078 123.337 79.924 123.542C80.1404 123.746 80.3109 124.012 80.4357 124.338C80.5606 124.663 80.6231 125.057 80.6231 125.522V125.875H76.5393V125.128H79.6431C79.6431 124.866 79.5896 124.634 79.4826 124.432C79.3755 124.227 79.225 124.066 79.031 123.948C78.8393 123.831 78.614 123.772 78.3554 123.772C78.0744 123.772 77.8291 123.841 77.6196 123.978C77.4122 124.114 77.2517 124.292 77.1379 124.512C77.0264 124.729 76.9707 124.966 76.9707 125.222V125.805C76.9707 126.147 77.0309 126.438 77.1513 126.678C77.2739 126.918 77.4445 127.102 77.663 127.228C77.8816 127.353 78.1368 127.415 78.429 127.415C78.6185 127.415 78.7913 127.388 78.9474 127.335C79.1035 127.279 79.2383 127.197 79.3521 127.088C79.4658 126.979 79.5527 126.845 79.613 126.685L80.5595 126.855C80.4837 127.133 80.3477 127.376 80.1515 127.585C79.9575 127.792 79.7133 127.953 79.419 128.068C79.1269 128.182 78.7935 128.238 78.4189 128.238Z" fill="#344054"/>
<path d="M153.43 69H116.697C114.616 69 112.93 70.681 112.93 72.7546V105.607C112.93 107.681 114.616 109.362 116.697 109.362H153.43C155.51 109.362 157.197 107.681 157.197 105.607V72.7546C157.197 70.681 155.51 69 153.43 69Z" fill="white"/>
<mask id="mask0_2846_25756" style="mask-type:luminance" maskUnits="userSpaceOnUse" x="123" y="77" width="23" height="23">
<path d="M145.894 77.4479H123.289V99.9755H145.894V77.4479Z" fill="white"/>
</mask>
<g mask="url(#mask0_2846_25756)">
<path d="M137.89 90.589H137.146L136.883 90.3356C137.806 89.2655 138.361 87.8763 138.361 86.3651C138.361 82.9953 135.621 80.2639 132.239 80.2639C128.858 80.2639 126.117 82.9953 126.117 86.3651C126.117 89.7348 128.858 92.4663 132.239 92.4663C133.756 92.4663 135.15 91.9125 136.223 90.9926L136.478 91.2554V91.997L141.187 96.6808L142.59 95.2823L137.89 90.589ZM132.239 90.589C129.894 90.589 128.001 88.7023 128.001 86.3651C128.001 84.0278 129.894 82.1412 132.239 82.1412C134.585 82.1412 136.478 84.0278 136.478 86.3651C136.478 88.7023 134.585 90.589 132.239 90.589Z" fill="#C8951A"/>
<path d="M134.592 86.8344H132.708V88.7117H131.767V86.8344H129.883V85.8957H131.767V84.0184H132.708V85.8957H134.592V86.8344Z" fill="#C8951A"/>
</g>
<path d="M117.272 128.135V127.448L120.875 122.195H117.242V121.308H122.139V121.995L118.537 127.248H122.169V128.135H117.272ZM125.549 128.238C125.067 128.238 124.647 128.128 124.288 127.908C123.929 127.688 123.65 127.381 123.452 126.985C123.253 126.589 123.154 126.127 123.154 125.598C123.154 125.067 123.253 124.603 123.452 124.205C123.65 123.807 123.929 123.498 124.288 123.278C124.647 123.058 125.067 122.948 125.549 122.948C126.03 122.948 126.451 123.058 126.81 123.278C127.169 123.498 127.447 123.807 127.646 124.205C127.844 124.603 127.944 125.067 127.944 125.598C127.944 126.127 127.844 126.589 127.646 126.985C127.447 127.381 127.169 127.688 126.81 127.908C126.451 128.128 126.03 128.238 125.549 128.238ZM125.552 127.402C125.864 127.402 126.123 127.319 126.328 127.155C126.533 126.991 126.685 126.772 126.783 126.498C126.883 126.225 126.933 125.924 126.933 125.595C126.933 125.268 126.883 124.968 126.783 124.695C126.685 124.419 126.533 124.198 126.328 124.032C126.123 123.865 125.864 123.782 125.552 123.782C125.238 123.782 124.977 123.865 124.769 124.032C124.564 124.198 124.412 124.419 124.311 124.695C124.213 124.968 124.164 125.268 124.164 125.595C124.164 125.924 124.213 126.225 124.311 126.498C124.412 126.772 124.564 126.991 124.769 127.155C124.977 127.319 125.238 127.402 125.552 127.402ZM131.224 128.238C130.742 128.238 130.322 128.128 129.963 127.908C129.604 127.688 129.325 127.381 129.127 126.985C128.928 126.589 128.829 126.127 128.829 125.598C128.829 125.067 128.928 124.603 129.127 124.205C129.325 123.807 129.604 123.498 129.963 123.278C130.322 123.058 130.742 122.948 131.224 122.948C131.705 122.948 132.126 123.058 132.485 123.278C132.844 123.498 133.122 123.807 133.321 124.205C133.519 124.603 133.619 125.067 133.619 125.598C133.619 126.127 133.519 126.589 133.321 126.985C133.122 127.381 132.844 127.688 132.485 127.908C132.126 128.128 131.705 128.238 131.224 128.238ZM131.227 127.402C131.539 127.402 131.798 127.319 132.003 127.155C132.208 126.991 132.36 126.772 132.458 126.498C132.558 126.225 132.608 125.924 132.608 125.595C132.608 125.268 132.558 124.968 132.458 124.695C132.36 124.419 132.208 124.198 132.003 124.032C131.798 123.865 131.539 123.782 131.227 123.782C130.913 123.782 130.652 123.865 130.445 124.032C130.239 124.198 130.087 124.419 129.986 124.695C129.888 124.968 129.839 125.268 129.839 125.595C129.839 125.924 129.888 126.225 129.986 126.498C130.087 126.772 130.239 126.991 130.445 127.155C130.652 127.319 130.913 127.402 131.227 127.402ZM134.735 128.135V123.015H135.695V123.848H135.758C135.865 123.566 136.04 123.346 136.284 123.188C136.527 123.028 136.818 122.948 137.156 122.948C137.5 122.948 137.787 123.028 138.019 123.188C138.253 123.348 138.426 123.568 138.538 123.848H138.591C138.714 123.575 138.909 123.357 139.177 123.195C139.444 123.031 139.763 122.948 140.133 122.948C140.599 122.948 140.979 123.094 141.274 123.385C141.571 123.676 141.719 124.115 141.719 124.702V128.135H140.719V124.795C140.719 124.448 140.624 124.197 140.434 124.042C140.245 123.886 140.018 123.808 139.755 123.808C139.43 123.808 139.177 123.908 138.996 124.108C138.815 124.306 138.725 124.561 138.725 124.872V128.135H137.728V124.732C137.728 124.454 137.641 124.231 137.468 124.062C137.294 123.893 137.067 123.808 136.789 123.808C136.599 123.808 136.424 123.858 136.263 123.958C136.105 124.056 135.977 124.193 135.879 124.368C135.783 124.544 135.735 124.747 135.735 124.978V128.135H134.735ZM145.552 128.135V123.015H146.551V128.135H145.552ZM146.057 122.225C145.882 122.225 145.734 122.167 145.608 122.052C145.486 121.934 145.425 121.794 145.425 121.632C145.425 121.467 145.486 121.327 145.608 121.212C145.734 121.094 145.882 121.035 146.057 121.035C146.231 121.035 146.379 121.094 146.501 121.212C146.627 121.327 146.689 121.467 146.689 121.632C146.689 121.794 146.627 121.934 146.501 122.052C146.379 122.167 146.231 122.225 146.057 122.225ZM148.897 125.095V128.135H147.897V123.015H148.857V123.848H148.921C149.039 123.577 149.224 123.359 149.476 123.195C149.73 123.031 150.05 122.948 150.435 122.948C150.786 122.948 151.092 123.022 151.356 123.168C151.618 123.313 151.823 123.528 151.968 123.815C152.113 124.102 152.184 124.456 152.184 124.878V128.135H151.185V124.998C151.185 124.627 151.088 124.337 150.894 124.128C150.7 123.917 150.434 123.812 150.094 123.812C149.863 123.812 149.657 123.862 149.476 123.962C149.298 124.062 149.155 124.208 149.051 124.402C148.948 124.593 148.897 124.824 148.897 125.095Z" fill="#344054"/>
<path d="M219.828 69H183.096C181.015 69 179.328 70.681 179.328 72.7546V105.607C179.328 107.681 181.015 109.362 183.096 109.362H219.828C221.909 109.362 223.596 107.681 223.596 105.607V72.7546C223.596 70.681 221.909 69 219.828 69Z" fill="white"/>
<mask id="mask1_2846_25756" style="mask-type:luminance" maskUnits="userSpaceOnUse" x="189" y="77" width="23" height="23">
<path d="M211.823 77.4479H189.219V99.9755H211.823V77.4479Z" fill="white"/>
</mask>
<g mask="url(#mask1_2846_25756)">
<path d="M203.82 90.589H203.076L202.812 90.3356C203.735 89.2655 204.291 87.8763 204.291 86.3651C204.291 82.9953 201.55 80.2639 198.169 80.2639C194.788 80.2639 192.047 82.9953 192.047 86.3651C192.047 89.7348 194.788 92.4663 198.169 92.4663C199.685 92.4663 201.079 91.9125 202.153 90.9926L202.407 91.2554V91.997L207.117 96.6808L208.52 95.2823L203.82 90.589ZM198.169 90.589C195.824 90.589 193.931 88.7023 193.931 86.3651C193.931 84.0278 195.824 82.1412 198.169 82.1412C200.514 82.1412 202.407 84.0278 202.407 86.3651C202.407 88.7023 200.514 90.589 198.169 90.589ZM195.814 85.8958H200.524V86.8344H195.814V85.8958Z" fill="#C8951A"/>
</g>
<path d="M179.436 128.135V127.448L183.038 122.195H179.406V121.308H184.303V121.995L180.7 127.248H184.333V128.135H179.436ZM187.713 128.238C187.231 128.238 186.81 128.128 186.451 127.908C186.093 127.688 185.814 127.381 185.616 126.985C185.417 126.589 185.317 126.127 185.317 125.598C185.317 125.067 185.417 124.603 185.616 124.205C185.814 123.807 186.093 123.498 186.451 123.278C186.81 123.058 187.231 122.948 187.713 122.948C188.194 122.948 188.615 123.058 188.974 123.278C189.333 123.498 189.611 123.807 189.81 124.205C190.008 124.603 190.108 125.067 190.108 125.598C190.108 126.127 190.008 126.589 189.81 126.985C189.611 127.381 189.333 127.688 188.974 127.908C188.615 128.128 188.194 128.238 187.713 128.238ZM187.716 127.402C188.028 127.402 188.287 127.319 188.491 127.155C188.697 126.991 188.848 126.772 188.946 126.498C189.047 126.225 189.097 125.924 189.097 125.595C189.097 125.268 189.047 124.968 188.946 124.695C188.848 124.419 188.697 124.198 188.491 124.032C188.287 123.865 188.028 123.782 187.716 123.782C187.402 123.782 187.141 123.865 186.934 124.032C186.728 124.198 186.576 124.419 186.475 124.695C186.377 124.968 186.328 125.268 186.328 125.595C186.328 125.924 186.377 126.225 186.475 126.498C186.576 126.772 186.728 126.991 186.934 127.155C187.141 127.319 187.402 127.402 187.716 127.402ZM193.387 128.238C192.906 128.238 192.486 128.128 192.127 127.908C191.768 127.688 191.489 127.381 191.291 126.985C191.092 126.589 190.993 126.127 190.993 125.598C190.993 125.067 191.092 124.603 191.291 124.205C191.489 123.807 191.768 123.498 192.127 123.278C192.486 123.058 192.906 122.948 193.387 122.948C193.869 122.948 194.29 123.058 194.648 123.278C195.007 123.498 195.286 123.807 195.485 124.205C195.683 124.603 195.782 125.067 195.782 125.598C195.782 126.127 195.683 126.589 195.485 126.985C195.286 127.381 195.007 127.688 194.648 127.908C194.29 128.128 193.869 128.238 193.387 128.238ZM193.391 127.402C193.703 127.402 193.962 127.319 194.167 127.155C194.372 126.991 194.524 126.772 194.622 126.498C194.722 126.225 194.773 125.924 194.773 125.595C194.773 125.268 194.722 124.968 194.622 124.695C194.524 124.419 194.372 124.198 194.167 124.032C193.962 123.865 193.703 123.782 193.391 123.782C193.076 123.782 192.816 123.865 192.608 124.032C192.403 124.198 192.25 124.419 192.151 124.695C192.052 124.968 192.003 125.268 192.003 125.595C192.003 125.924 192.052 126.225 192.151 126.498C192.25 126.772 192.403 126.991 192.608 127.155C192.816 127.319 193.076 127.402 193.391 127.402ZM196.898 128.135V123.015H197.858V123.848H197.922C198.03 123.566 198.204 123.346 198.447 123.188C198.691 123.028 198.981 122.948 199.32 122.948C199.664 122.948 199.951 123.028 200.183 123.188C200.417 123.348 200.591 123.568 200.702 123.848H200.755C200.878 123.575 201.073 123.357 201.34 123.195C201.608 123.031 201.927 122.948 202.297 122.948C202.763 122.948 203.143 123.094 203.438 123.385C203.735 123.676 203.882 124.115 203.882 124.702V128.135H202.882V124.795C202.882 124.448 202.788 124.197 202.598 124.042C202.408 123.886 202.182 123.808 201.92 123.808C201.594 123.808 201.34 123.908 201.159 124.108C200.98 124.306 200.889 124.561 200.889 124.872V128.135H199.893V124.732C199.893 124.454 199.805 124.231 199.632 124.062C199.458 123.893 199.231 123.808 198.953 123.808C198.762 123.808 198.588 123.858 198.427 123.958C198.269 124.056 198.141 124.193 198.043 124.368C197.947 124.544 197.899 124.747 197.899 124.978V128.135H196.898ZM213.746 124.722C213.746 125.451 213.612 126.077 213.344 126.602C213.077 127.124 212.71 127.526 212.244 127.808C211.78 128.088 211.253 128.228 210.662 128.228C210.069 128.228 209.539 128.088 209.073 127.808C208.61 127.526 208.244 127.123 207.977 126.598C207.709 126.074 207.575 125.448 207.575 124.722C207.575 123.993 207.709 123.367 207.977 122.845C208.244 122.321 208.61 121.918 209.073 121.638C209.539 121.356 210.069 121.215 210.662 121.215C211.253 121.215 211.78 121.356 212.244 121.638C212.71 121.918 213.077 122.321 213.344 122.845C213.612 123.367 213.746 123.993 213.746 124.722ZM212.723 124.722C212.723 124.166 212.632 123.698 212.451 123.318C212.273 122.936 212.028 122.647 211.716 122.452C211.406 122.254 211.055 122.155 210.662 122.155C210.267 122.155 209.915 122.254 209.605 122.452C209.295 122.647 209.05 122.936 208.87 123.318C208.691 123.698 208.602 124.166 208.602 124.722C208.602 125.277 208.691 125.746 208.87 126.128C209.05 126.508 209.295 126.797 209.605 126.995C209.915 127.19 210.267 127.288 210.662 127.288C211.055 127.288 211.406 127.19 211.716 126.995C212.028 126.797 212.273 126.508 212.451 126.128C212.632 125.746 212.723 125.277 212.723 124.722ZM218.208 126.012V123.015H219.212V128.135H218.229V127.248H218.175C218.056 127.522 217.867 127.749 217.606 127.932C217.348 128.112 217.026 128.202 216.64 128.202C216.31 128.202 216.017 128.129 215.764 127.985C215.512 127.838 215.313 127.622 215.168 127.335C215.026 127.048 214.954 126.694 214.954 126.272V123.015H215.954V126.152C215.954 126.501 216.051 126.778 216.245 126.985C216.439 127.192 216.691 127.295 217.001 127.295C217.188 127.295 217.375 127.248 217.56 127.155C217.747 127.062 217.902 126.921 218.024 126.732C218.15 126.543 218.211 126.303 218.208 126.012ZM222.954 123.015V123.815H220.147V123.015H222.954ZM220.9 121.788H221.9V126.632C221.9 126.825 221.929 126.971 221.987 127.068C222.045 127.164 222.12 127.229 222.211 127.265C222.305 127.298 222.406 127.315 222.515 127.315C222.596 127.315 222.666 127.309 222.726 127.298C222.786 127.287 222.834 127.278 222.867 127.272L223.047 128.095C222.99 128.117 222.907 128.139 222.8 128.162C222.693 128.186 222.559 128.199 222.398 128.202C222.136 128.206 221.89 128.159 221.663 128.062C221.435 127.964 221.251 127.813 221.111 127.608C220.971 127.404 220.9 127.147 220.9 126.838V121.788Z" fill="#344054"/>
<path d="M87.5 157.233H50.7674C48.6867 157.233 47 158.914 47 160.988V193.841C47 195.914 48.6867 197.595 50.7674 197.595H87.5C89.5807 197.595 91.2674 195.914 91.2674 193.841V160.988C91.2674 158.914 89.5807 157.233 87.5 157.233Z" fill="white"/>
<path d="M71.7576 169.578L70.8844 170.448L62.8589 178.446C62.3154 178.988 62.0432 179.26 61.8096 179.558C61.5338 179.91 61.2973 180.291 61.1042 180.695C60.9412 181.036 60.8197 181.401 60.5767 182.127L59.5463 185.207L59.2939 185.96C59.235 186.135 59.2262 186.323 59.2687 186.503C59.3112 186.683 59.4033 186.849 59.5346 186.979C59.6659 187.11 59.8312 187.201 60.012 187.245C60.1928 187.287 60.3819 187.277 60.5579 187.219L61.3133 186.968L64.4035 185.941C65.1335 185.699 65.4979 185.578 65.8408 185.415C66.2458 185.223 66.6282 184.987 66.9814 184.712C67.2809 184.479 67.5531 184.208 68.0965 183.666L76.1221 175.668L76.9952 174.798C77.6899 174.105 78.0801 173.167 78.0801 172.188C78.0801 171.209 77.6899 170.27 76.9952 169.578C76.3007 168.886 75.3587 168.497 74.3764 168.497C73.3942 168.497 72.4522 168.886 71.7576 169.578Z" stroke="#C8951A"/>
<path opacity="0.5" d="M70.885 170.447C70.885 170.447 70.9942 172.297 72.6312 173.928C74.2682 175.559 76.1227 175.667 76.1227 175.667M61.3138 186.968L59.5469 185.205" stroke="#C8951A"/>
<path d="M60.9375 216.368V209.541H63.3791C63.912 209.541 64.3535 209.638 64.7036 209.831C65.0537 210.025 65.3156 210.289 65.4896 210.624C65.6636 210.959 65.7505 211.334 65.7505 211.752C65.7505 212.171 65.6624 212.55 65.4863 212.885C65.3123 213.218 65.0492 213.483 64.6969 213.678C64.3468 213.871 63.9064 213.968 63.3758 213.968H61.6967V213.095H63.2822C63.6188 213.095 63.8919 213.037 64.1016 212.921C64.3111 212.804 64.465 212.643 64.5631 212.442C64.6612 212.239 64.7103 212.009 64.7103 211.752C64.7103 211.494 64.6612 211.265 64.5631 211.065C64.465 210.865 64.31 210.708 64.0982 210.594C63.8886 210.482 63.6121 210.425 63.2687 210.425H61.971V216.368H60.9375ZM69.0317 216.471C68.5255 216.471 68.0895 216.363 67.7239 216.148C67.3604 215.931 67.0795 215.625 66.881 215.231C66.6847 214.836 66.5867 214.372 66.5867 213.841C66.5867 213.317 66.6847 212.855 66.881 212.455C67.0795 212.055 67.3559 211.742 67.7105 211.518C68.0672 211.294 68.4843 211.181 68.9614 211.181C69.2512 211.181 69.5322 211.229 69.8043 211.325C70.0763 211.42 70.3204 211.571 70.5368 211.775C70.753 211.979 70.9236 212.245 71.0485 212.571C71.1734 212.896 71.2358 213.29 71.2358 213.755V214.108H67.1519V213.362H70.2558C70.2558 213.1 70.2023 212.867 70.0952 212.665C69.9882 212.46 69.8377 212.299 69.6437 212.182C69.4519 212.063 69.2267 212.005 68.9681 212.005C68.6871 212.005 68.4419 212.074 68.2322 212.212C68.0249 212.347 67.8643 212.525 67.7506 212.745C67.6391 212.963 67.5834 213.199 67.5834 213.454V214.038C67.5834 214.38 67.6435 214.671 67.764 214.911C67.8866 215.152 68.0572 215.335 68.2757 215.461C68.4942 215.586 68.7496 215.648 69.0416 215.648C69.2311 215.648 69.404 215.622 69.56 215.568C69.7162 215.513 69.8511 215.43 69.9648 215.321C70.0785 215.213 70.1655 215.078 70.2257 214.918L71.1722 215.088C71.0964 215.366 70.9604 215.61 70.7641 215.818C70.5702 216.025 70.326 216.186 70.0316 216.301C69.7396 216.415 69.4062 216.471 69.0317 216.471ZM73.3454 213.328V216.368H72.3453V211.248H73.3053V212.081H73.3688C73.487 211.81 73.6721 211.592 73.9241 211.428C74.1783 211.264 74.4982 211.181 74.884 211.181C75.234 211.181 75.5407 211.255 75.8037 211.402C76.0669 211.546 76.2709 211.761 76.4158 212.048C76.5608 212.335 76.6332 212.689 76.6332 213.112V216.368H75.6332V213.231C75.6332 212.86 75.5361 212.57 75.3422 212.362C75.1482 212.151 74.8817 212.045 74.5428 212.045C74.3109 212.045 74.1046 212.094 73.9241 212.195C73.7457 212.295 73.6041 212.442 73.4993 212.635C73.3967 212.826 73.3454 213.057 73.3454 213.328Z" fill="#344054"/>
<path d="M153.43 157.233H116.697C114.616 157.233 112.93 158.914 112.93 160.988V193.841C112.93 195.914 114.616 197.595 116.697 197.595H153.43C155.51 197.595 157.197 195.914 157.197 193.841V160.988C157.197 158.914 155.51 157.233 153.43 157.233Z" fill="white"/>
<path d="M134.594 183.515L141.187 176.945L144.012 179.761L137.419 186.331L134.594 183.515Z" stroke="#C8951A" stroke-linecap="round" stroke-linejoin="round"/>
<path d="M140.242 177.883L138.829 170.844L125.172 167.558L128.468 181.169L135.532 182.577L140.242 177.883Z" stroke="#C8951A" stroke-linecap="round" stroke-linejoin="round"/>
<path d="M125.172 167.558L132.317 174.679" stroke="#C8951A" stroke-linecap="round" stroke-linejoin="round"/>
<path d="M133.649 177.883C134.69 177.883 135.533 177.043 135.533 176.006C135.533 174.969 134.69 174.129 133.649 174.129C132.609 174.129 131.766 174.969 131.766 176.006C131.766 177.043 132.609 177.883 133.649 177.883Z" stroke="#C8951A" stroke-linecap="round" stroke-linejoin="round"/>
<path d="M122.156 216.368V209.541H124.598C125.131 209.541 125.572 209.638 125.922 209.831C126.272 210.025 126.534 210.289 126.708 210.624C126.882 210.959 126.969 211.334 126.969 211.752C126.969 212.171 126.881 212.55 126.705 212.885C126.531 213.218 126.268 213.483 125.916 213.678C125.566 213.871 125.125 213.968 124.595 213.968H122.915V213.095H124.501C124.838 213.095 125.111 213.037 125.32 212.921C125.53 212.804 125.684 212.644 125.782 212.442C125.88 212.239 125.929 212.009 125.929 211.752C125.929 211.494 125.88 211.265 125.782 211.065C125.684 210.865 125.529 210.708 125.317 210.594C125.107 210.482 124.831 210.425 124.487 210.425H123.19V216.368H122.156ZM130.25 216.471C129.744 216.471 129.308 216.363 128.943 216.148C128.579 215.931 128.298 215.625 128.1 215.231C127.903 214.836 127.805 214.373 127.805 213.841C127.805 213.317 127.903 212.855 128.1 212.455C128.298 212.055 128.575 211.742 128.929 211.518C129.286 211.294 129.703 211.181 130.18 211.181C130.47 211.181 130.751 211.229 131.023 211.325C131.295 211.42 131.539 211.571 131.755 211.775C131.972 211.979 132.142 212.245 132.267 212.571C132.392 212.896 132.455 213.29 132.455 213.755V214.108H128.371V213.362H131.475C131.475 213.1 131.421 212.867 131.314 212.665C131.207 212.46 131.056 212.299 130.862 212.182C130.671 212.063 130.445 212.005 130.187 212.005C129.906 212.005 129.661 212.074 129.451 212.212C129.244 212.347 129.083 212.525 128.969 212.745C128.858 212.963 128.802 213.199 128.802 213.454V214.038C128.802 214.38 128.862 214.671 128.983 214.911C129.105 215.152 129.276 215.335 129.494 215.461C129.713 215.586 129.968 215.648 130.26 215.648C130.45 215.648 130.623 215.622 130.779 215.568C130.935 215.513 131.07 215.43 131.184 215.321C131.297 215.213 131.384 215.078 131.444 214.918L132.391 215.088C132.315 215.366 132.179 215.61 131.983 215.818C131.789 216.025 131.545 216.186 131.25 216.301C130.958 216.415 130.625 216.471 130.25 216.471ZM134.564 213.328V216.368H133.564V211.248H134.524V212.081H134.588C134.706 211.81 134.891 211.592 135.143 211.428C135.397 211.264 135.717 211.181 136.103 211.181C136.453 211.181 136.759 211.255 137.022 211.402C137.286 211.546 137.49 211.761 137.635 212.048C137.78 212.335 137.852 212.69 137.852 213.112V216.368H136.852V213.231C136.852 212.86 136.755 212.57 136.561 212.362C136.367 212.151 136.1 212.045 135.762 212.045C135.53 212.045 135.323 212.094 135.143 212.195C134.964 212.295 134.823 212.442 134.718 212.635C134.615 212.826 134.564 213.057 134.564 213.328ZM141.357 216.471C140.86 216.471 140.432 216.36 140.073 216.134C139.716 215.908 139.442 215.596 139.25 215.199C139.058 214.801 138.962 214.344 138.962 213.832C138.962 213.312 139.06 212.853 139.257 212.455C139.453 212.055 139.729 211.742 140.086 211.518C140.443 211.294 140.863 211.181 141.348 211.181C141.738 211.181 142.085 211.253 142.39 211.398C142.696 211.541 142.942 211.741 143.13 211.998C143.32 212.256 143.432 212.557 143.468 212.902H142.495C142.441 212.661 142.319 212.455 142.127 212.281C141.937 212.108 141.683 212.021 141.364 212.021C141.085 212.021 140.841 212.094 140.631 212.242C140.424 212.386 140.262 212.593 140.146 212.861C140.03 213.128 139.972 213.443 139.972 213.808C139.972 214.181 140.029 214.504 140.143 214.775C140.257 215.046 140.417 215.256 140.625 215.405C140.834 215.553 141.081 215.628 141.364 215.628C141.554 215.628 141.725 215.594 141.879 215.525C142.035 215.454 142.165 215.352 142.271 215.221C142.377 215.091 142.452 214.933 142.495 214.748H143.468C143.432 215.079 143.324 215.375 143.143 215.635C142.963 215.895 142.721 216.1 142.418 216.248C142.116 216.397 141.763 216.471 141.357 216.471ZM144.537 216.368V211.248H145.537V216.368H144.537ZM145.043 210.458C144.868 210.458 144.719 210.4 144.594 210.285C144.472 210.167 144.41 210.027 144.41 209.865C144.41 209.701 144.472 209.56 144.594 209.445C144.719 209.327 144.868 209.268 145.043 209.268C145.216 209.268 145.365 209.327 145.487 209.445C145.612 209.56 145.675 209.701 145.675 209.865C145.675 210.027 145.612 210.167 145.487 210.285C145.365 210.4 145.216 210.458 145.043 210.458ZM147.882 209.541V216.368H146.883V209.541H147.882Z" fill="#344054"/>
<path d="M219.359 157.233H182.627C180.546 157.233 178.859 158.914 178.859 160.988V193.841C178.859 195.914 180.546 197.595 182.627 197.595H219.359C221.44 197.595 223.127 195.914 223.127 193.841V160.988C223.127 158.914 221.44 157.233 219.359 157.233Z" fill="white"/>
<path d="M192.047 168.497L198.706 184.426L201.07 177.489L208.03 175.133L192.047 168.497Z" stroke="#C8951A" stroke-linecap="round" stroke-linejoin="round"/>
<path d="M201.469 177.883L207.12 183.515" stroke="#C8951A" stroke-linecap="round" stroke-linejoin="round"/>
<path d="M185.266 216.368V209.541H187.707C188.24 209.541 188.682 209.638 189.032 209.831C189.382 210.025 189.643 210.289 189.818 210.624C189.992 210.959 190.079 211.334 190.079 211.752C190.079 212.171 189.991 212.55 189.815 212.885C189.641 213.218 189.378 213.483 189.025 213.678C188.675 213.871 188.234 213.968 187.704 213.968H186.025V213.095H187.61C187.947 213.095 188.22 213.037 188.429 212.921C188.639 212.804 188.793 212.644 188.891 212.442C188.99 212.239 189.039 212.009 189.039 211.752C189.039 211.494 188.99 211.265 188.891 211.065C188.793 210.865 188.638 210.708 188.427 210.594C188.216 210.482 187.941 210.425 187.597 210.425H186.299V216.368H185.266ZM193.309 216.471C192.828 216.471 192.408 216.362 192.049 216.142C191.69 215.921 191.411 215.613 191.213 215.218C191.014 214.822 190.915 214.36 190.915 213.832C190.915 213.301 191.014 212.836 191.213 212.438C191.411 212.04 191.69 211.731 192.049 211.512C192.408 211.292 192.828 211.181 193.309 211.181C193.791 211.181 194.211 211.292 194.57 211.512C194.929 211.731 195.208 212.04 195.407 212.438C195.605 212.836 195.704 213.301 195.704 213.832C195.704 214.36 195.605 214.822 195.407 215.218C195.208 215.613 194.929 215.921 194.57 216.142C194.211 216.362 193.791 216.471 193.309 216.471ZM193.313 215.635C193.625 215.635 193.884 215.552 194.089 215.388C194.294 215.224 194.446 215.005 194.544 214.731C194.644 214.458 194.695 214.157 194.695 213.828C194.695 213.501 194.644 213.201 194.544 212.928C194.446 212.653 194.294 212.431 194.089 212.265C193.884 212.098 193.625 212.015 193.313 212.015C192.998 212.015 192.737 212.098 192.53 212.265C192.325 212.431 192.172 212.653 192.072 212.928C191.974 213.201 191.925 213.501 191.925 213.828C191.925 214.157 191.974 214.458 192.072 214.731C192.172 215.005 192.325 215.224 192.53 215.388C192.737 215.552 192.998 215.635 193.313 215.635ZM196.82 216.368V211.248H197.821V216.368H196.82ZM197.326 210.458C197.152 210.458 197.002 210.4 196.878 210.285C196.754 210.167 196.693 210.027 196.693 209.865C196.693 209.701 196.754 209.56 196.878 209.445C197.002 209.327 197.152 209.268 197.326 209.268C197.499 209.268 197.648 209.327 197.771 209.445C197.895 209.56 197.958 209.701 197.958 209.865C197.958 210.027 197.895 210.167 197.771 210.285C197.648 210.4 197.499 210.458 197.326 210.458ZM200.166 213.328V216.368H199.167V211.248H200.126V212.081H200.189C200.308 211.81 200.493 211.592 200.745 211.428C200.999 211.264 201.319 211.181 201.705 211.181C202.055 211.181 202.361 211.255 202.624 211.402C202.888 211.546 203.091 211.761 203.236 212.048C203.381 212.335 203.454 212.69 203.454 213.112V216.368H202.454V213.231C202.454 212.86 202.357 212.57 202.163 212.362C201.969 212.151 201.702 212.045 201.364 212.045C201.131 212.045 200.925 212.094 200.745 212.195C200.566 212.295 200.425 212.442 200.32 212.635C200.218 212.826 200.166 213.057 200.166 213.328ZM207.193 211.248V212.048H204.387V211.248H207.193ZM205.14 210.022H206.14V214.864C206.14 215.058 206.168 215.203 206.227 215.302C206.285 215.397 206.36 215.462 206.451 215.498C206.544 215.532 206.646 215.548 206.755 215.548C206.835 215.548 206.906 215.543 206.966 215.532C207.026 215.52 207.073 215.511 207.106 215.505L207.287 216.328C207.229 216.35 207.147 216.373 207.04 216.394C206.932 216.419 206.798 216.433 206.638 216.435C206.375 216.439 206.13 216.392 205.903 216.295C205.675 216.197 205.491 216.046 205.351 215.841C205.21 215.637 205.14 215.381 205.14 215.072V210.022ZM210.459 216.471C209.953 216.471 209.517 216.363 209.151 216.148C208.788 215.931 208.506 215.625 208.308 215.231C208.111 214.836 208.013 214.373 208.013 213.841C208.013 213.317 208.111 212.855 208.308 212.455C208.506 212.055 208.783 211.742 209.137 211.518C209.494 211.294 209.911 211.181 210.388 211.181C210.678 211.181 210.96 211.229 211.231 211.325C211.503 211.42 211.747 211.571 211.964 211.775C212.18 211.979 212.351 212.245 212.475 212.571C212.6 212.896 212.662 213.29 212.662 213.755V214.108H208.579V213.362H211.683C211.683 213.1 211.629 212.867 211.522 212.665C211.415 212.46 211.265 212.299 211.071 212.182C210.879 212.063 210.653 212.005 210.395 212.005C210.114 212.005 209.869 212.074 209.659 212.212C209.452 212.347 209.292 212.525 209.178 212.745C209.066 212.963 209.01 213.199 209.01 213.454V214.038C209.01 214.38 209.07 214.671 209.191 214.911C209.313 215.152 209.484 215.335 209.702 215.461C209.922 215.586 210.177 215.648 210.469 215.648C210.658 215.648 210.831 215.622 210.987 215.568C211.143 215.513 211.278 215.43 211.392 215.321C211.506 215.213 211.593 215.078 211.653 214.918L212.599 215.088C212.523 215.366 212.387 215.61 212.192 215.818C211.998 216.025 211.753 216.186 211.459 216.301C211.167 216.415 210.833 216.471 210.459 216.471ZM213.772 216.368V211.248H214.739V212.062H214.792C214.886 211.786 215.051 211.57 215.287 211.411C215.526 211.251 215.796 211.172 216.096 211.172C216.16 211.172 216.233 211.174 216.318 211.178C216.404 211.183 216.472 211.189 216.521 211.195V212.148C216.482 212.137 216.41 212.124 216.307 212.111C216.205 212.096 216.102 212.088 215.999 212.088C215.763 212.088 215.553 212.139 215.367 212.238C215.185 212.336 215.04 212.473 214.933 212.648C214.826 212.822 214.772 213.019 214.772 213.241V216.368H213.772Z" fill="#344054"/>
</g>
<path d="M109.749 258.897V256.909H120.194V258.897H116.148V270H113.795V258.897H109.749ZM124.964 270.192C124.005 270.192 123.174 269.981 122.471 269.559C121.768 269.137 121.222 268.547 120.835 267.788C120.451 267.03 120.259 266.143 120.259 265.129C120.259 264.115 120.451 263.227 120.835 262.464C121.222 261.701 121.768 261.109 122.471 260.687C123.174 260.265 124.005 260.054 124.964 260.054C125.923 260.054 126.754 260.265 127.457 260.687C128.16 261.109 128.703 261.701 129.087 262.464C129.474 263.227 129.668 264.115 129.668 265.129C129.668 266.143 129.474 267.03 129.087 267.788C128.703 268.547 128.16 269.137 127.457 269.559C126.754 269.981 125.923 270.192 124.964 270.192ZM124.977 268.338C125.496 268.338 125.931 268.195 126.281 267.91C126.63 267.62 126.89 267.232 127.06 266.746C127.235 266.261 127.322 265.719 127.322 265.123C127.322 264.522 127.235 263.979 127.06 263.493C126.89 263.003 126.63 262.613 126.281 262.323C125.931 262.033 125.496 261.888 124.977 261.888C124.444 261.888 124.001 262.033 123.647 262.323C123.298 262.613 123.036 263.003 122.861 263.493C122.69 263.979 122.605 264.522 122.605 265.123C122.605 265.719 122.69 266.261 122.861 266.746C123.036 267.232 123.298 267.62 123.647 267.91C124.001 268.195 124.444 268.338 124.977 268.338ZM135.915 270.192C134.956 270.192 134.125 269.981 133.422 269.559C132.719 269.137 132.173 268.547 131.786 267.788C131.402 267.03 131.21 266.143 131.21 265.129C131.21 264.115 131.402 263.227 131.786 262.464C132.173 261.701 132.719 261.109 133.422 260.687C134.125 260.265 134.956 260.054 135.915 260.054C136.874 260.054 137.705 260.265 138.408 260.687C139.111 261.109 139.654 261.701 140.038 262.464C140.426 263.227 140.619 264.115 140.619 265.129C140.619 266.143 140.426 267.03 140.038 267.788C139.654 268.547 139.111 269.137 138.408 269.559C137.705 269.981 136.874 270.192 135.915 270.192ZM135.928 268.338C136.448 268.338 136.882 268.195 137.232 267.91C137.581 267.62 137.841 267.232 138.012 266.746C138.186 266.261 138.274 265.719 138.274 265.123C138.274 264.522 138.186 263.979 138.012 263.493C137.841 263.003 137.581 262.613 137.232 262.323C136.882 262.033 136.448 261.888 135.928 261.888C135.395 261.888 134.952 262.033 134.598 262.323C134.249 262.613 133.987 263.003 133.812 263.493C133.642 263.979 133.556 264.522 133.556 265.123C133.556 265.719 133.642 266.261 133.812 266.746C133.987 267.232 134.249 267.62 134.598 267.91C134.952 268.195 135.395 268.338 135.928 268.338ZM144.897 256.909V270H142.583V256.909H144.897ZM155.037 262.777L152.927 263.007C152.868 262.794 152.763 262.594 152.614 262.406C152.469 262.219 152.273 262.067 152.026 261.952C151.779 261.837 151.476 261.78 151.118 261.78C150.637 261.78 150.232 261.884 149.904 262.093C149.58 262.302 149.42 262.572 149.425 262.905C149.42 263.19 149.525 263.423 149.738 263.602C149.955 263.781 150.313 263.928 150.812 264.043L152.486 264.401C153.415 264.601 154.106 264.918 154.557 265.353C155.013 265.788 155.243 266.357 155.248 267.06C155.243 267.678 155.062 268.223 154.704 268.696C154.351 269.165 153.858 269.531 153.228 269.795C152.597 270.06 151.873 270.192 151.055 270.192C149.853 270.192 148.885 269.94 148.153 269.438C147.42 268.93 146.983 268.225 146.842 267.322L149.099 267.104C149.201 267.548 149.418 267.882 149.751 268.108C150.083 268.334 150.515 268.447 151.048 268.447C151.598 268.447 152.039 268.334 152.371 268.108C152.708 267.882 152.876 267.603 152.876 267.271C152.876 266.989 152.768 266.757 152.55 266.574C152.337 266.391 152.005 266.25 151.553 266.152L149.878 265.8C148.937 265.604 148.24 265.274 147.788 264.81C147.336 264.341 147.113 263.749 147.117 263.033C147.113 262.428 147.277 261.903 147.609 261.46C147.946 261.013 148.412 260.668 149.009 260.425C149.61 260.178 150.302 260.054 151.086 260.054C152.237 260.054 153.143 260.299 153.803 260.789C154.468 261.279 154.879 261.942 155.037 262.777Z" fill="#101828"/>
<path d="M0.479403 285.364H2.09304L5.32031 290.795H5.45668L8.68395 285.364H10.2976L6.09304 292.205V297H4.68395V292.205L0.479403 285.364ZM14.2493 297.182C13.4614 297.182 12.7701 296.994 12.1754 296.619C11.5845 296.244 11.1224 295.72 10.7891 295.045C10.4595 294.371 10.2947 293.583 10.2947 292.682C10.2947 291.773 10.4595 290.979 10.7891 290.301C11.1224 289.623 11.5845 289.097 12.1754 288.722C12.7701 288.347 13.4614 288.159 14.2493 288.159C15.0372 288.159 15.7266 288.347 16.3175 288.722C16.9122 289.097 17.3743 289.623 17.7038 290.301C18.0372 290.979 18.2038 291.773 18.2038 292.682C18.2038 293.583 18.0372 294.371 17.7038 295.045C17.3743 295.72 16.9122 296.244 16.3175 296.619C15.7266 296.994 15.0372 297.182 14.2493 297.182ZM14.2493 295.977C14.8478 295.977 15.3402 295.824 15.7266 295.517C16.1129 295.21 16.3989 294.807 16.5845 294.307C16.7701 293.807 16.8629 293.265 16.8629 292.682C16.8629 292.098 16.7701 291.555 16.5845 291.051C16.3989 290.547 16.1129 290.14 15.7266 289.83C15.3402 289.519 14.8478 289.364 14.2493 289.364C13.6508 289.364 13.1584 289.519 12.772 289.83C12.3857 290.14 12.0997 290.547 11.9141 291.051C11.7285 291.555 11.6357 292.098 11.6357 292.682C11.6357 293.265 11.7285 293.807 11.9141 294.307C12.0997 294.807 12.3857 295.21 12.772 295.517C13.1584 295.824 13.6508 295.977 14.2493 295.977ZM25.7507 293.432V288.273H27.0916V297H25.7507V295.523H25.6598C25.4553 295.966 25.1371 296.343 24.7053 296.653C24.2734 296.96 23.728 297.114 23.0689 297.114C22.5234 297.114 22.0386 296.994 21.6143 296.756C21.1901 296.513 20.8568 296.15 20.6143 295.665C20.3719 295.176 20.2507 294.561 20.2507 293.818V288.273H21.5916V293.727C21.5916 294.364 21.7696 294.871 22.1257 295.25C22.4856 295.629 22.9439 295.818 23.5007 295.818C23.834 295.818 24.1731 295.733 24.5178 295.562C24.8662 295.392 25.1579 295.131 25.3928 294.778C25.6314 294.426 25.7507 293.977 25.7507 293.432ZM29.5476 297V288.273H30.843V289.591H30.9339C31.093 289.159 31.3809 288.809 31.7976 288.54C32.2143 288.271 32.6839 288.136 33.2067 288.136C33.3052 288.136 33.4283 288.138 33.576 288.142C33.7237 288.146 33.8355 288.152 33.9112 288.159V289.523C33.8658 289.511 33.7616 289.494 33.5987 289.472C33.4396 289.445 33.2711 289.432 33.093 289.432C32.6688 289.432 32.29 289.521 31.9567 289.699C31.6271 289.873 31.3658 290.116 31.1726 290.426C30.9832 290.733 30.8885 291.083 30.8885 291.477V297H29.5476ZM43.5462 297.182C42.728 297.182 42.0234 296.989 41.4325 296.602C40.8416 296.216 40.3871 295.684 40.0689 295.006C39.7507 294.328 39.5916 293.553 39.5916 292.682C39.5916 291.795 39.7545 291.013 40.0803 290.335C40.4098 289.653 40.8681 289.121 41.4553 288.739C42.0462 288.352 42.7356 288.159 43.5234 288.159C44.1371 288.159 44.6901 288.273 45.1825 288.5C45.675 288.727 46.0784 289.045 46.3928 289.455C46.7071 289.864 46.9022 290.341 46.978 290.886H45.6371C45.5348 290.489 45.3075 290.136 44.9553 289.83C44.6068 289.519 44.1371 289.364 43.5462 289.364C43.0234 289.364 42.5651 289.5 42.1712 289.773C41.781 290.042 41.4761 290.422 41.2564 290.915C41.0405 291.403 40.9325 291.977 40.9325 292.636C40.9325 293.311 41.0386 293.898 41.2507 294.398C41.4666 294.898 41.7696 295.286 42.1598 295.562C42.5537 295.839 43.0159 295.977 43.5462 295.977C43.8946 295.977 44.2109 295.917 44.495 295.795C44.7791 295.674 45.0196 295.5 45.2166 295.273C45.4136 295.045 45.5537 294.773 45.6371 294.455H46.978C46.9022 294.97 46.7147 295.434 46.4155 295.847C46.12 296.256 45.728 296.581 45.2393 296.824C44.7545 297.062 44.1901 297.182 43.5462 297.182ZM52.4837 297.182C51.6958 297.182 51.0045 296.994 50.4098 296.619C49.8189 296.244 49.3568 295.72 49.0234 295.045C48.6939 294.371 48.5291 293.583 48.5291 292.682C48.5291 291.773 48.6939 290.979 49.0234 290.301C49.3568 289.623 49.8189 289.097 50.4098 288.722C51.0045 288.347 51.6958 288.159 52.4837 288.159C53.2715 288.159 53.9609 288.347 54.5518 288.722C55.1465 289.097 55.6087 289.623 55.9382 290.301C56.2715 290.979 56.4382 291.773 56.4382 292.682C56.4382 293.583 56.2715 294.371 55.9382 295.045C55.6087 295.72 55.1465 296.244 54.5518 296.619C53.9609 296.994 53.2715 297.182 52.4837 297.182ZM52.4837 295.977C53.0821 295.977 53.5746 295.824 53.9609 295.517C54.3473 295.21 54.6333 294.807 54.8189 294.307C55.0045 293.807 55.0973 293.265 55.0973 292.682C55.0973 292.098 55.0045 291.555 54.8189 291.051C54.6333 290.547 54.3473 290.14 53.9609 289.83C53.5746 289.519 53.0821 289.364 52.4837 289.364C51.8852 289.364 51.3928 289.519 51.0064 289.83C50.62 290.14 50.334 290.547 50.1484 291.051C49.9628 291.555 49.87 292.098 49.87 292.682C49.87 293.265 49.9628 293.807 50.1484 294.307C50.334 294.807 50.62 295.21 51.0064 295.517C51.3928 295.824 51.8852 295.977 52.4837 295.977ZM58.4851 297V288.273H59.7805V289.636H59.8942C60.076 289.17 60.3696 288.809 60.7749 288.551C61.1802 288.29 61.6669 288.159 62.2351 288.159C62.8108 288.159 63.29 288.29 63.6726 288.551C64.0589 288.809 64.3601 289.17 64.576 289.636H64.6669C64.8904 289.186 65.2256 288.828 65.6726 288.562C66.1196 288.294 66.6555 288.159 67.2805 288.159C68.0608 288.159 68.6991 288.403 69.1953 288.892C69.6915 289.377 69.9396 290.133 69.9396 291.159V297H68.5987V291.159C68.5987 290.515 68.4226 290.055 68.0703 289.778C67.718 289.502 67.3033 289.364 66.826 289.364C66.2124 289.364 65.737 289.549 65.3999 289.92C65.0627 290.288 64.8942 290.754 64.8942 291.318V297H63.5305V291.023C63.5305 290.527 63.3696 290.127 63.0476 289.824C62.7256 289.517 62.3108 289.364 61.8033 289.364C61.4548 289.364 61.129 289.456 60.826 289.642C60.5268 289.828 60.2843 290.085 60.0987 290.415C59.9169 290.741 59.826 291.117 59.826 291.545V297H58.4851ZM72.3913 297V288.273H73.6868V289.636H73.8004C73.9822 289.17 74.2758 288.809 74.6811 288.551C75.0864 288.29 75.5732 288.159 76.1413 288.159C76.7171 288.159 77.1963 288.29 77.5788 288.551C77.9652 288.809 78.2663 289.17 78.4822 289.636H78.5732C78.7966 289.186 79.1319 288.828 79.5788 288.562C80.0258 288.294 80.5618 288.159 81.1868 288.159C81.9671 288.159 82.6054 288.403 83.1016 288.892C83.5978 289.377 83.8459 290.133 83.8459 291.159V297H82.505V291.159C82.505 290.515 82.3288 290.055 81.9766 289.778C81.6243 289.502 81.2095 289.364 80.7322 289.364C80.1186 289.364 79.6432 289.549 79.3061 289.92C78.969 290.288 78.8004 290.754 78.8004 291.318V297H77.4368V291.023C77.4368 290.527 77.2758 290.127 76.9538 289.824C76.6319 289.517 76.2171 289.364 75.7095 289.364C75.361 289.364 75.0353 289.456 74.7322 289.642C74.433 289.828 74.1906 290.085 74.005 290.415C73.8232 290.741 73.7322 291.117 73.7322 291.545V297H72.3913ZM88.8658 297.205C88.3127 297.205 87.8108 297.1 87.3601 296.892C86.9093 296.68 86.5514 296.375 86.2862 295.977C86.0211 295.576 85.8885 295.091 85.8885 294.523C85.8885 294.023 85.987 293.617 86.1839 293.307C86.3809 292.992 86.6442 292.746 86.9737 292.568C87.3033 292.39 87.6669 292.258 88.0646 292.17C88.4661 292.08 88.8696 292.008 89.2749 291.955C89.8052 291.886 90.2351 291.835 90.5646 291.801C90.898 291.763 91.1404 291.701 91.2919 291.614C91.4472 291.527 91.5249 291.375 91.5249 291.159V291.114C91.5249 290.553 91.3714 290.117 91.0646 289.807C90.7616 289.496 90.3014 289.341 89.6839 289.341C89.0438 289.341 88.5419 289.481 88.1783 289.761C87.8146 290.042 87.5589 290.341 87.4112 290.659L86.1385 290.205C86.3658 289.674 86.6688 289.261 87.0476 288.966C87.4302 288.667 87.8468 288.458 88.2976 288.341C88.7521 288.22 89.1991 288.159 89.6385 288.159C89.9188 288.159 90.2408 288.193 90.6044 288.261C90.9718 288.326 91.326 288.46 91.6669 288.665C92.0116 288.869 92.2976 289.178 92.5249 289.591C92.7521 290.004 92.8658 290.557 92.8658 291.25V297H91.5249V295.818H91.4567C91.3658 296.008 91.2143 296.21 91.0021 296.426C90.79 296.642 90.5078 296.826 90.1555 296.977C89.8033 297.129 89.3733 297.205 88.8658 297.205ZM89.0703 296C89.6006 296 90.0476 295.896 90.4112 295.688C90.7786 295.479 91.0552 295.21 91.2408 294.881C91.4302 294.551 91.5249 294.205 91.5249 293.841V292.614C91.468 292.682 91.343 292.744 91.1499 292.801C90.9605 292.854 90.7408 292.902 90.4908 292.943C90.2446 292.981 90.004 293.015 89.7692 293.045C89.5381 293.072 89.3506 293.095 89.2067 293.114C88.8582 293.159 88.5324 293.233 88.2294 293.335C87.9302 293.434 87.6877 293.583 87.5021 293.784C87.3203 293.981 87.2294 294.25 87.2294 294.591C87.2294 295.057 87.4018 295.409 87.7464 295.648C88.0949 295.883 88.5362 296 89.0703 296ZM96.6541 291.75V297H95.3132V288.273H96.6087V289.636H96.7223C96.9268 289.193 97.2375 288.837 97.6541 288.568C98.0708 288.295 98.6087 288.159 99.2678 288.159C99.8587 288.159 100.376 288.28 100.819 288.523C101.262 288.761 101.607 289.125 101.853 289.614C102.099 290.098 102.222 290.712 102.222 291.455V297H100.881V291.545C100.881 290.86 100.703 290.326 100.347 289.943C99.9912 289.557 99.5026 289.364 98.8814 289.364C98.4534 289.364 98.0708 289.456 97.7337 289.642C97.4003 289.828 97.1371 290.098 96.9439 290.455C96.7507 290.811 96.6541 291.242 96.6541 291.75ZM107.968 297.182C107.241 297.182 106.599 296.998 106.042 296.631C105.485 296.259 105.049 295.737 104.735 295.062C104.421 294.384 104.263 293.583 104.263 292.659C104.263 291.742 104.421 290.947 104.735 290.273C105.049 289.598 105.487 289.078 106.048 288.71C106.608 288.343 107.256 288.159 107.991 288.159C108.559 288.159 109.008 288.254 109.337 288.443C109.671 288.629 109.924 288.841 110.099 289.08C110.277 289.314 110.415 289.508 110.513 289.659H110.627V285.364H111.968V297H110.673V295.659H110.513C110.415 295.818 110.275 296.019 110.093 296.261C109.911 296.5 109.652 296.714 109.315 296.903C108.978 297.089 108.529 297.182 107.968 297.182ZM108.15 295.977C108.688 295.977 109.142 295.837 109.513 295.557C109.885 295.273 110.167 294.881 110.36 294.381C110.553 293.877 110.65 293.295 110.65 292.636C110.65 291.985 110.555 291.415 110.366 290.926C110.176 290.434 109.896 290.051 109.525 289.778C109.154 289.502 108.695 289.364 108.15 289.364C107.582 289.364 107.108 289.509 106.729 289.801C106.354 290.089 106.072 290.481 105.883 290.977C105.697 291.47 105.604 292.023 105.604 292.636C105.604 293.258 105.699 293.822 105.888 294.33C106.082 294.833 106.366 295.235 106.741 295.534C107.12 295.83 107.589 295.977 108.15 295.977ZM122.656 297.182C121.837 297.182 121.133 296.989 120.542 296.602C119.951 296.216 119.496 295.684 119.178 295.006C118.86 294.328 118.701 293.553 118.701 292.682C118.701 291.795 118.864 291.013 119.19 290.335C119.519 289.653 119.978 289.121 120.565 288.739C121.156 288.352 121.845 288.159 122.633 288.159C123.246 288.159 123.799 288.273 124.292 288.5C124.784 288.727 125.188 289.045 125.502 289.455C125.817 289.864 126.012 290.341 126.087 290.886H124.746C124.644 290.489 124.417 290.136 124.065 289.83C123.716 289.519 123.246 289.364 122.656 289.364C122.133 289.364 121.674 289.5 121.281 289.773C120.89 290.042 120.585 290.422 120.366 290.915C120.15 291.403 120.042 291.977 120.042 292.636C120.042 293.311 120.148 293.898 120.36 294.398C120.576 294.898 120.879 295.286 121.269 295.562C121.663 295.839 122.125 295.977 122.656 295.977C123.004 295.977 123.32 295.917 123.604 295.795C123.888 295.674 124.129 295.5 124.326 295.273C124.523 295.045 124.663 294.773 124.746 294.455H126.087C126.012 294.97 125.824 295.434 125.525 295.847C125.229 296.256 124.837 296.581 124.349 296.824C123.864 297.062 123.299 297.182 122.656 297.182ZM131.707 297.182C130.866 297.182 130.14 296.996 129.531 296.625C128.924 296.25 128.457 295.727 128.127 295.057C127.801 294.383 127.638 293.598 127.638 292.705C127.638 291.811 127.801 291.023 128.127 290.341C128.457 289.655 128.915 289.121 129.502 288.739C130.093 288.352 130.782 288.159 131.57 288.159C132.025 288.159 132.474 288.235 132.917 288.386C133.36 288.538 133.763 288.784 134.127 289.125C134.491 289.462 134.781 289.909 134.996 290.466C135.212 291.023 135.32 291.708 135.32 292.523V293.091H128.593V291.932H133.957C133.957 291.439 133.858 291 133.661 290.614C133.468 290.227 133.192 289.922 132.832 289.699C132.476 289.475 132.055 289.364 131.57 289.364C131.036 289.364 130.574 289.496 130.184 289.761C129.798 290.023 129.5 290.364 129.292 290.784C129.084 291.205 128.979 291.655 128.979 292.136V292.909C128.979 293.568 129.093 294.127 129.32 294.585C129.551 295.04 129.871 295.386 130.281 295.625C130.69 295.86 131.165 295.977 131.707 295.977C132.059 295.977 132.377 295.928 132.661 295.83C132.949 295.727 133.197 295.576 133.406 295.375C133.614 295.17 133.775 294.917 133.888 294.614L135.184 294.977C135.048 295.417 134.818 295.803 134.496 296.136C134.174 296.466 133.777 296.723 133.303 296.909C132.83 297.091 132.298 297.182 131.707 297.182ZM138.701 291.75V297H137.36V288.273H138.656V289.636H138.769C138.974 289.193 139.284 288.837 139.701 288.568C140.118 288.295 140.656 288.159 141.315 288.159C141.906 288.159 142.423 288.28 142.866 288.523C143.309 288.761 143.654 289.125 143.9 289.614C144.146 290.098 144.269 290.712 144.269 291.455V297H142.928V291.545C142.928 290.86 142.75 290.326 142.394 289.943C142.038 289.557 141.549 289.364 140.928 289.364C140.5 289.364 140.118 289.456 139.781 289.642C139.447 289.828 139.184 290.098 138.991 290.455C138.798 290.811 138.701 291.242 138.701 291.75ZM150.515 288.273V289.409H145.992V288.273H150.515ZM147.31 286.182H148.651V294.5C148.651 294.879 148.706 295.163 148.816 295.352C148.93 295.538 149.074 295.663 149.248 295.727C149.426 295.788 149.613 295.818 149.81 295.818C149.958 295.818 150.079 295.811 150.174 295.795C150.269 295.777 150.344 295.761 150.401 295.75L150.674 296.955C150.583 296.989 150.456 297.023 150.293 297.057C150.13 297.095 149.924 297.114 149.674 297.114C149.295 297.114 148.924 297.032 148.56 296.869C148.201 296.706 147.901 296.458 147.663 296.125C147.428 295.792 147.31 295.371 147.31 294.864V286.182ZM156.097 297.182C155.256 297.182 154.531 296.996 153.921 296.625C153.315 296.25 152.847 295.727 152.518 295.057C152.192 294.383 152.029 293.598 152.029 292.705C152.029 291.811 152.192 291.023 152.518 290.341C152.847 289.655 153.306 289.121 153.893 288.739C154.484 288.352 155.173 288.159 155.961 288.159C156.415 288.159 156.864 288.235 157.308 288.386C157.751 288.538 158.154 288.784 158.518 289.125C158.881 289.462 159.171 289.909 159.387 290.466C159.603 291.023 159.711 291.708 159.711 292.523V293.091H152.984V291.932H158.347C158.347 291.439 158.249 291 158.052 290.614C157.859 290.227 157.582 289.922 157.222 289.699C156.866 289.475 156.446 289.364 155.961 289.364C155.427 289.364 154.965 289.496 154.575 289.761C154.188 290.023 153.891 290.364 153.683 290.784C153.474 291.205 153.37 291.655 153.37 292.136V292.909C153.37 293.568 153.484 294.127 153.711 294.585C153.942 295.04 154.262 295.386 154.671 295.625C155.08 295.86 155.556 295.977 156.097 295.977C156.45 295.977 156.768 295.928 157.052 295.83C157.34 295.727 157.588 295.576 157.796 295.375C158.004 295.17 158.165 294.917 158.279 294.614L159.575 294.977C159.438 295.417 159.209 295.803 158.887 296.136C158.565 296.466 158.167 296.723 157.694 296.909C157.22 297.091 156.688 297.182 156.097 297.182ZM161.751 297V288.273H163.046V289.591H163.137C163.296 289.159 163.584 288.809 164.001 288.54C164.417 288.271 164.887 288.136 165.41 288.136C165.508 288.136 165.631 288.138 165.779 288.142C165.927 288.146 166.039 288.152 166.114 288.159V289.523C166.069 289.511 165.965 289.494 165.802 289.472C165.643 289.445 165.474 289.432 165.296 289.432C164.872 289.432 164.493 289.521 164.16 289.699C163.83 289.873 163.569 290.116 163.376 290.426C163.186 290.733 163.092 291.083 163.092 291.477V297H161.751ZM176.09 288.273V289.409H171.386V288.273H176.09ZM172.795 297V287.068C172.795 286.568 172.912 286.152 173.147 285.818C173.382 285.485 173.687 285.235 174.062 285.068C174.437 284.902 174.833 284.818 175.249 284.818C175.579 284.818 175.848 284.845 176.056 284.898C176.264 284.951 176.42 285 176.522 285.045L176.136 286.205C176.067 286.182 175.973 286.153 175.852 286.119C175.734 286.085 175.579 286.068 175.386 286.068C174.942 286.068 174.622 286.18 174.425 286.403C174.232 286.627 174.136 286.955 174.136 287.386V297H172.795ZM181.156 297.182C180.368 297.182 179.676 296.994 179.082 296.619C178.491 296.244 178.029 295.72 177.695 295.045C177.366 294.371 177.201 293.583 177.201 292.682C177.201 291.773 177.366 290.979 177.695 290.301C178.029 289.623 178.491 289.097 179.082 288.722C179.676 288.347 180.368 288.159 181.156 288.159C181.943 288.159 182.633 288.347 183.224 288.722C183.818 289.097 184.281 289.623 184.61 290.301C184.943 290.979 185.11 291.773 185.11 292.682C185.11 293.583 184.943 294.371 184.61 295.045C184.281 295.72 183.818 296.244 183.224 296.619C182.633 296.994 181.943 297.182 181.156 297.182ZM181.156 295.977C181.754 295.977 182.246 295.824 182.633 295.517C183.019 295.21 183.305 294.807 183.491 294.307C183.676 293.807 183.769 293.265 183.769 292.682C183.769 292.098 183.676 291.555 183.491 291.051C183.305 290.547 183.019 290.14 182.633 289.83C182.246 289.519 181.754 289.364 181.156 289.364C180.557 289.364 180.065 289.519 179.678 289.83C179.292 290.14 179.006 290.547 178.82 291.051C178.635 291.555 178.542 292.098 178.542 292.682C178.542 293.265 178.635 293.807 178.82 294.307C179.006 294.807 179.292 295.21 179.678 295.517C180.065 295.824 180.557 295.977 181.156 295.977ZM187.157 297V288.273H188.452V289.591H188.543C188.702 289.159 188.99 288.809 189.407 288.54C189.824 288.271 190.293 288.136 190.816 288.136C190.915 288.136 191.038 288.138 191.185 288.142C191.333 288.146 191.445 288.152 191.521 288.159V289.523C191.475 289.511 191.371 289.494 191.208 289.472C191.049 289.445 190.88 289.432 190.702 289.432C190.278 289.432 189.899 289.521 189.566 289.699C189.237 289.873 188.975 290.116 188.782 290.426C188.593 290.733 188.498 291.083 188.498 291.477V297H187.157ZM197.61 300.273V288.273H198.906V289.659H199.065C199.163 289.508 199.299 289.314 199.474 289.08C199.652 288.841 199.906 288.629 200.235 288.443C200.568 288.254 201.019 288.159 201.587 288.159C202.322 288.159 202.97 288.343 203.531 288.71C204.091 289.078 204.529 289.598 204.843 290.273C205.157 290.947 205.315 291.742 205.315 292.659C205.315 293.583 205.157 294.384 204.843 295.062C204.529 295.737 204.093 296.259 203.536 296.631C202.979 296.998 202.337 297.182 201.61 297.182C201.049 297.182 200.601 297.089 200.263 296.903C199.926 296.714 199.667 296.5 199.485 296.261C199.303 296.019 199.163 295.818 199.065 295.659H198.951V300.273H197.61ZM198.928 292.636C198.928 293.295 199.025 293.877 199.218 294.381C199.411 294.881 199.693 295.273 200.065 295.557C200.436 295.837 200.89 295.977 201.428 295.977C201.989 295.977 202.457 295.83 202.832 295.534C203.21 295.235 203.495 294.833 203.684 294.33C203.877 293.822 203.974 293.258 203.974 292.636C203.974 292.023 203.879 291.47 203.69 290.977C203.504 290.481 203.222 290.089 202.843 289.801C202.468 289.509 201.996 289.364 201.428 289.364C200.883 289.364 200.424 289.502 200.053 289.778C199.682 290.051 199.402 290.434 199.212 290.926C199.023 291.415 198.928 291.985 198.928 292.636ZM207.36 297V288.273H208.656V289.591H208.746C208.906 289.159 209.193 288.809 209.61 288.54C210.027 288.271 210.496 288.136 211.019 288.136C211.118 288.136 211.241 288.138 211.388 288.142C211.536 288.146 211.648 288.152 211.724 288.159V289.523C211.678 289.511 211.574 289.494 211.411 289.472C211.252 289.445 211.084 289.432 210.906 289.432C210.481 289.432 210.103 289.521 209.769 289.699C209.44 289.873 209.178 290.116 208.985 290.426C208.796 290.733 208.701 291.083 208.701 291.477V297H207.36ZM216.707 297.182C215.866 297.182 215.14 296.996 214.531 296.625C213.924 296.25 213.457 295.727 213.127 295.057C212.801 294.383 212.638 293.598 212.638 292.705C212.638 291.811 212.801 291.023 213.127 290.341C213.457 289.655 213.915 289.121 214.502 288.739C215.093 288.352 215.782 288.159 216.57 288.159C217.025 288.159 217.474 288.235 217.917 288.386C218.36 288.538 218.763 288.784 219.127 289.125C219.491 289.462 219.781 289.909 219.996 290.466C220.212 291.023 220.32 291.708 220.32 292.523V293.091H213.593V291.932H218.957C218.957 291.439 218.858 291 218.661 290.614C218.468 290.227 218.192 289.922 217.832 289.699C217.476 289.475 217.055 289.364 216.57 289.364C216.036 289.364 215.574 289.496 215.184 289.761C214.798 290.023 214.5 290.364 214.292 290.784C214.084 291.205 213.979 291.655 213.979 292.136V292.909C213.979 293.568 214.093 294.127 214.32 294.585C214.551 295.04 214.871 295.386 215.281 295.625C215.69 295.86 216.165 295.977 216.707 295.977C217.059 295.977 217.377 295.928 217.661 295.83C217.949 295.727 218.197 295.576 218.406 295.375C218.614 295.17 218.775 294.917 218.888 294.614L220.184 294.977C220.048 295.417 219.818 295.803 219.496 296.136C219.174 296.466 218.777 296.723 218.303 296.909C217.83 297.091 217.298 297.182 216.707 297.182ZM225.906 297.182C225.087 297.182 224.383 296.989 223.792 296.602C223.201 296.216 222.746 295.684 222.428 295.006C222.11 294.328 221.951 293.553 221.951 292.682C221.951 291.795 222.114 291.013 222.44 290.335C222.769 289.653 223.228 289.121 223.815 288.739C224.406 288.352 225.095 288.159 225.883 288.159C226.496 288.159 227.049 288.273 227.542 288.5C228.034 288.727 228.438 289.045 228.752 289.455C229.067 289.864 229.262 290.341 229.337 290.886H227.996C227.894 290.489 227.667 290.136 227.315 289.83C226.966 289.519 226.496 289.364 225.906 289.364C225.383 289.364 224.924 289.5 224.531 289.773C224.14 290.042 223.835 290.422 223.616 290.915C223.4 291.403 223.292 291.977 223.292 292.636C223.292 293.311 223.398 293.898 223.61 294.398C223.826 294.898 224.129 295.286 224.519 295.562C224.913 295.839 225.375 295.977 225.906 295.977C226.254 295.977 226.57 295.917 226.854 295.795C227.138 295.674 227.379 295.5 227.576 295.273C227.773 295.045 227.913 294.773 227.996 294.455H229.337C229.262 294.97 229.074 295.434 228.775 295.847C228.479 296.256 228.087 296.581 227.599 296.824C227.114 297.062 226.549 297.182 225.906 297.182ZM231.298 297V288.273H232.638V297H231.298ZM231.979 286.818C231.718 286.818 231.493 286.729 231.303 286.551C231.118 286.373 231.025 286.159 231.025 285.909C231.025 285.659 231.118 285.445 231.303 285.267C231.493 285.089 231.718 285 231.979 285C232.241 285 232.464 285.089 232.65 285.267C232.839 285.445 232.934 285.659 232.934 285.909C232.934 286.159 232.839 286.373 232.65 286.551C232.464 286.729 232.241 286.818 231.979 286.818ZM241.276 290.227L240.072 290.568C239.996 290.367 239.884 290.172 239.737 289.983C239.593 289.79 239.396 289.631 239.146 289.506C238.896 289.381 238.576 289.318 238.185 289.318C237.651 289.318 237.206 289.441 236.85 289.688C236.498 289.93 236.322 290.239 236.322 290.614C236.322 290.947 236.443 291.21 236.685 291.403C236.928 291.597 237.307 291.758 237.822 291.886L239.117 292.205C239.897 292.394 240.479 292.684 240.862 293.074C241.244 293.46 241.435 293.958 241.435 294.568C241.435 295.068 241.291 295.515 241.004 295.909C240.719 296.303 240.322 296.614 239.81 296.841C239.299 297.068 238.704 297.182 238.026 297.182C237.136 297.182 236.399 296.989 235.816 296.602C235.233 296.216 234.863 295.652 234.708 294.909L235.981 294.591C236.102 295.061 236.331 295.413 236.668 295.648C237.009 295.883 237.454 296 238.004 296C238.629 296 239.125 295.867 239.492 295.602C239.863 295.333 240.049 295.011 240.049 294.636C240.049 294.333 239.943 294.08 239.731 293.875C239.519 293.667 239.193 293.511 238.754 293.409L237.299 293.068C236.5 292.879 235.913 292.585 235.538 292.188C235.166 291.786 234.981 291.284 234.981 290.682C234.981 290.189 235.119 289.754 235.396 289.375C235.676 288.996 236.057 288.699 236.538 288.483C237.022 288.267 237.572 288.159 238.185 288.159C239.049 288.159 239.727 288.348 240.219 288.727C240.716 289.106 241.068 289.606 241.276 290.227ZM243.454 297V288.273H244.795V297H243.454ZM244.136 286.818C243.874 286.818 243.649 286.729 243.46 286.551C243.274 286.373 243.181 286.159 243.181 285.909C243.181 285.659 243.274 285.445 243.46 285.267C243.649 285.089 243.874 285 244.136 285C244.397 285 244.621 285.089 244.806 285.267C244.996 285.445 245.09 285.659 245.09 285.909C245.09 286.159 244.996 286.373 244.806 286.551C244.621 286.729 244.397 286.818 244.136 286.818ZM250.796 297.182C250.008 297.182 249.317 296.994 248.722 296.619C248.131 296.244 247.669 295.72 247.336 295.045C247.006 294.371 246.842 293.583 246.842 292.682C246.842 291.773 247.006 290.979 247.336 290.301C247.669 289.623 248.131 289.097 248.722 288.722C249.317 288.347 250.008 288.159 250.796 288.159C251.584 288.159 252.273 288.347 252.864 288.722C253.459 289.097 253.921 289.623 254.251 290.301C254.584 290.979 254.751 291.773 254.751 292.682C254.751 293.583 254.584 294.371 254.251 295.045C253.921 295.72 253.459 296.244 252.864 296.619C252.273 296.994 251.584 297.182 250.796 297.182ZM250.796 295.977C251.395 295.977 251.887 295.824 252.273 295.517C252.66 295.21 252.946 294.807 253.131 294.307C253.317 293.807 253.41 293.265 253.41 292.682C253.41 292.098 253.317 291.555 253.131 291.051C252.946 290.547 252.66 290.14 252.273 289.83C251.887 289.519 251.395 289.364 250.796 289.364C250.198 289.364 249.705 289.519 249.319 289.83C248.933 290.14 248.647 290.547 248.461 291.051C248.275 291.555 248.183 292.098 248.183 292.682C248.183 293.265 248.275 293.807 248.461 294.307C248.647 294.807 248.933 295.21 249.319 295.517C249.705 295.824 250.198 295.977 250.796 295.977ZM258.138 291.75V297H256.798V288.273H258.093V289.636H258.207C258.411 289.193 258.722 288.837 259.138 288.568C259.555 288.295 260.093 288.159 260.752 288.159C261.343 288.159 261.86 288.28 262.303 288.523C262.746 288.761 263.091 289.125 263.337 289.614C263.584 290.098 263.707 290.712 263.707 291.455V297H262.366V291.545C262.366 290.86 262.188 290.326 261.832 289.943C261.476 289.557 260.987 289.364 260.366 289.364C259.938 289.364 259.555 289.456 259.218 289.642C258.885 289.828 258.621 290.098 258.428 290.455C258.235 290.811 258.138 291.242 258.138 291.75ZM84.897 317.205C84.344 317.205 83.8421 317.1 83.3913 316.892C82.9406 316.68 82.5826 316.375 82.3175 315.977C82.0523 315.576 81.9197 315.091 81.9197 314.523C81.9197 314.023 82.0182 313.617 82.2152 313.307C82.4122 312.992 82.6754 312.746 83.005 312.568C83.3345 312.39 83.6982 312.258 84.0959 312.17C84.4974 312.08 84.9008 312.008 85.3061 311.955C85.8364 311.886 86.2663 311.835 86.5959 311.801C86.9292 311.763 87.1716 311.701 87.3232 311.614C87.4785 311.527 87.5561 311.375 87.5561 311.159V311.114C87.5561 310.553 87.4027 310.117 87.0959 309.807C86.7929 309.496 86.3326 309.341 85.7152 309.341C85.075 309.341 84.5732 309.481 84.2095 309.761C83.8459 310.042 83.5902 310.341 83.4425 310.659L82.1697 310.205C82.397 309.674 82.7 309.261 83.0788 308.966C83.4614 308.667 83.8781 308.458 84.3288 308.341C84.7834 308.22 85.2304 308.159 85.6697 308.159C85.95 308.159 86.272 308.193 86.6357 308.261C87.0031 308.326 87.3572 308.46 87.6982 308.665C88.0429 308.869 88.3288 309.178 88.5561 309.591C88.7834 310.004 88.897 310.557 88.897 311.25V317H87.5561V315.818H87.4879C87.397 316.008 87.2455 316.21 87.0334 316.426C86.8213 316.642 86.5391 316.826 86.1868 316.977C85.8345 317.129 85.4046 317.205 84.897 317.205ZM85.1016 316C85.6319 316 86.0788 315.896 86.4425 315.688C86.8099 315.479 87.0864 315.21 87.272 314.881C87.4614 314.551 87.5561 314.205 87.5561 313.841V312.614C87.4993 312.682 87.3743 312.744 87.1811 312.801C86.9917 312.854 86.772 312.902 86.522 312.943C86.2758 312.981 86.0353 313.015 85.8004 313.045C85.5694 313.072 85.3819 313.095 85.2379 313.114C84.8894 313.159 84.5637 313.233 84.2607 313.335C83.9614 313.434 83.719 313.583 83.5334 313.784C83.3516 313.981 83.2607 314.25 83.2607 314.591C83.2607 315.057 83.433 315.409 83.7777 315.648C84.1262 315.883 84.5675 316 85.1016 316ZM92.6854 311.75V317H91.3445V308.273H92.6399V309.636H92.7536C92.9581 309.193 93.2687 308.837 93.6854 308.568C94.102 308.295 94.6399 308.159 95.299 308.159C95.8899 308.159 96.407 308.28 96.8501 308.523C97.2933 308.761 97.638 309.125 97.8842 309.614C98.1304 310.098 98.2536 310.712 98.2536 311.455V317H96.9126V311.545C96.9126 310.86 96.7346 310.326 96.3786 309.943C96.0225 309.557 95.5339 309.364 94.9126 309.364C94.4846 309.364 94.102 309.456 93.7649 309.642C93.4316 309.828 93.1683 310.098 92.9751 310.455C92.782 310.811 92.6854 311.242 92.6854 311.75ZM103.999 317.182C103.272 317.182 102.63 316.998 102.073 316.631C101.516 316.259 101.081 315.737 100.766 315.062C100.452 314.384 100.295 313.583 100.295 312.659C100.295 311.742 100.452 310.947 100.766 310.273C101.081 309.598 101.518 309.078 102.079 308.71C102.639 308.343 103.287 308.159 104.022 308.159C104.59 308.159 105.039 308.254 105.369 308.443C105.702 308.629 105.956 308.841 106.13 309.08C106.308 309.314 106.446 309.508 106.545 309.659H106.658V305.364H107.999V317H106.704V315.659H106.545C106.446 315.818 106.306 316.019 106.124 316.261C105.942 316.5 105.683 316.714 105.346 316.903C105.009 317.089 104.56 317.182 103.999 317.182ZM104.181 315.977C104.719 315.977 105.174 315.837 105.545 315.557C105.916 315.273 106.198 314.881 106.391 314.381C106.585 313.877 106.681 313.295 106.681 312.636C106.681 311.985 106.586 311.415 106.397 310.926C106.208 310.434 105.927 310.051 105.556 309.778C105.185 309.502 104.727 309.364 104.181 309.364C103.613 309.364 103.139 309.509 102.761 309.801C102.386 310.089 102.103 310.481 101.914 310.977C101.728 311.47 101.636 312.023 101.636 312.636C101.636 313.258 101.73 313.822 101.92 314.33C102.113 314.833 102.397 315.235 102.772 315.534C103.151 315.83 103.621 315.977 104.181 315.977ZM118.687 317.182C117.869 317.182 117.164 316.989 116.573 316.602C115.982 316.216 115.528 315.684 115.21 315.006C114.891 314.328 114.732 313.553 114.732 312.682C114.732 311.795 114.895 311.013 115.221 310.335C115.55 309.653 116.009 309.121 116.596 308.739C117.187 308.352 117.876 308.159 118.664 308.159C119.278 308.159 119.831 308.273 120.323 308.5C120.816 308.727 121.219 309.045 121.533 309.455C121.848 309.864 122.043 310.341 122.119 310.886H120.778C120.675 310.489 120.448 310.136 120.096 309.83C119.747 309.519 119.278 309.364 118.687 309.364C118.164 309.364 117.706 309.5 117.312 309.773C116.922 310.042 116.617 310.422 116.397 310.915C116.181 311.403 116.073 311.977 116.073 312.636C116.073 313.311 116.179 313.898 116.391 314.398C116.607 314.898 116.91 315.286 117.3 315.562C117.694 315.839 118.156 315.977 118.687 315.977C119.035 315.977 119.352 315.917 119.636 315.795C119.92 315.674 120.16 315.5 120.357 315.273C120.554 315.045 120.694 314.773 120.778 314.455H122.119C122.043 314.97 121.855 315.434 121.556 315.847C121.261 316.256 120.869 316.581 120.38 316.824C119.895 317.062 119.331 317.182 118.687 317.182ZM124.079 317V308.273H125.374V309.591H125.465C125.624 309.159 125.912 308.809 126.329 308.54C126.746 308.271 127.215 308.136 127.738 308.136C127.836 308.136 127.96 308.138 128.107 308.142C128.255 308.146 128.367 308.152 128.442 308.159V309.523C128.397 309.511 128.293 309.494 128.13 309.472C127.971 309.445 127.802 309.432 127.624 309.432C127.2 309.432 126.821 309.521 126.488 309.699C126.158 309.873 125.897 310.116 125.704 310.426C125.514 310.733 125.42 311.083 125.42 311.477V317H124.079ZM133.425 317.182C132.585 317.182 131.859 316.996 131.249 316.625C130.643 316.25 130.175 315.727 129.846 315.057C129.52 314.383 129.357 313.598 129.357 312.705C129.357 311.811 129.52 311.023 129.846 310.341C130.175 309.655 130.634 309.121 131.221 308.739C131.812 308.352 132.501 308.159 133.289 308.159C133.744 308.159 134.192 308.235 134.636 308.386C135.079 308.538 135.482 308.784 135.846 309.125C136.21 309.462 136.499 309.909 136.715 310.466C136.931 311.023 137.039 311.708 137.039 312.523V313.091H130.312V311.932H135.675C135.675 311.439 135.577 311 135.38 310.614C135.187 310.227 134.91 309.922 134.55 309.699C134.194 309.475 133.774 309.364 133.289 309.364C132.755 309.364 132.293 309.496 131.903 309.761C131.516 310.023 131.219 310.364 131.011 310.784C130.802 311.205 130.698 311.655 130.698 312.136V312.909C130.698 313.568 130.812 314.127 131.039 314.585C131.27 315.04 131.59 315.386 131.999 315.625C132.408 315.86 132.884 315.977 133.425 315.977C133.778 315.977 134.096 315.928 134.38 315.83C134.668 315.727 134.916 315.576 135.124 315.375C135.333 315.17 135.494 314.917 135.607 314.614L136.903 314.977C136.766 315.417 136.537 315.803 136.215 316.136C135.893 316.466 135.496 316.723 135.022 316.909C134.549 317.091 134.016 317.182 133.425 317.182ZM141.647 317.205C141.094 317.205 140.592 317.1 140.141 316.892C139.691 316.68 139.333 316.375 139.067 315.977C138.802 315.576 138.67 315.091 138.67 314.523C138.67 314.023 138.768 313.617 138.965 313.307C139.162 312.992 139.425 312.746 139.755 312.568C140.085 312.39 140.448 312.258 140.846 312.17C141.247 312.08 141.651 312.008 142.056 311.955C142.586 311.886 143.016 311.835 143.346 311.801C143.679 311.763 143.922 311.701 144.073 311.614C144.228 311.527 144.306 311.375 144.306 311.159V311.114C144.306 310.553 144.153 310.117 143.846 309.807C143.543 309.496 143.083 309.341 142.465 309.341C141.825 309.341 141.323 309.481 140.96 309.761C140.596 310.042 140.34 310.341 140.192 310.659L138.92 310.205C139.147 309.674 139.45 309.261 139.829 308.966C140.211 308.667 140.628 308.458 141.079 308.341C141.533 308.22 141.98 308.159 142.42 308.159C142.7 308.159 143.022 308.193 143.386 308.261C143.753 308.326 144.107 308.46 144.448 308.665C144.793 308.869 145.079 309.178 145.306 309.591C145.533 310.004 145.647 310.557 145.647 311.25V317H144.306V315.818H144.238C144.147 316.008 143.996 316.21 143.783 316.426C143.571 316.642 143.289 316.826 142.937 316.977C142.585 317.129 142.155 317.205 141.647 317.205ZM141.852 316C142.382 316 142.829 315.896 143.192 315.688C143.56 315.479 143.836 315.21 144.022 314.881C144.211 314.551 144.306 314.205 144.306 313.841V312.614C144.249 312.682 144.124 312.744 143.931 312.801C143.742 312.854 143.522 312.902 143.272 312.943C143.026 312.981 142.785 313.015 142.55 313.045C142.319 313.072 142.132 313.095 141.988 313.114C141.639 313.159 141.314 313.233 141.011 313.335C140.711 313.434 140.469 313.583 140.283 313.784C140.102 313.981 140.011 314.25 140.011 314.591C140.011 315.057 140.183 315.409 140.528 315.648C140.876 315.883 141.317 316 141.852 316ZM151.89 308.273V309.409H147.367V308.273H151.89ZM148.685 306.182H150.026V314.5C150.026 314.879 150.081 315.163 150.191 315.352C150.305 315.538 150.449 315.663 150.623 315.727C150.801 315.788 150.988 315.818 151.185 315.818C151.333 315.818 151.454 315.811 151.549 315.795C151.644 315.777 151.719 315.761 151.776 315.75L152.049 316.955C151.958 316.989 151.831 317.023 151.668 317.057C151.505 317.095 151.299 317.114 151.049 317.114C150.67 317.114 150.299 317.032 149.935 316.869C149.576 316.706 149.276 316.458 149.038 316.125C148.803 315.792 148.685 315.371 148.685 314.864V306.182ZM153.907 317V308.273H155.248V317H153.907ZM154.589 306.818C154.327 306.818 154.102 306.729 153.913 306.551C153.727 306.373 153.634 306.159 153.634 305.909C153.634 305.659 153.727 305.445 153.913 305.267C154.102 305.089 154.327 305 154.589 305C154.85 305 155.074 305.089 155.259 305.267C155.449 305.445 155.543 305.659 155.543 305.909C155.543 306.159 155.449 306.373 155.259 306.551C155.074 306.729 154.85 306.818 154.589 306.818ZM164.84 308.273L161.613 317H160.249L157.022 308.273H158.477L160.886 315.227H160.977L163.386 308.273H164.84ZM166.61 317V308.273H167.951V317H166.61ZM167.292 306.818C167.031 306.818 166.805 306.729 166.616 306.551C166.43 306.373 166.337 306.159 166.337 305.909C166.337 305.659 166.43 305.445 166.616 305.267C166.805 305.089 167.031 305 167.292 305C167.553 305 167.777 305.089 167.962 305.267C168.152 305.445 168.246 305.659 168.246 305.909C168.246 306.159 168.152 306.373 167.962 306.551C167.777 306.729 167.553 306.818 167.292 306.818ZM174.202 308.273V309.409H169.68V308.273H174.202ZM170.998 306.182H172.339V314.5C172.339 314.879 172.394 315.163 172.504 315.352C172.617 315.538 172.761 315.663 172.935 315.727C173.113 315.788 173.301 315.818 173.498 315.818C173.646 315.818 173.767 315.811 173.862 315.795C173.956 315.777 174.032 315.761 174.089 315.75L174.362 316.955C174.271 316.989 174.144 317.023 173.981 317.057C173.818 317.095 173.612 317.114 173.362 317.114C172.983 317.114 172.612 317.032 172.248 316.869C171.888 316.706 171.589 316.458 171.35 316.125C171.115 315.792 170.998 315.371 170.998 314.864V306.182ZM177.083 320.273C176.856 320.273 176.653 320.254 176.475 320.216C176.297 320.182 176.174 320.148 176.106 320.114L176.447 318.932C176.772 319.015 177.06 319.045 177.31 319.023C177.56 319 177.782 318.888 177.975 318.688C178.172 318.491 178.352 318.17 178.515 317.727L178.765 317.045L175.538 308.273H176.992L179.401 315.227H179.492L181.901 308.273H183.356L179.651 318.273C179.485 318.723 179.278 319.097 179.032 319.392C178.786 319.691 178.5 319.913 178.174 320.057C177.852 320.201 177.488 320.273 177.083 320.273Z" fill="#667085"/>
<circle cx="33" cy="31" r="28" fill="#C8951A" stroke="white" stroke-width="6"/>
<path d="M40 22C39.2044 22 38.4413 22.3161 37.8787 22.8787C37.3161 23.4413 37 24.2044 37 25V37C37 37.7956 37.3161 38.5587 37.8787 39.1213C38.4413 39.6839 39.2044 40 40 40C40.7956 40 41.5587 39.6839 42.1213 39.1213C42.6839 38.5587 43 37.7956 43 37C43 36.2044 42.6839 35.4413 42.1213 34.8787C41.5587 34.3161 40.7956 34 40 34H28C27.2044 34 26.4413 34.3161 25.8787 34.8787C25.3161 35.4413 25 36.2044 25 37C25 37.7956 25.3161 38.5587 25.8787 39.1213C26.4413 39.6839 27.2044 40 28 40C28.7956 40 29.5587 39.6839 30.1213 39.1213C30.6839 38.5587 31 37.7956 31 37V25C31 24.2044 30.6839 23.4413 30.1213 22.8787C29.5587 22.3161 28.7956 22 28 22C27.2044 22 26.4413 22.3161 25.8787 22.8787C25.3161 23.4413 25 24.2044 25 25C25 25.7956 25.3161 26.5587 25.8787 27.1213C26.4413 27.6839 27.2044 28 28 28H40C40.7956 28 41.5587 27.6839 42.1213 27.1213C42.6839 26.5587 43 25.7956 43 25C43 24.2044 42.6839 23.4413 42.1213 22.8787C41.5587 22.3161 40.7956 22 40 22Z" stroke="white" stroke-width="2" stroke-linecap="round" stroke-linejoin="round"/>
<defs>
<clipPath id="clip0_2846_25756">
<rect x="33" y="31" width="200" height="200" rx="16" fill="white"/>
</clipPath>
</defs>
</svg>
