<svg width="242" height="315" viewBox="0 0 242 315" fill="none" xmlns="http://www.w3.org/2000/svg">
<g clip-path="url(#clip0_2765_37935)">
<rect x="30" y="31" width="200" height="200" rx="16" fill="#F3F5F7"/>
<g clip-path="url(#clip1_2765_37935)">
<path d="M270 -231H30V493H270V-231Z" fill="#F5F5F5"/>
<path d="M78.3172 64.4617H47.4261C45.6763 64.4617 44.2578 65.8803 44.2578 67.6302V95.3544C44.2578 97.1044 45.6763 98.5229 47.4261 98.5229H78.3172C80.067 98.5229 81.4855 97.1044 81.4855 95.3544V67.6302C81.4855 65.8803 80.067 64.4617 78.3172 64.4617Z" fill="white"/>
<path d="M71.9787 72.3829H52.9688V91.3939H71.9787V72.3829Z" fill="black" fill-opacity="0.6"/>
<path d="M78.3172 108.821H47.4261C45.6763 108.821 44.2578 110.239 44.2578 111.989V139.713C44.2578 141.463 45.6763 142.882 47.4261 142.882H78.3172C80.067 142.882 81.4855 141.463 81.4855 139.713V111.989C81.4855 110.239 80.067 108.821 78.3172 108.821Z" fill="white"/>
<path d="M71.9787 116.742H52.9688V135.753H71.9787V116.742Z" fill="black" fill-opacity="0.6"/>
<path d="M78.3172 153.179H47.4261C45.6763 153.179 44.2578 154.598 44.2578 156.348V184.072C44.2578 185.822 45.6763 187.241 47.4261 187.241H78.3172C80.067 187.241 81.4855 185.822 81.4855 184.072V156.348C81.4855 154.598 80.067 153.179 78.3172 153.179Z" fill="white"/>
<mask id="mask0_2765_37935" style="mask-type:luminance" maskUnits="userSpaceOnUse" x="49" y="164" width="26" height="13">
<path d="M74.3591 164.269H49.8047V176.943H74.3591V164.269Z" fill="white"/>
</mask>
<g mask="url(#mask0_2765_37935)">
<path fill-rule="evenodd" clip-rule="evenodd" d="M49.8047 167.43H68.1657V164.269L74.2883 170.59L68.1657 176.91V173.75H49.8047V167.43Z" fill="#666666"/>
</g>
<path d="M78.3172 197.538H47.4261C45.6763 197.538 44.2578 198.957 44.2578 200.707V228.431C44.2578 230.181 45.6763 231.6 47.4261 231.6H78.3172C80.067 231.6 81.4855 230.181 81.4855 228.431V200.707C81.4855 198.957 80.067 197.538 78.3172 197.538Z" fill="white"/>
<mask id="mask1_2765_37935" style="mask-type:luminance" maskUnits="userSpaceOnUse" x="49" y="201" width="27" height="27">
<path d="M75.9433 201.499H49.8047V227.639H75.9433V201.499Z" fill="white"/>
</mask>
<g mask="url(#mask1_2765_37935)">
<path d="M62.8472 227.203L51.5234 221.541V207.604L62.8472 213.266V227.203Z" fill="#666666"/>
<path d="M62.8516 227.203L74.1754 221.541V207.604L62.8516 213.266V227.203Z" fill="#ADADAD"/>
<path d="M51.5234 207.604L62.4117 201.942L74.171 207.604L62.8472 213.266L51.5234 207.604Z" fill="#666666"/>
<path d="M62.8531 227.639C62.766 227.639 62.7224 227.639 62.6789 227.595L51.3551 221.933C51.1809 221.846 51.0938 221.715 51.0938 221.541V207.604C51.0938 207.473 51.1809 207.299 51.3116 207.212C51.4422 207.124 51.6164 207.124 51.7471 207.212L63.0709 212.874C63.2016 212.961 63.3322 213.092 63.3322 213.266V227.203C63.3322 227.334 63.245 227.508 63.1144 227.595C63.0274 227.595 62.9402 227.639 62.8531 227.639ZM51.9648 221.28L62.4176 226.507V213.527L51.9648 208.301V221.28Z" fill="black"/>
<path d="M62.8574 227.639C62.7703 227.639 62.6833 227.639 62.6396 227.595C62.509 227.508 62.4219 227.334 62.4219 227.203V213.266C62.4219 213.092 62.509 212.961 62.6832 212.874L74.007 207.212C74.1377 207.125 74.3119 207.168 74.4425 207.212C74.5732 207.299 74.6603 207.43 74.6603 207.604V221.541C74.6603 221.715 74.5732 221.846 74.399 221.933L63.0752 227.595C62.9881 227.639 62.9446 227.639 62.8574 227.639ZM63.293 213.527V226.507L73.7458 221.28V208.301L63.293 213.527Z" fill="black"/>
<path d="M62.8531 213.702C62.766 213.702 62.7224 213.701 62.6789 213.658L51.3551 207.995C51.1809 207.908 51.0938 207.777 51.0938 207.604C51.0938 207.429 51.1809 207.299 51.3116 207.212L62.1998 201.549C62.3304 201.506 62.4611 201.462 62.5918 201.549L74.3511 207.212C74.4818 207.299 74.6124 207.429 74.6124 207.604C74.6124 207.777 74.5254 207.908 74.3511 207.995L63.0274 213.658C62.9837 213.701 62.9402 213.702 62.8531 213.702ZM52.4875 207.604L62.8531 212.787L73.1752 207.604L62.4176 202.42L52.4875 207.604Z" fill="black"/>
</g>
<path d="M134.552 64.4617H103.661C101.911 64.4617 100.492 65.8803 100.492 67.6302V95.3544C100.492 97.1044 101.911 98.5229 103.661 98.5229H134.552C136.301 98.5229 137.72 97.1044 137.72 95.3544V67.6302C137.72 65.8803 136.301 64.4617 134.552 64.4617Z" fill="white"/>
<path d="M128.221 81.0963C128.221 75.8466 123.965 71.5908 118.716 71.5908C113.466 71.5908 109.211 75.8466 109.211 81.0963C109.211 86.346 113.466 90.6018 118.716 90.6018C123.965 90.6018 128.221 86.346 128.221 81.0963Z" fill="black" fill-opacity="0.6"/>
<path d="M134.552 108.821H103.661C101.911 108.821 100.492 110.239 100.492 111.989V139.713C100.492 141.463 101.911 142.882 103.661 142.882H134.552C136.301 142.882 137.72 141.463 137.72 139.713V111.989C137.72 110.239 136.301 108.821 134.552 108.821Z" fill="white"/>
<path d="M110.91 123.344C108.151 123.792 106.039 126.192 106.039 129.075C106.039 132.277 108.644 134.881 111.845 134.881H119.108V116.822C115.152 116.822 111.774 119.568 110.91 123.344Z" fill="#ADADAD"/>
<path d="M127.308 123.343C126.444 119.568 123.066 116.821 119.109 116.821V134.881H126.373C129.574 134.881 132.179 132.277 132.179 129.075C132.179 126.192 130.066 123.793 127.308 123.343Z" fill="#666666"/>
<path d="M134.552 153.179H103.661C101.911 153.179 100.492 154.598 100.492 156.348V184.072C100.492 185.822 101.911 187.241 103.661 187.241H134.552C136.301 187.241 137.72 185.822 137.72 184.072V156.348C137.72 154.598 136.301 153.179 134.552 153.179Z" fill="white"/>
<mask id="mask2_2765_37935" style="mask-type:luminance" maskUnits="userSpaceOnUse" x="106" y="158" width="27" height="23">
<path d="M132.175 158.724H106.828V180.904H132.175V158.724Z" fill="white"/>
</mask>
<g mask="url(#mask2_2765_37935)">
<path d="M113.195 180.745L106.891 169.814L113.195 158.883H125.805L132.11 169.814L125.805 180.745H113.195Z" fill="#666666"/>
</g>
<path d="M134.552 197.538H103.661C101.911 197.538 100.492 198.957 100.492 200.707V228.431C100.492 230.181 101.911 231.6 103.661 231.6H134.552C136.301 231.6 137.72 230.181 137.72 228.431V200.707C137.72 198.957 136.301 197.538 134.552 197.538Z" fill="white"/>
<mask id="mask3_2765_37935" style="mask-type:luminance" maskUnits="userSpaceOnUse" x="107" y="203" width="24" height="24">
<path d="M130.595 203.083H107.625V226.055H130.595V203.083Z" fill="white"/>
</mask>
<g mask="url(#mask3_2765_37935)">
<path d="M119.11 206.529C113.176 206.529 108.391 205.84 108.391 204.998V224.14C108.391 224.983 113.176 225.672 119.11 225.672C125.044 225.672 129.829 224.983 129.829 224.14V204.998C129.829 205.84 125.044 206.529 119.11 206.529Z" fill="#666666"/>
<path d="M129.829 204.998C129.829 205.84 125.044 206.529 119.11 206.529C113.176 206.529 108.391 205.84 108.391 204.998C108.391 204.155 113.176 203.466 119.11 203.466C125.044 203.466 129.829 204.155 129.829 204.998Z" fill="#ADADAD"/>
<path d="M129.829 224.14C129.829 224.983 125.044 225.672 119.11 225.672C113.176 225.672 108.391 224.983 108.391 224.14C108.391 223.298 113.176 222.609 119.11 222.609C125.044 222.609 129.829 223.298 129.829 224.14Z" fill="#ADADAD"/>
<path d="M119.11 206.911C116.239 206.911 113.52 206.759 111.492 206.452C108.429 206.031 108.008 205.457 108.008 204.998C108.008 204.538 108.429 203.964 111.492 203.543C113.52 203.236 116.239 203.083 119.11 203.083C121.981 203.083 124.7 203.236 126.728 203.543C129.791 203.964 130.213 204.538 130.213 204.998C130.213 205.457 129.791 206.031 126.728 206.452C124.7 206.759 121.981 206.911 119.11 206.911ZM108.812 204.998C109.425 205.495 113.253 206.146 119.11 206.146C124.967 206.146 128.796 205.495 129.409 204.998C128.796 204.499 124.967 203.849 119.11 203.849C113.253 203.849 109.425 204.499 108.812 204.998Z" fill="black"/>
<path d="M108.391 224.523C108.161 224.523 108.008 224.37 108.008 224.14C108.008 223.643 108.582 223.375 108.774 223.298C108.965 223.221 109.195 223.298 109.271 223.49C109.348 223.681 109.271 223.91 109.08 223.987C108.888 224.064 108.812 224.14 108.773 224.179C108.735 224.37 108.582 224.523 108.391 224.523ZM129.409 224.102C129.37 224.102 129.294 224.102 129.255 224.064C129.102 223.987 128.872 223.91 128.605 223.834C128.413 223.758 128.298 223.566 128.336 223.375C128.413 223.183 128.605 223.068 128.796 223.106C129.102 223.183 129.37 223.298 129.562 223.413C129.753 223.49 129.829 223.719 129.753 223.91C129.676 224.025 129.562 224.102 129.409 224.102ZM110.419 223.643C110.228 223.643 110.075 223.528 110.037 223.336C109.999 223.144 110.114 222.915 110.343 222.877C110.573 222.839 110.841 222.8 111.108 222.724C111.3 222.686 111.53 222.839 111.53 223.03C111.568 223.221 111.415 223.451 111.223 223.451C110.956 223.49 110.726 223.528 110.496 223.566C110.458 223.643 110.419 223.643 110.419 223.643ZM127.188 223.528C127.15 223.528 127.15 223.528 127.112 223.528C126.882 223.49 126.613 223.451 126.346 223.413C126.154 223.375 126.001 223.183 126.001 222.992C126.039 222.8 126.231 222.647 126.423 222.647C126.69 222.685 126.958 222.724 127.188 222.762C127.379 222.8 127.532 222.992 127.494 223.183C127.532 223.375 127.379 223.528 127.188 223.528ZM112.678 223.298C112.487 223.298 112.334 223.145 112.296 222.954C112.257 222.762 112.411 222.571 112.64 222.532C112.87 222.494 113.138 222.494 113.406 222.455C113.635 222.417 113.789 222.609 113.827 222.8C113.827 222.992 113.674 223.183 113.482 223.221C113.215 223.259 112.985 223.259 112.716 223.298H112.678ZM124.929 223.221C124.891 223.221 124.891 223.221 124.929 223.221C124.661 223.183 124.393 223.183 124.126 223.144C123.934 223.144 123.742 222.953 123.781 222.724C123.781 222.532 123.972 222.34 124.202 222.379C124.47 222.417 124.738 222.417 124.968 222.455C125.197 222.494 125.35 222.647 125.312 222.877C125.274 223.068 125.12 223.221 124.929 223.221ZM114.975 223.106C114.784 223.106 114.593 222.954 114.593 222.762C114.593 222.532 114.746 222.379 114.937 222.34C115.205 222.34 115.435 222.302 115.703 222.302C115.894 222.302 116.086 222.455 116.086 222.685C116.086 222.915 115.932 223.068 115.703 223.068C115.473 223.068 115.243 223.106 114.975 223.106ZM122.632 223.068C122.364 223.068 122.096 223.03 121.867 223.03C121.637 223.03 121.484 222.839 121.484 222.647C121.484 222.456 121.675 222.264 121.867 222.264C122.134 222.264 122.403 222.302 122.632 222.302C122.862 222.302 123.015 222.494 122.977 222.686C122.977 222.915 122.823 223.068 122.632 223.068ZM117.272 223.03C117.081 223.03 116.89 222.877 116.89 222.647C116.89 222.417 117.043 222.264 117.272 222.264C117.54 222.264 117.77 222.264 118.038 222.264C118.229 222.264 118.421 222.417 118.421 222.647C118.421 222.877 118.268 223.03 118.038 223.03C117.77 222.992 117.54 222.992 117.272 223.03ZM120.335 222.992C120.067 222.992 119.837 222.992 119.569 222.992C119.34 222.992 119.187 222.8 119.187 222.609C119.187 222.417 119.378 222.226 119.569 222.226C119.837 222.226 120.067 222.226 120.335 222.226C120.565 222.226 120.718 222.417 120.718 222.609C120.718 222.839 120.526 222.992 120.335 222.992Z" fill="black"/>
<path d="M129.829 224.524C129.6 224.524 129.447 224.371 129.447 224.141V205.84C128.949 206.069 128.107 206.261 126.728 206.453C124.7 206.759 121.981 206.912 119.11 206.912C116.239 206.912 113.52 206.759 111.492 206.453C110.114 206.261 109.271 206.031 108.773 205.84V224.141C108.773 224.371 108.62 224.524 108.391 224.524C108.161 224.524 108.008 224.371 108.008 224.141V204.998C108.008 204.768 108.161 204.615 108.391 204.615C108.582 204.615 108.735 204.768 108.773 204.96C109.195 205.457 113.061 206.146 119.11 206.146C125.159 206.146 129.025 205.457 129.447 204.96C129.485 204.768 129.638 204.615 129.829 204.615C130.059 204.615 130.213 204.768 130.213 204.998V224.141C130.213 224.371 130.059 224.524 129.829 224.524Z" fill="black"/>
<path d="M119.11 226.055C116.239 226.055 113.52 225.902 111.492 225.595C108.429 225.174 108.008 224.6 108.008 224.14C108.008 223.91 108.161 223.758 108.391 223.758C108.582 223.758 108.735 223.91 108.773 224.102C109.195 224.6 113.061 225.289 119.11 225.289C125.159 225.289 129.025 224.6 129.447 224.102C129.485 223.91 129.638 223.758 129.829 223.758C130.059 223.758 130.213 223.91 130.213 224.14C130.213 224.6 129.791 225.174 126.728 225.595C124.7 225.902 121.981 226.055 119.11 226.055Z" fill="black"/>
</g>
<path d="M189.997 64.4617H159.106C157.356 64.4617 155.938 65.8803 155.938 67.6302V95.3544C155.938 97.1044 157.356 98.5229 159.106 98.5229H189.997C191.747 98.5229 193.165 97.1044 193.165 95.3544V67.6302C193.165 65.8803 191.747 64.4617 189.997 64.4617Z" fill="white"/>
<path d="M172.968 89.8096C177.999 89.8096 182.077 85.731 182.077 80.7002C182.077 75.6695 177.999 71.5908 172.968 71.5908C167.938 71.5908 163.859 75.6695 163.859 80.7002C163.859 85.731 167.938 89.8096 172.968 89.8096Z" fill="black" fill-opacity="0.6" stroke="#ADADAD" stroke-width="4"/>
<path d="M189.997 108.821H159.106C157.356 108.821 155.938 110.239 155.938 111.989V139.713C155.938 141.463 157.356 142.882 159.106 142.882H189.997C191.747 142.882 193.165 141.463 193.165 139.713V111.989C193.165 110.239 191.747 108.821 189.997 108.821Z" fill="white"/>
<path d="M173.759 115.95L175.893 122.518H182.799L177.211 126.577L179.345 133.145L173.759 129.086L168.172 133.145L170.306 126.577L164.719 122.518H171.625L173.759 115.95Z" fill="black" fill-opacity="0.6"/>
<path d="M189.997 153.179H159.106C157.356 153.179 155.938 154.598 155.938 156.348V184.072C155.938 185.822 157.356 187.241 159.106 187.241H189.997C191.747 187.241 193.165 185.822 193.165 184.072V156.348C193.165 154.598 191.747 153.179 189.997 153.179Z" fill="white"/>
<mask id="mask4_2765_37935" style="mask-type:luminance" maskUnits="userSpaceOnUse" x="162" y="157" width="25" height="26">
<path d="M186.828 157.932H162.273V182.488H186.828V157.932Z" fill="white"/>
</mask>
<g mask="url(#mask4_2765_37935)">
<path d="M162.273 157.932L186.828 182.488H162.273V157.932Z" fill="#666666"/>
</g>
<path d="M189.997 197.538H159.106C157.356 197.538 155.938 198.957 155.938 200.707V228.431C155.938 230.181 157.356 231.6 159.106 231.6H189.997C191.747 231.6 193.165 230.181 193.165 228.431V200.707C193.165 198.957 191.747 197.538 189.997 197.538Z" fill="white"/>
<mask id="mask5_2765_37935" style="mask-type:luminance" maskUnits="userSpaceOnUse" x="163" y="202" width="24" height="25">
<path d="M186.833 202.291H163.07V226.055H186.833V202.291Z" fill="white"/>
</mask>
<g mask="url(#mask5_2765_37935)">
<path d="M172.003 213.43H163.07V214.916H172.003V213.43Z" fill="#666666"/>
<path d="M186.832 213.43H177.898V214.916H186.832V213.43Z" fill="#666666"/>
<path d="M175.697 217.121H174.211V226.055H175.697V217.121Z" fill="#666666"/>
<path d="M175.697 202.291H174.211V211.225H175.697V202.291Z" fill="#666666"/>
</g>
<path d="M245.442 64.4617H214.551C212.801 64.4617 211.383 65.8803 211.383 67.6302V95.3544C211.383 97.1044 212.801 98.5229 214.551 98.5229H245.442C247.192 98.5229 248.611 97.1044 248.611 95.3544V67.6302C248.611 65.8803 247.192 64.4617 245.442 64.4617Z" fill="white"/>
<path d="M229.997 71.2803L239.502 87.7445H220.492L229.997 71.2803Z" fill="black" fill-opacity="0.6"/>
<path d="M245.442 108.821H214.551C212.801 108.821 211.383 110.239 211.383 111.989V139.713C211.383 141.463 212.801 142.882 214.551 142.882H245.442C247.192 142.882 248.611 141.463 248.611 139.713V111.989C248.611 110.239 247.192 108.821 245.442 108.821Z" fill="white"/>
<path d="M227.358 113.573L223.291 125.625H227.81L223.141 138.129L235.493 123.365H231.124L236.848 113.573H227.358Z" fill="#666666"/>
<path d="M245.442 153.179H214.551C212.801 153.179 211.383 154.598 211.383 156.348V184.072C211.383 185.822 212.801 187.241 214.551 187.241H245.442C247.192 187.241 248.611 185.822 248.611 184.072V156.348C248.611 154.598 247.192 153.179 245.442 153.179Z" fill="white"/>
<mask id="mask6_2765_37935" style="mask-type:luminance" maskUnits="userSpaceOnUse" x="215" y="156" width="28" height="28">
<path d="M242.274 156.348H215.344V183.28H242.274V156.348Z" fill="white"/>
</mask>
<g mask="url(#mask6_2765_37935)">
<path d="M234.854 156.561C232.363 156.561 230.159 157.787 228.812 159.671V183.067L240.603 168.682C241.65 167.402 242.278 165.766 242.278 163.984C242.278 159.885 238.954 156.561 234.854 156.561Z" fill="#666666"/>
<path d="M222.767 156.561C218.667 156.561 215.344 159.885 215.344 163.984C215.344 165.766 215.972 167.402 217.019 168.682L228.809 183.067V159.671C227.463 157.787 225.258 156.561 222.767 156.561Z" fill="#ADADAD"/>
</g>
<path d="M245.442 197.538H214.551C212.801 197.538 211.383 198.957 211.383 200.707V228.431C211.383 230.181 212.801 231.6 214.551 231.6H245.442C247.192 231.6 248.611 230.181 248.611 228.431V200.707C248.611 198.957 247.192 197.538 245.442 197.538Z" fill="white"/>
<path d="M220.93 202.291V226.847L230.004 217.772L231.605 210.032L230.004 202.291H220.93Z" fill="#ADADAD"/>
</g>
</g>
<path d="M97.3273 273V259.909H105.842V261.897H99.6988V265.451H105.4V267.439H99.6988V271.012H105.893V273H97.3273ZM110.473 259.909V273H108.159V259.909H110.473ZM117.199 273.192C116.214 273.192 115.364 272.987 114.648 272.578C113.937 272.165 113.389 271.581 113.005 270.827C112.622 270.068 112.43 269.175 112.43 268.148C112.43 267.138 112.622 266.252 113.005 265.489C113.393 264.722 113.934 264.126 114.629 263.7C115.324 263.269 116.14 263.054 117.077 263.054C117.682 263.054 118.253 263.152 118.79 263.348C119.331 263.54 119.809 263.838 120.222 264.243C120.64 264.648 120.968 265.163 121.206 265.79C121.445 266.412 121.564 267.153 121.564 268.014V268.724H113.517V267.164H119.346C119.342 266.721 119.246 266.327 119.059 265.982C118.871 265.632 118.609 265.357 118.272 265.157C117.94 264.957 117.552 264.857 117.109 264.857C116.636 264.857 116.221 264.972 115.863 265.202C115.505 265.428 115.226 265.726 115.025 266.097C114.829 266.463 114.729 266.866 114.725 267.305V268.666C114.725 269.237 114.829 269.727 115.038 270.136C115.247 270.541 115.539 270.852 115.914 271.07C116.289 271.283 116.728 271.389 117.231 271.389C117.567 271.389 117.872 271.342 118.145 271.249C118.417 271.151 118.654 271.008 118.854 270.82C119.054 270.633 119.206 270.401 119.308 270.124L121.468 270.366C121.332 270.937 121.072 271.436 120.689 271.862C120.309 272.284 119.824 272.612 119.231 272.847C118.639 273.077 117.961 273.192 117.199 273.192ZM123.522 273V263.182H125.734V264.85H125.849C126.053 264.288 126.392 263.849 126.865 263.533C127.338 263.214 127.903 263.054 128.559 263.054C129.224 263.054 129.784 263.216 130.24 263.54C130.7 263.859 131.024 264.296 131.212 264.85H131.314C131.531 264.305 131.898 263.87 132.413 263.546C132.933 263.218 133.549 263.054 134.261 263.054C135.164 263.054 135.901 263.339 136.472 263.911C137.043 264.482 137.329 265.315 137.329 266.41V273H135.008V266.768C135.008 266.158 134.847 265.713 134.523 265.432C134.199 265.146 133.802 265.004 133.334 265.004C132.775 265.004 132.339 265.178 132.023 265.528C131.712 265.873 131.557 266.322 131.557 266.876V273H129.288V266.672C129.288 266.165 129.134 265.76 128.827 265.457C128.525 265.155 128.128 265.004 127.638 265.004C127.306 265.004 127.003 265.089 126.731 265.259C126.458 265.425 126.241 265.662 126.079 265.969C125.917 266.271 125.836 266.625 125.836 267.03V273H123.522ZM144.023 273.192C143.038 273.192 142.188 272.987 141.472 272.578C140.761 272.165 140.213 271.581 139.83 270.827C139.446 270.068 139.254 269.175 139.254 268.148C139.254 267.138 139.446 266.252 139.83 265.489C140.217 264.722 140.759 264.126 141.453 263.7C142.148 263.269 142.964 263.054 143.901 263.054C144.506 263.054 145.078 263.152 145.614 263.348C146.156 263.54 146.633 263.838 147.046 264.243C147.464 264.648 147.792 265.163 148.031 265.79C148.269 266.412 148.389 267.153 148.389 268.014V268.724H140.341V267.164H146.171C146.166 266.721 146.07 266.327 145.883 265.982C145.695 265.632 145.433 265.357 145.097 265.157C144.764 264.957 144.377 264.857 143.933 264.857C143.46 264.857 143.045 264.972 142.687 265.202C142.329 265.428 142.05 265.726 141.85 266.097C141.653 266.463 141.553 266.866 141.549 267.305V268.666C141.549 269.237 141.653 269.727 141.862 270.136C142.071 270.541 142.363 270.852 142.738 271.07C143.113 271.283 143.552 271.389 144.055 271.389C144.391 271.389 144.696 271.342 144.969 271.249C145.242 271.151 145.478 271.008 145.678 270.82C145.879 270.633 146.03 270.401 146.132 270.124L148.293 270.366C148.156 270.937 147.896 271.436 147.513 271.862C147.134 272.284 146.648 272.612 146.055 272.847C145.463 273.077 144.786 273.192 144.023 273.192ZM152.66 267.247V273H150.346V263.182H152.558V264.85H152.673C152.899 264.3 153.259 263.864 153.753 263.54C154.252 263.216 154.867 263.054 155.6 263.054C156.278 263.054 156.868 263.199 157.371 263.489C157.878 263.778 158.27 264.198 158.547 264.748C158.828 265.298 158.967 265.964 158.963 266.749V273H156.649V267.107C156.649 266.45 156.478 265.937 156.137 265.566C155.801 265.195 155.334 265.01 154.737 265.01C154.333 265.01 153.973 265.099 153.657 265.278C153.346 265.453 153.101 265.707 152.922 266.039C152.747 266.371 152.66 266.774 152.66 267.247ZM166.218 263.182V264.972H160.573V263.182H166.218ZM161.967 260.83H164.281V270.047C164.281 270.358 164.328 270.597 164.421 270.763C164.519 270.925 164.647 271.036 164.805 271.095C164.963 271.155 165.137 271.185 165.329 271.185C165.474 271.185 165.606 271.174 165.725 271.153C165.849 271.131 165.943 271.112 166.007 271.095L166.397 272.904C166.273 272.947 166.096 272.994 165.866 273.045C165.64 273.096 165.363 273.126 165.035 273.134C164.456 273.151 163.934 273.064 163.469 272.872C163.005 272.676 162.636 272.374 162.363 271.964C162.095 271.555 161.963 271.044 161.967 270.43V260.83Z" fill="#101828"/>
<path d="M55.1754 300H53.6982L57.9709 288.364H59.4254L63.6982 300H62.2209L58.7436 290.205H58.6527L55.1754 300ZM55.7209 295.455H61.6754V296.705H55.7209V295.455ZM68.8743 300.182C68.0561 300.182 67.3516 299.989 66.7607 299.602C66.1697 299.216 65.7152 298.684 65.397 298.006C65.0788 297.328 64.9197 296.553 64.9197 295.682C64.9197 294.795 65.0826 294.013 65.4084 293.335C65.7379 292.653 66.1963 292.121 66.7834 291.739C67.3743 291.352 68.0637 291.159 68.8516 291.159C69.4652 291.159 70.0182 291.273 70.5107 291.5C71.0031 291.727 71.4065 292.045 71.7209 292.455C72.0353 292.864 72.2304 293.341 72.3061 293.886H70.9652C70.8629 293.489 70.6357 293.136 70.2834 292.83C69.9349 292.519 69.4652 292.364 68.8743 292.364C68.3516 292.364 67.8932 292.5 67.4993 292.773C67.1091 293.042 66.8042 293.422 66.5845 293.915C66.3686 294.403 66.2607 294.977 66.2607 295.636C66.2607 296.311 66.3667 296.898 66.5788 297.398C66.7947 297.898 67.0978 298.286 67.4879 298.562C67.8819 298.839 68.344 298.977 68.8743 298.977C69.2228 298.977 69.5391 298.917 69.8232 298.795C70.1072 298.674 70.3478 298.5 70.5447 298.273C70.7417 298.045 70.8819 297.773 70.9652 297.455H72.3061C72.2304 297.97 72.0429 298.434 71.7436 298.847C71.4482 299.256 71.0561 299.581 70.5675 299.824C70.0826 300.062 69.5182 300.182 68.8743 300.182ZM77.8118 300.182C76.9936 300.182 76.2891 299.989 75.6982 299.602C75.1072 299.216 74.6527 298.684 74.3345 298.006C74.0163 297.328 73.8572 296.553 73.8572 295.682C73.8572 294.795 74.0201 294.013 74.3459 293.335C74.6754 292.653 75.1338 292.121 75.7209 291.739C76.3118 291.352 77.0012 291.159 77.7891 291.159C78.4027 291.159 78.9557 291.273 79.4482 291.5C79.9406 291.727 80.344 292.045 80.6584 292.455C80.9728 292.864 81.1679 293.341 81.2436 293.886H79.9027C79.8004 293.489 79.5732 293.136 79.2209 292.83C78.8724 292.519 78.4027 292.364 77.8118 292.364C77.2891 292.364 76.8307 292.5 76.4368 292.773C76.0466 293.042 75.7417 293.422 75.522 293.915C75.3061 294.403 75.1982 294.977 75.1982 295.636C75.1982 296.311 75.3042 296.898 75.5163 297.398C75.7322 297.898 76.0353 298.286 76.4254 298.562C76.8194 298.839 77.2815 298.977 77.8118 298.977C78.1603 298.977 78.4766 298.917 78.7607 298.795C79.0447 298.674 79.2853 298.5 79.4822 298.273C79.6792 298.045 79.8194 297.773 79.9027 297.455H81.2436C81.1679 297.97 80.9804 298.434 80.6811 298.847C80.3857 299.256 79.9936 299.581 79.505 299.824C79.0201 300.062 78.4557 300.182 77.8118 300.182ZM86.8629 300.182C86.022 300.182 85.2966 299.996 84.6868 299.625C84.0807 299.25 83.6129 298.727 83.2834 298.057C82.9576 297.383 82.7947 296.598 82.7947 295.705C82.7947 294.811 82.9576 294.023 83.2834 293.341C83.6129 292.655 84.0713 292.121 84.6584 291.739C85.2493 291.352 85.9387 291.159 86.7266 291.159C87.1811 291.159 87.63 291.235 88.0732 291.386C88.5163 291.538 88.9197 291.784 89.2834 292.125C89.647 292.462 89.9368 292.909 90.1527 293.466C90.3686 294.023 90.4766 294.708 90.4766 295.523V296.091H83.7493V294.932H89.1129C89.1129 294.439 89.0144 294 88.8175 293.614C88.6243 293.227 88.3478 292.922 87.9879 292.699C87.6319 292.475 87.2114 292.364 86.7266 292.364C86.1925 292.364 85.7304 292.496 85.3402 292.761C84.9538 293.023 84.6565 293.364 84.4482 293.784C84.2398 294.205 84.1357 294.655 84.1357 295.136V295.909C84.1357 296.568 84.2493 297.127 84.4766 297.585C84.7076 298.04 85.0277 298.386 85.4368 298.625C85.8459 298.86 86.3213 298.977 86.8629 298.977C87.2152 298.977 87.5334 298.928 87.8175 298.83C88.1054 298.727 88.3535 298.576 88.5618 298.375C88.7701 298.17 88.9311 297.917 89.0447 297.614L90.3402 297.977C90.2038 298.417 89.9747 298.803 89.6527 299.136C89.3307 299.466 88.933 299.723 88.4595 299.909C87.986 300.091 87.4538 300.182 86.8629 300.182ZM98.6982 293.227L97.4936 293.568C97.4179 293.367 97.3061 293.172 97.1584 292.983C97.0144 292.79 96.8175 292.631 96.5675 292.506C96.3175 292.381 95.9974 292.318 95.6072 292.318C95.0732 292.318 94.6281 292.441 94.272 292.688C93.9197 292.93 93.7436 293.239 93.7436 293.614C93.7436 293.947 93.8648 294.21 94.1072 294.403C94.3497 294.597 94.7285 294.758 95.2436 294.886L96.5391 295.205C97.3194 295.394 97.9008 295.684 98.2834 296.074C98.666 296.46 98.8572 296.958 98.8572 297.568C98.8572 298.068 98.7133 298.515 98.4254 298.909C98.1413 299.303 97.7436 299.614 97.2322 299.841C96.7209 300.068 96.1262 300.182 95.4482 300.182C94.558 300.182 93.8213 299.989 93.2379 299.602C92.6546 299.216 92.2853 298.652 92.13 297.909L93.4027 297.591C93.5239 298.061 93.7531 298.413 94.0902 298.648C94.4311 298.883 94.8762 299 95.4254 299C96.0504 299 96.5466 298.867 96.9141 298.602C97.2853 298.333 97.4709 298.011 97.4709 297.636C97.4709 297.333 97.3648 297.08 97.1527 296.875C96.9406 296.667 96.6148 296.511 96.1754 296.409L94.7209 296.068C93.9216 295.879 93.3345 295.585 92.9595 295.188C92.5883 294.786 92.4027 294.284 92.4027 293.682C92.4027 293.189 92.541 292.754 92.8175 292.375C93.0978 291.996 93.4785 291.699 93.9595 291.483C94.4444 291.267 94.9936 291.159 95.6072 291.159C96.4709 291.159 97.1489 291.348 97.6413 291.727C98.1375 292.106 98.4898 292.606 98.6982 293.227ZM107.058 293.227L105.853 293.568C105.777 293.367 105.665 293.172 105.518 292.983C105.374 292.79 105.177 292.631 104.927 292.506C104.677 292.381 104.357 292.318 103.967 292.318C103.433 292.318 102.987 292.441 102.631 292.688C102.279 292.93 102.103 293.239 102.103 293.614C102.103 293.947 102.224 294.21 102.467 294.403C102.709 294.597 103.088 294.758 103.603 294.886L104.898 295.205C105.679 295.394 106.26 295.684 106.643 296.074C107.025 296.46 107.217 296.958 107.217 297.568C107.217 298.068 107.073 298.515 106.785 298.909C106.501 299.303 106.103 299.614 105.592 299.841C105.08 300.068 104.486 300.182 103.808 300.182C102.917 300.182 102.181 299.989 101.597 299.602C101.014 299.216 100.645 298.652 100.489 297.909L101.762 297.591C101.883 298.061 102.112 298.413 102.45 298.648C102.79 298.883 103.236 299 103.785 299C104.41 299 104.906 298.867 105.273 298.602C105.645 298.333 105.83 298.011 105.83 297.636C105.83 297.333 105.724 297.08 105.512 296.875C105.3 296.667 104.974 296.511 104.535 296.409L103.08 296.068C102.281 295.879 101.694 295.585 101.319 295.188C100.948 294.786 100.762 294.284 100.762 293.682C100.762 293.189 100.9 292.754 101.177 292.375C101.457 291.996 101.838 291.699 102.319 291.483C102.804 291.267 103.353 291.159 103.967 291.159C104.83 291.159 105.508 291.348 106.001 291.727C106.497 292.106 106.849 292.606 107.058 293.227ZM113.735 300V291.273H115.031V292.636H115.144C115.326 292.17 115.62 291.809 116.025 291.551C116.43 291.29 116.917 291.159 117.485 291.159C118.061 291.159 118.54 291.29 118.923 291.551C119.309 291.809 119.61 292.17 119.826 292.636H119.917C120.14 292.186 120.476 291.828 120.923 291.562C121.37 291.294 121.906 291.159 122.531 291.159C123.311 291.159 123.949 291.403 124.445 291.892C124.942 292.377 125.19 293.133 125.19 294.159V300H123.849V294.159C123.849 293.515 123.673 293.055 123.32 292.778C122.968 292.502 122.553 292.364 122.076 292.364C121.462 292.364 120.987 292.549 120.65 292.92C120.313 293.288 120.144 293.754 120.144 294.318V300H118.781V294.023C118.781 293.527 118.62 293.127 118.298 292.824C117.976 292.517 117.561 292.364 117.053 292.364C116.705 292.364 116.379 292.456 116.076 292.642C115.777 292.828 115.534 293.085 115.349 293.415C115.167 293.741 115.076 294.117 115.076 294.545V300H113.735ZM131.187 300.182C130.399 300.182 129.708 299.994 129.113 299.619C128.522 299.244 128.06 298.72 127.727 298.045C127.397 297.371 127.232 296.583 127.232 295.682C127.232 294.773 127.397 293.979 127.727 293.301C128.06 292.623 128.522 292.097 129.113 291.722C129.708 291.347 130.399 291.159 131.187 291.159C131.975 291.159 132.664 291.347 133.255 291.722C133.85 292.097 134.312 292.623 134.641 293.301C134.975 293.979 135.141 294.773 135.141 295.682C135.141 296.583 134.975 297.371 134.641 298.045C134.312 298.72 133.85 299.244 133.255 299.619C132.664 299.994 131.975 300.182 131.187 300.182ZM131.187 298.977C131.785 298.977 132.278 298.824 132.664 298.517C133.05 298.21 133.336 297.807 133.522 297.307C133.708 296.807 133.8 296.265 133.8 295.682C133.8 295.098 133.708 294.555 133.522 294.051C133.336 293.547 133.05 293.14 132.664 292.83C132.278 292.519 131.785 292.364 131.187 292.364C130.588 292.364 130.096 292.519 129.71 292.83C129.323 293.14 129.037 293.547 128.852 294.051C128.666 294.555 128.573 295.098 128.573 295.682C128.573 296.265 128.666 296.807 128.852 297.307C129.037 297.807 129.323 298.21 129.71 298.517C130.096 298.824 130.588 298.977 131.187 298.977ZM137.188 300V291.273H138.484V292.591H138.575C138.734 292.159 139.022 291.809 139.438 291.54C139.855 291.271 140.325 291.136 140.847 291.136C140.946 291.136 141.069 291.138 141.217 291.142C141.364 291.146 141.476 291.152 141.552 291.159V292.523C141.506 292.511 141.402 292.494 141.239 292.472C141.08 292.445 140.912 292.432 140.734 292.432C140.309 292.432 139.931 292.521 139.597 292.699C139.268 292.873 139.006 293.116 138.813 293.426C138.624 293.733 138.529 294.083 138.529 294.477V300H137.188ZM146.535 300.182C145.694 300.182 144.969 299.996 144.359 299.625C143.753 299.25 143.285 298.727 142.955 298.057C142.629 297.383 142.467 296.598 142.467 295.705C142.467 294.811 142.629 294.023 142.955 293.341C143.285 292.655 143.743 292.121 144.33 291.739C144.921 291.352 145.611 291.159 146.398 291.159C146.853 291.159 147.302 291.235 147.745 291.386C148.188 291.538 148.592 291.784 148.955 292.125C149.319 292.462 149.609 292.909 149.825 293.466C150.04 294.023 150.148 294.708 150.148 295.523V296.091H143.421V294.932H148.785C148.785 294.439 148.686 294 148.489 293.614C148.296 293.227 148.02 292.922 147.66 292.699C147.304 292.475 146.883 292.364 146.398 292.364C145.864 292.364 145.402 292.496 145.012 292.761C144.626 293.023 144.328 293.364 144.12 293.784C143.912 294.205 143.808 294.655 143.808 295.136V295.909C143.808 296.568 143.921 297.127 144.148 297.585C144.379 298.04 144.7 298.386 145.109 298.625C145.518 298.86 145.993 298.977 146.535 298.977C146.887 298.977 147.205 298.928 147.489 298.83C147.777 298.727 148.025 298.576 148.234 298.375C148.442 298.17 148.603 297.917 148.717 297.614L150.012 297.977C149.876 298.417 149.647 298.803 149.325 299.136C149.003 299.466 148.605 299.723 148.131 299.909C147.658 300.091 147.126 300.182 146.535 300.182ZM162.87 293.227L161.665 293.568C161.59 293.367 161.478 293.172 161.33 292.983C161.186 292.79 160.989 292.631 160.739 292.506C160.489 292.381 160.169 292.318 159.779 292.318C159.245 292.318 158.8 292.441 158.444 292.688C158.092 292.93 157.915 293.239 157.915 293.614C157.915 293.947 158.037 294.21 158.279 294.403C158.522 294.597 158.9 294.758 159.415 294.886L160.711 295.205C161.491 295.394 162.073 295.684 162.455 296.074C162.838 296.46 163.029 296.958 163.029 297.568C163.029 298.068 162.885 298.515 162.597 298.909C162.313 299.303 161.915 299.614 161.404 299.841C160.893 300.068 160.298 300.182 159.62 300.182C158.73 300.182 157.993 299.989 157.41 299.602C156.826 299.216 156.457 298.652 156.302 297.909L157.575 297.591C157.696 298.061 157.925 298.413 158.262 298.648C158.603 298.883 159.048 299 159.597 299C160.222 299 160.719 298.867 161.086 298.602C161.457 298.333 161.643 298.011 161.643 297.636C161.643 297.333 161.537 297.08 161.325 296.875C161.112 296.667 160.787 296.511 160.347 296.409L158.893 296.068C158.094 295.879 157.506 295.585 157.131 295.188C156.76 294.786 156.575 294.284 156.575 293.682C156.575 293.189 156.713 292.754 156.989 292.375C157.27 291.996 157.65 291.699 158.131 291.483C158.616 291.267 159.165 291.159 159.779 291.159C160.643 291.159 161.321 291.348 161.813 291.727C162.309 292.106 162.662 292.606 162.87 293.227ZM166.388 294.75V300H165.048V288.364H166.388V292.636H166.502C166.707 292.186 167.013 291.828 167.423 291.562C167.835 291.294 168.385 291.159 169.07 291.159C169.665 291.159 170.186 291.278 170.633 291.517C171.08 291.752 171.426 292.114 171.673 292.602C171.923 293.087 172.048 293.705 172.048 294.455V300H170.707V294.545C170.707 293.852 170.527 293.316 170.167 292.938C169.811 292.555 169.317 292.364 168.684 292.364C168.245 292.364 167.851 292.456 167.502 292.642C167.157 292.828 166.885 293.098 166.684 293.455C166.487 293.811 166.388 294.242 166.388 294.75ZM177.069 300.205C176.516 300.205 176.014 300.1 175.563 299.892C175.112 299.68 174.754 299.375 174.489 298.977C174.224 298.576 174.092 298.091 174.092 297.523C174.092 297.023 174.19 296.617 174.387 296.307C174.584 295.992 174.847 295.746 175.177 295.568C175.506 295.39 175.87 295.258 176.268 295.17C176.669 295.08 177.073 295.008 177.478 294.955C178.008 294.886 178.438 294.835 178.768 294.801C179.101 294.763 179.344 294.701 179.495 294.614C179.65 294.527 179.728 294.375 179.728 294.159V294.114C179.728 293.553 179.575 293.117 179.268 292.807C178.965 292.496 178.504 292.341 177.887 292.341C177.247 292.341 176.745 292.481 176.381 292.761C176.018 293.042 175.762 293.341 175.614 293.659L174.342 293.205C174.569 292.674 174.872 292.261 175.251 291.966C175.633 291.667 176.05 291.458 176.501 291.341C176.955 291.22 177.402 291.159 177.842 291.159C178.122 291.159 178.444 291.193 178.808 291.261C179.175 291.326 179.529 291.46 179.87 291.665C180.215 291.869 180.501 292.178 180.728 292.591C180.955 293.004 181.069 293.557 181.069 294.25V300H179.728V298.818H179.66C179.569 299.008 179.417 299.21 179.205 299.426C178.993 299.642 178.711 299.826 178.359 299.977C178.006 300.129 177.576 300.205 177.069 300.205ZM177.273 299C177.804 299 178.251 298.896 178.614 298.688C178.982 298.479 179.258 298.21 179.444 297.881C179.633 297.551 179.728 297.205 179.728 296.841V295.614C179.671 295.682 179.546 295.744 179.353 295.801C179.164 295.854 178.944 295.902 178.694 295.943C178.448 295.981 178.207 296.015 177.972 296.045C177.741 296.072 177.554 296.095 177.41 296.114C177.061 296.159 176.736 296.233 176.433 296.335C176.133 296.434 175.891 296.583 175.705 296.784C175.523 296.981 175.433 297.25 175.433 297.591C175.433 298.057 175.605 298.409 175.95 298.648C176.298 298.883 176.739 299 177.273 299ZM183.516 303.273V291.273H184.812V292.659H184.971C185.069 292.508 185.206 292.314 185.38 292.08C185.558 291.841 185.812 291.629 186.141 291.443C186.475 291.254 186.925 291.159 187.494 291.159C188.228 291.159 188.876 291.343 189.437 291.71C189.997 292.078 190.435 292.598 190.749 293.273C191.064 293.947 191.221 294.742 191.221 295.659C191.221 296.583 191.064 297.384 190.749 298.062C190.435 298.737 189.999 299.259 189.442 299.631C188.886 299.998 188.244 300.182 187.516 300.182C186.956 300.182 186.507 300.089 186.17 299.903C185.833 299.714 185.573 299.5 185.391 299.261C185.21 299.019 185.069 298.818 184.971 298.659H184.857V303.273H183.516ZM184.835 295.636C184.835 296.295 184.931 296.877 185.124 297.381C185.317 297.881 185.6 298.273 185.971 298.557C186.342 298.837 186.797 298.977 187.335 298.977C187.895 298.977 188.363 298.83 188.738 298.534C189.117 298.235 189.401 297.833 189.59 297.33C189.783 296.822 189.88 296.258 189.88 295.636C189.88 295.023 189.785 294.47 189.596 293.977C189.41 293.481 189.128 293.089 188.749 292.801C188.374 292.509 187.903 292.364 187.335 292.364C186.789 292.364 186.331 292.502 185.96 292.778C185.588 293.051 185.308 293.434 185.119 293.926C184.929 294.415 184.835 294.985 184.835 295.636ZM196.925 300.182C196.085 300.182 195.359 299.996 194.749 299.625C194.143 299.25 193.675 298.727 193.346 298.057C193.02 297.383 192.857 296.598 192.857 295.705C192.857 294.811 193.02 294.023 193.346 293.341C193.675 292.655 194.134 292.121 194.721 291.739C195.312 291.352 196.001 291.159 196.789 291.159C197.244 291.159 197.692 291.235 198.136 291.386C198.579 291.538 198.982 291.784 199.346 292.125C199.71 292.462 199.999 292.909 200.215 293.466C200.431 294.023 200.539 294.708 200.539 295.523V296.091H193.812V294.932H199.175C199.175 294.439 199.077 294 198.88 293.614C198.687 293.227 198.41 292.922 198.05 292.699C197.694 292.475 197.274 292.364 196.789 292.364C196.255 292.364 195.793 292.496 195.403 292.761C195.016 293.023 194.719 293.364 194.511 293.784C194.302 294.205 194.198 294.655 194.198 295.136V295.909C194.198 296.568 194.312 297.127 194.539 297.585C194.77 298.04 195.09 298.386 195.499 298.625C195.908 298.86 196.384 298.977 196.925 298.977C197.278 298.977 197.596 298.928 197.88 298.83C198.168 298.727 198.416 298.576 198.624 298.375C198.833 298.17 198.994 297.917 199.107 297.614L200.403 297.977C200.266 298.417 200.037 298.803 199.715 299.136C199.393 299.466 198.996 299.723 198.522 299.909C198.049 300.091 197.516 300.182 196.925 300.182ZM208.761 293.227L207.556 293.568C207.48 293.367 207.369 293.172 207.221 292.983C207.077 292.79 206.88 292.631 206.63 292.506C206.38 292.381 206.06 292.318 205.67 292.318C205.136 292.318 204.691 292.441 204.335 292.688C203.982 292.93 203.806 293.239 203.806 293.614C203.806 293.947 203.927 294.21 204.17 294.403C204.412 294.597 204.791 294.758 205.306 294.886L206.602 295.205C207.382 295.394 207.963 295.684 208.346 296.074C208.728 296.46 208.92 296.958 208.92 297.568C208.92 298.068 208.776 298.515 208.488 298.909C208.204 299.303 207.806 299.614 207.295 299.841C206.783 300.068 206.189 300.182 205.511 300.182C204.621 300.182 203.884 299.989 203.3 299.602C202.717 299.216 202.348 298.652 202.192 297.909L203.465 297.591C203.586 298.061 203.816 298.413 204.153 298.648C204.494 298.883 204.939 299 205.488 299C206.113 299 206.609 298.867 206.977 298.602C207.348 298.333 207.533 298.011 207.533 297.636C207.533 297.333 207.427 297.08 207.215 296.875C207.003 296.667 206.677 296.511 206.238 296.409L204.783 296.068C203.984 295.879 203.397 295.585 203.022 295.188C202.651 294.786 202.465 294.284 202.465 293.682C202.465 293.189 202.603 292.754 202.88 292.375C203.16 291.996 203.541 291.699 204.022 291.483C204.507 291.267 205.056 291.159 205.67 291.159C206.533 291.159 207.211 291.348 207.704 291.727C208.2 292.106 208.552 292.606 208.761 293.227Z" fill="#667085"/>
<circle cx="31" cy="31" r="28" fill="#C8951A" stroke="white" stroke-width="6"/>
<path d="M26.875 18.875H18.125C17.4346 18.875 16.875 19.4346 16.875 20.125V28.875C16.875 29.5654 17.4346 30.125 18.125 30.125H26.875C27.5654 30.125 28.125 29.5654 28.125 28.875V20.125C28.125 19.4346 27.5654 18.875 26.875 18.875Z" stroke="white" stroke-linecap="round" stroke-linejoin="round"/>
<g clip-path="url(#clip2_2765_37935)">
<path d="M29.93 32.4125L24.6363 41.25C24.5271 41.439 24.4694 41.6533 24.4688 41.8716C24.4681 42.0898 24.5247 42.3045 24.6328 42.4941C24.7409 42.6837 24.8967 42.8417 25.0848 42.9524C25.2729 43.0631 25.4868 43.1226 25.705 43.125H36.2925C36.5108 43.1226 36.7246 43.0631 36.9127 42.9524C37.1008 42.8417 37.2567 42.6837 37.3647 42.4941C37.4728 42.3045 37.5294 42.0898 37.5288 41.8716C37.5282 41.6533 37.4704 41.439 37.3613 41.25L32.0675 32.4125C31.9561 32.2288 31.7992 32.077 31.612 31.9716C31.4248 31.8662 31.2136 31.8108 30.9988 31.8108C30.7839 31.8108 30.5727 31.8662 30.3855 31.9716C30.1983 32.077 30.0414 32.2288 29.93 32.4125V32.4125Z" stroke="white" stroke-linecap="round" stroke-linejoin="round"/>
</g>
<g clip-path="url(#clip3_2765_37935)">
<path d="M40.0026 31.6667C43.6845 31.6667 46.6693 28.6819 46.6693 25C46.6693 21.3181 43.6845 18.3334 40.0026 18.3334C36.3207 18.3334 33.3359 21.3181 33.3359 25C33.3359 28.6819 36.3207 31.6667 40.0026 31.6667Z" stroke="white" stroke-linecap="round" stroke-linejoin="round"/>
</g>
<defs>
<clipPath id="clip0_2765_37935">
<rect x="30" y="31" width="200" height="200" rx="16" fill="white"/>
</clipPath>
<clipPath id="clip1_2765_37935">
<rect width="240" height="724" fill="white" transform="translate(30 -231)"/>
</clipPath>
<clipPath id="clip2_2765_37935">
<rect width="15" height="15" fill="white" transform="translate(23.5 30)"/>
</clipPath>
<clipPath id="clip3_2765_37935">
<rect width="16" height="16" fill="white" transform="translate(32 17)"/>
</clipPath>
</defs>
</svg>
