<svg width="274" height="315" viewBox="0 0 274 315" fill="none" xmlns="http://www.w3.org/2000/svg">
<rect x="30" y="31" width="200" height="200" rx="16" fill="#F3F5F7"/>
<path d="M62 75C62 68.3726 67.3726 63 74 63H230V231H62V75Z" fill="white"/>
<path d="M106 97C100.49 97 96 101.49 96 107C96 112.51 100.49 117 106 117C111.51 117 116 112.51 116 107C116 101.49 111.51 97 106 97ZM110.78 104.7L105.11 110.37C104.97 110.51 104.78 110.59 104.58 110.59C104.38 110.59 104.19 110.51 104.05 110.37L101.22 107.54C100.93 107.25 100.93 106.77 101.22 106.48C101.51 106.19 101.99 106.19 102.28 106.48L104.58 108.78L109.72 103.64C110.01 103.35 110.49 103.35 110.78 103.64C111.07 103.93 111.07 104.4 110.78 104.7Z" fill="#9CD323"/>
<rect x="130" y="95" width="100" height="5" rx="2.5" fill="#C3D4E9"/>
<rect x="130" y="112" width="100" height="5" rx="2.5" fill="#C3D4E9"/>
<rect x="130" y="129" width="100" height="5" rx="2.5" fill="#C3D4E9"/>
<path d="M106 160C100.49 160 96 164.49 96 170C96 175.51 100.49 180 106 180C111.51 180 116 175.51 116 170C116 164.49 111.51 160 106 160ZM110.78 167.7L105.11 173.37C104.97 173.51 104.78 173.59 104.58 173.59C104.38 173.59 104.19 173.51 104.05 173.37L101.22 170.54C100.93 170.25 100.93 169.77 101.22 169.48C101.51 169.19 101.99 169.19 102.28 169.48L104.58 171.78L109.72 166.64C110.01 166.35 110.49 166.35 110.78 166.64C111.07 166.93 111.07 167.4 110.78 167.7Z" fill="#9CD323"/>
<rect x="130" y="158" width="100" height="5" rx="2.5" fill="#C3D4E9"/>
<rect x="130" y="175" width="100" height="5" rx="2.5" fill="#C3D4E9"/>
<rect x="130" y="192" width="100" height="5" rx="2.5" fill="#C3D4E9"/>
<path d="M100.256 264H97.7243L102.333 250.909H105.26L109.876 264H107.344L103.848 253.594H103.746L100.256 264ZM100.339 258.867H107.242V260.772H100.339V258.867ZM111.498 264V254.182H113.741V255.818H113.843C114.022 255.251 114.329 254.815 114.764 254.508C115.203 254.197 115.703 254.041 116.266 254.041C116.394 254.041 116.537 254.048 116.694 254.06C116.856 254.069 116.99 254.084 117.097 254.105V256.234C116.999 256.2 116.843 256.17 116.63 256.144C116.422 256.114 116.219 256.099 116.023 256.099C115.601 256.099 115.222 256.191 114.885 256.374C114.553 256.553 114.291 256.803 114.099 257.122C113.907 257.442 113.811 257.81 113.811 258.228V264H111.498ZM124.064 254.182V255.972H118.42V254.182H124.064ZM119.814 251.83H122.127V261.047C122.127 261.358 122.174 261.597 122.268 261.763C122.366 261.925 122.494 262.036 122.652 262.095C122.809 262.155 122.984 262.185 123.176 262.185C123.321 262.185 123.453 262.174 123.572 262.153C123.696 262.131 123.789 262.112 123.853 262.095L124.243 263.904C124.12 263.947 123.943 263.994 123.713 264.045C123.487 264.096 123.21 264.126 122.882 264.134C122.302 264.151 121.78 264.064 121.316 263.872C120.851 263.676 120.483 263.374 120.21 262.964C119.941 262.555 119.809 262.044 119.814 261.43V251.83ZM126.313 264V250.909H128.627V255.805H128.722C128.842 255.567 129.01 255.313 129.227 255.045C129.445 254.772 129.739 254.54 130.11 254.348C130.48 254.152 130.953 254.054 131.529 254.054C132.287 254.054 132.971 254.248 133.58 254.636C134.194 255.019 134.68 255.588 135.038 256.342C135.4 257.092 135.581 258.013 135.581 259.104C135.581 260.182 135.404 261.098 135.051 261.852C134.697 262.607 134.215 263.182 133.606 263.578C132.997 263.974 132.306 264.173 131.535 264.173C130.972 264.173 130.506 264.079 130.135 263.891C129.764 263.704 129.466 263.478 129.24 263.214C129.019 262.945 128.846 262.692 128.722 262.453H128.588V264H126.313ZM128.582 259.091C128.582 259.726 128.671 260.282 128.85 260.759C129.034 261.237 129.296 261.609 129.637 261.878C129.982 262.142 130.399 262.274 130.889 262.274C131.401 262.274 131.829 262.138 132.174 261.865C132.519 261.588 132.779 261.211 132.954 260.734C133.133 260.252 133.222 259.705 133.222 259.091C133.222 258.482 133.135 257.94 132.96 257.467C132.786 256.994 132.526 256.624 132.181 256.355C131.835 256.087 131.405 255.952 130.889 255.952C130.395 255.952 129.975 256.082 129.63 256.342C129.285 256.602 129.023 256.967 128.844 257.435C128.669 257.904 128.582 258.456 128.582 259.091ZM141.831 264.192C140.872 264.192 140.041 263.981 139.338 263.559C138.635 263.137 138.089 262.547 137.702 261.788C137.318 261.03 137.126 260.143 137.126 259.129C137.126 258.115 137.318 257.227 137.702 256.464C138.089 255.701 138.635 255.109 139.338 254.687C140.041 254.265 140.872 254.054 141.831 254.054C142.79 254.054 143.621 254.265 144.324 254.687C145.027 255.109 145.57 255.701 145.954 256.464C146.342 257.227 146.536 258.115 146.536 259.129C146.536 260.143 146.342 261.03 145.954 261.788C145.57 262.547 145.027 263.137 144.324 263.559C143.621 263.981 142.79 264.192 141.831 264.192ZM141.844 262.338C142.364 262.338 142.798 262.195 143.148 261.91C143.497 261.62 143.757 261.232 143.928 260.746C144.102 260.261 144.19 259.719 144.19 259.123C144.19 258.522 144.102 257.979 143.928 257.493C143.757 257.003 143.497 256.613 143.148 256.323C142.798 256.033 142.364 255.888 141.844 255.888C141.311 255.888 140.868 256.033 140.514 256.323C140.165 256.613 139.903 257.003 139.728 257.493C139.558 257.979 139.472 258.522 139.472 259.123C139.472 259.719 139.558 260.261 139.728 260.746C139.903 261.232 140.165 261.62 140.514 261.91C140.868 262.195 141.311 262.338 141.844 262.338ZM151.325 264.198C150.703 264.198 150.142 264.087 149.644 263.866C149.149 263.64 148.757 263.308 148.468 262.869C148.182 262.43 148.039 261.888 148.039 261.245C148.039 260.691 148.142 260.233 148.346 259.871C148.551 259.509 148.83 259.219 149.183 259.001C149.537 258.784 149.936 258.62 150.379 258.509C150.826 258.394 151.289 258.311 151.766 258.26C152.341 258.2 152.808 258.147 153.166 258.1C153.524 258.049 153.784 257.972 153.945 257.87C154.112 257.763 154.195 257.599 154.195 257.378V257.339C154.195 256.858 154.052 256.485 153.767 256.221C153.481 255.957 153.07 255.825 152.533 255.825C151.966 255.825 151.517 255.948 151.184 256.195C150.856 256.442 150.634 256.734 150.519 257.071L148.359 256.764C148.529 256.168 148.811 255.669 149.203 255.268C149.595 254.864 150.074 254.561 150.641 254.361C151.208 254.156 151.834 254.054 152.52 254.054C152.993 254.054 153.464 254.109 153.933 254.22C154.401 254.331 154.83 254.514 155.218 254.77C155.605 255.021 155.916 255.364 156.151 255.799C156.389 256.234 156.509 256.777 156.509 257.429V264H154.284V262.651H154.208C154.067 262.924 153.869 263.18 153.613 263.418C153.362 263.653 153.044 263.842 152.661 263.987C152.281 264.128 151.836 264.198 151.325 264.198ZM151.926 262.498C152.39 262.498 152.793 262.406 153.134 262.223C153.475 262.036 153.737 261.788 153.92 261.482C154.107 261.175 154.201 260.84 154.201 260.478V259.321C154.129 259.381 154.005 259.436 153.83 259.487C153.66 259.538 153.468 259.583 153.255 259.621C153.042 259.66 152.831 259.694 152.622 259.724C152.414 259.754 152.232 259.779 152.079 259.8C151.734 259.847 151.425 259.924 151.152 260.031C150.879 260.137 150.664 260.286 150.507 260.478C150.349 260.665 150.27 260.908 150.27 261.207C150.27 261.633 150.426 261.955 150.737 262.172C151.048 262.389 151.444 262.498 151.926 262.498ZM158.835 264V254.182H161.079V255.818H161.181C161.36 255.251 161.667 254.815 162.102 254.508C162.541 254.197 163.041 254.041 163.604 254.041C163.732 254.041 163.874 254.048 164.032 254.06C164.194 254.069 164.328 254.084 164.435 254.105V256.234C164.337 256.2 164.181 256.17 163.968 256.144C163.759 256.114 163.557 256.099 163.361 256.099C162.939 256.099 162.56 256.191 162.223 256.374C161.891 256.553 161.629 256.803 161.437 257.122C161.245 257.442 161.149 257.81 161.149 258.228V264H158.835ZM169.211 264.173C168.44 264.173 167.75 263.974 167.14 263.578C166.531 263.182 166.049 262.607 165.696 261.852C165.342 261.098 165.165 260.182 165.165 259.104C165.165 258.013 165.344 257.092 165.702 256.342C166.064 255.588 166.552 255.019 167.166 254.636C167.779 254.248 168.463 254.054 169.218 254.054C169.793 254.054 170.266 254.152 170.637 254.348C171.007 254.54 171.301 254.772 171.519 255.045C171.736 255.313 171.904 255.567 172.024 255.805H172.12V250.909H174.44V264H172.164V262.453H172.024C171.904 262.692 171.732 262.945 171.506 263.214C171.28 263.478 170.982 263.704 170.611 263.891C170.24 264.079 169.774 264.173 169.211 264.173ZM169.857 262.274C170.347 262.274 170.765 262.142 171.11 261.878C171.455 261.609 171.717 261.237 171.896 260.759C172.075 260.282 172.164 259.726 172.164 259.091C172.164 258.456 172.075 257.904 171.896 257.435C171.721 256.967 171.461 256.602 171.116 256.342C170.775 256.082 170.355 255.952 169.857 255.952C169.341 255.952 168.911 256.087 168.566 256.355C168.221 256.624 167.961 256.994 167.786 257.467C167.611 257.94 167.524 258.482 167.524 259.091C167.524 259.705 167.611 260.252 167.786 260.734C167.965 261.211 168.227 261.588 168.572 261.865C168.922 262.138 169.35 262.274 169.857 262.274Z" fill="#101828"/>
<path d="M1.08878 291V279.364H2.49787V289.75H7.90696V291H1.08878ZM13.5661 291.182C12.7251 291.182 11.9998 290.996 11.3899 290.625C10.7839 290.25 10.3161 289.727 9.98651 289.057C9.66075 288.383 9.49787 287.598 9.49787 286.705C9.49787 285.811 9.66075 285.023 9.98651 284.341C10.3161 283.655 10.7744 283.121 11.3615 282.739C11.9524 282.352 12.6418 282.159 13.4297 282.159C13.8842 282.159 14.3331 282.235 14.7763 282.386C15.2195 282.538 15.6229 282.784 15.9865 283.125C16.3501 283.462 16.6399 283.909 16.8558 284.466C17.0717 285.023 17.1797 285.708 17.1797 286.523V287.091H10.4524V285.932H15.8161C15.8161 285.439 15.7176 285 15.5206 284.614C15.3274 284.227 15.0509 283.922 14.6911 283.699C14.335 283.475 13.9145 283.364 13.4297 283.364C12.8956 283.364 12.4335 283.496 12.0433 283.761C11.657 284.023 11.3596 284.364 11.1513 284.784C10.9429 285.205 10.8388 285.655 10.8388 286.136V286.909C10.8388 287.568 10.9524 288.127 11.1797 288.585C11.4107 289.04 11.7308 289.386 12.1399 289.625C12.549 289.86 13.0244 289.977 13.5661 289.977C13.9183 289.977 14.2365 289.928 14.5206 289.83C14.8085 289.727 15.0566 289.576 15.2649 289.375C15.4732 289.17 15.6342 288.917 15.7479 288.614L17.0433 288.977C16.907 289.417 16.6778 289.803 16.3558 290.136C16.0339 290.466 15.6361 290.723 15.1626 290.909C14.6892 291.091 14.157 291.182 13.5661 291.182ZM23.0149 282.273V283.409H18.4922V282.273H23.0149ZM19.8104 280.182H21.1513V288.5C21.1513 288.879 21.2062 289.163 21.3161 289.352C21.4297 289.538 21.5736 289.663 21.7479 289.727C21.9259 289.788 22.1134 289.818 22.3104 289.818C22.4581 289.818 22.5793 289.811 22.674 289.795C22.7687 289.777 22.8445 289.761 22.9013 289.75L23.174 290.955C23.0831 290.989 22.9562 291.023 22.7933 291.057C22.6304 291.095 22.424 291.114 22.174 291.114C21.7952 291.114 21.424 291.032 21.0604 290.869C20.7005 290.706 20.4013 290.458 20.1626 290.125C19.9278 289.792 19.8104 289.371 19.8104 288.864V280.182ZM30.3956 294.273C30.1683 294.273 29.9657 294.254 29.7876 294.216C29.6096 294.182 29.4865 294.148 29.4183 294.114L29.7592 292.932C30.085 293.015 30.3729 293.045 30.6229 293.023C30.8729 293 31.0945 292.888 31.2876 292.688C31.4846 292.491 31.6645 292.17 31.8274 291.727L32.0774 291.045L28.8501 282.273H30.3047L32.7138 289.227H32.8047L35.2138 282.273H36.6683L32.9638 292.273C32.7971 292.723 32.5907 293.097 32.3445 293.392C32.0982 293.691 31.8123 293.913 31.4865 294.057C31.1645 294.201 30.8009 294.273 30.3956 294.273ZM41.6712 291.182C40.8833 291.182 40.192 290.994 39.5973 290.619C39.0064 290.244 38.5443 289.72 38.2109 289.045C37.8814 288.371 37.7166 287.583 37.7166 286.682C37.7166 285.773 37.8814 284.979 38.2109 284.301C38.5443 283.623 39.0064 283.097 39.5973 282.722C40.192 282.347 40.8833 282.159 41.6712 282.159C42.459 282.159 43.1484 282.347 43.7393 282.722C44.334 283.097 44.7962 283.623 45.1257 284.301C45.459 284.979 45.6257 285.773 45.6257 286.682C45.6257 287.583 45.459 288.371 45.1257 289.045C44.7962 289.72 44.334 290.244 43.7393 290.619C43.1484 290.994 42.459 291.182 41.6712 291.182ZM41.6712 289.977C42.2696 289.977 42.7621 289.824 43.1484 289.517C43.5348 289.21 43.8208 288.807 44.0064 288.307C44.192 287.807 44.2848 287.265 44.2848 286.682C44.2848 286.098 44.192 285.555 44.0064 285.051C43.8208 284.547 43.5348 284.14 43.1484 283.83C42.7621 283.519 42.2696 283.364 41.6712 283.364C41.0727 283.364 40.5803 283.519 40.1939 283.83C39.8075 284.14 39.5215 284.547 39.3359 285.051C39.1503 285.555 39.0575 286.098 39.0575 286.682C39.0575 287.265 39.1503 287.807 39.3359 288.307C39.5215 288.807 39.8075 289.21 40.1939 289.517C40.5803 289.824 41.0727 289.977 41.6712 289.977ZM53.1726 287.432V282.273H54.5135V291H53.1726V289.523H53.0817C52.8771 289.966 52.5589 290.343 52.1271 290.653C51.6953 290.96 51.1499 291.114 50.4908 291.114C49.9453 291.114 49.4605 290.994 49.0362 290.756C48.612 290.513 48.2786 290.15 48.0362 289.665C47.7938 289.176 47.6726 288.561 47.6726 287.818V282.273H49.0135V287.727C49.0135 288.364 49.1915 288.871 49.5476 289.25C49.9074 289.629 50.3658 289.818 50.9226 289.818C51.2559 289.818 51.5949 289.733 51.9396 289.562C52.2881 289.392 52.5798 289.131 52.8146 288.778C53.0533 288.426 53.1726 287.977 53.1726 287.432ZM56.9695 291V282.273H58.2649V283.591H58.3558C58.5149 283.159 58.8028 282.809 59.2195 282.54C59.6361 282.271 60.1058 282.136 60.6286 282.136C60.727 282.136 60.8501 282.138 60.9979 282.142C61.1456 282.146 61.2573 282.152 61.3331 282.159V283.523C61.2876 283.511 61.1835 283.494 61.0206 283.472C60.8615 283.445 60.6929 283.432 60.5149 283.432C60.0907 283.432 59.7119 283.521 59.3786 283.699C59.049 283.873 58.7876 284.116 58.5945 284.426C58.4051 284.733 58.3104 285.083 58.3104 285.477V291H56.9695ZM70.968 291.182C70.1499 291.182 69.4453 290.989 68.8544 290.602C68.2635 290.216 67.8089 289.684 67.4908 289.006C67.1726 288.328 67.0135 287.553 67.0135 286.682C67.0135 285.795 67.1764 285.013 67.5021 284.335C67.8317 283.653 68.29 283.121 68.8771 282.739C69.468 282.352 70.1574 282.159 70.9453 282.159C71.5589 282.159 72.112 282.273 72.6044 282.5C73.0968 282.727 73.5002 283.045 73.8146 283.455C74.129 283.864 74.3241 284.341 74.3999 284.886H73.0589C72.9567 284.489 72.7294 284.136 72.3771 283.83C72.0286 283.519 71.5589 283.364 70.968 283.364C70.4453 283.364 69.987 283.5 69.593 283.773C69.2029 284.042 68.898 284.422 68.6783 284.915C68.4624 285.403 68.3544 285.977 68.3544 286.636C68.3544 287.311 68.4605 287.898 68.6726 288.398C68.8885 288.898 69.1915 289.286 69.5817 289.562C69.9756 289.839 70.4377 289.977 70.968 289.977C71.3165 289.977 71.6328 289.917 71.9169 289.795C72.201 289.674 72.4415 289.5 72.6385 289.273C72.8355 289.045 72.9756 288.773 73.0589 288.455H74.3999C74.3241 288.97 74.1366 289.434 73.8374 289.847C73.5419 290.256 73.1499 290.581 72.6612 290.824C72.1764 291.062 71.612 291.182 70.968 291.182ZM76.3601 291V282.273H77.6555V283.591H77.7464C77.9055 283.159 78.1934 282.809 78.6101 282.54C79.0268 282.271 79.4964 282.136 80.0192 282.136C80.1177 282.136 80.2408 282.138 80.3885 282.142C80.5362 282.146 80.648 282.152 80.7237 282.159V283.523C80.6783 283.511 80.5741 283.494 80.4112 283.472C80.2521 283.445 80.0836 283.432 79.9055 283.432C79.4813 283.432 79.1025 283.521 78.7692 283.699C78.4396 283.873 78.1783 284.116 77.9851 284.426C77.7957 284.733 77.701 285.083 77.701 285.477V291H76.3601ZM85.7067 291.182C84.8658 291.182 84.1404 290.996 83.5305 290.625C82.9245 290.25 82.4567 289.727 82.1271 289.057C81.8014 288.383 81.6385 287.598 81.6385 286.705C81.6385 285.811 81.8014 285.023 82.1271 284.341C82.4567 283.655 82.915 283.121 83.5021 282.739C84.093 282.352 84.7824 282.159 85.5703 282.159C86.0249 282.159 86.4737 282.235 86.9169 282.386C87.3601 282.538 87.7635 282.784 88.1271 283.125C88.4908 283.462 88.7805 283.909 88.9964 284.466C89.2124 285.023 89.3203 285.708 89.3203 286.523V287.091H82.593V285.932H87.9567C87.9567 285.439 87.8582 285 87.6612 284.614C87.468 284.227 87.1915 283.922 86.8317 283.699C86.4756 283.475 86.0552 283.364 85.5703 283.364C85.0362 283.364 84.5741 283.496 84.1839 283.761C83.7976 284.023 83.5002 284.364 83.2919 284.784C83.0836 285.205 82.9794 285.655 82.9794 286.136V286.909C82.9794 287.568 83.093 288.127 83.3203 288.585C83.5514 289.04 83.8714 289.386 84.2805 289.625C84.6896 289.86 85.165 289.977 85.7067 289.977C86.0589 289.977 86.3771 289.928 86.6612 289.83C86.9491 289.727 87.1972 289.576 87.4055 289.375C87.6139 289.17 87.7749 288.917 87.8885 288.614L89.1839 288.977C89.0476 289.417 88.8184 289.803 88.4964 290.136C88.1745 290.466 87.7768 290.723 87.3033 290.909C86.8298 291.091 86.2976 291.182 85.7067 291.182ZM93.9283 291.205C93.3752 291.205 92.8733 291.1 92.4226 290.892C91.9718 290.68 91.6139 290.375 91.3487 289.977C91.0836 289.576 90.951 289.091 90.951 288.523C90.951 288.023 91.0495 287.617 91.2464 287.307C91.4434 286.992 91.7067 286.746 92.0362 286.568C92.3658 286.39 92.7294 286.258 93.1271 286.17C93.5286 286.08 93.9321 286.008 94.3374 285.955C94.8677 285.886 95.2976 285.835 95.6271 285.801C95.9605 285.763 96.2029 285.701 96.3544 285.614C96.5097 285.527 96.5874 285.375 96.5874 285.159V285.114C96.5874 284.553 96.4339 284.117 96.1271 283.807C95.8241 283.496 95.3639 283.341 94.7464 283.341C94.1063 283.341 93.6044 283.481 93.2408 283.761C92.8771 284.042 92.6214 284.341 92.4737 284.659L91.201 284.205C91.4283 283.674 91.7313 283.261 92.1101 282.966C92.4927 282.667 92.9093 282.458 93.3601 282.341C93.8146 282.22 94.2616 282.159 94.701 282.159C94.9813 282.159 95.3033 282.193 95.6669 282.261C96.0343 282.326 96.3885 282.46 96.7294 282.665C97.0741 282.869 97.3601 283.178 97.5874 283.591C97.8146 284.004 97.9283 284.557 97.9283 285.25V291H96.5874V289.818H96.5192C96.4283 290.008 96.2768 290.21 96.0646 290.426C95.8525 290.642 95.5703 290.826 95.218 290.977C94.8658 291.129 94.4358 291.205 93.9283 291.205ZM94.1328 290C94.6631 290 95.1101 289.896 95.4737 289.688C95.8411 289.479 96.1177 289.21 96.3033 288.881C96.4927 288.551 96.5874 288.205 96.5874 287.841V286.614C96.5305 286.682 96.4055 286.744 96.2124 286.801C96.023 286.854 95.8033 286.902 95.5533 286.943C95.3071 286.981 95.0665 287.015 94.8317 287.045C94.6006 287.072 94.4131 287.095 94.2692 287.114C93.9207 287.159 93.5949 287.233 93.2919 287.335C92.9927 287.434 92.7502 287.583 92.5646 287.784C92.3828 287.981 92.2919 288.25 92.2919 288.591C92.2919 289.057 92.4643 289.409 92.8089 289.648C93.1574 289.883 93.5987 290 94.1328 290ZM104.171 282.273V283.409H99.6484V282.273H104.171ZM100.967 280.182H102.308V288.5C102.308 288.879 102.362 289.163 102.472 289.352C102.586 289.538 102.73 289.663 102.904 289.727C103.082 289.788 103.27 289.818 103.467 289.818C103.614 289.818 103.736 289.811 103.83 289.795C103.925 289.777 104.001 289.761 104.058 289.75L104.33 290.955C104.239 290.989 104.112 291.023 103.95 291.057C103.787 291.095 103.58 291.114 103.33 291.114C102.951 291.114 102.58 291.032 102.217 290.869C101.857 290.706 101.558 290.458 101.319 290.125C101.084 289.792 100.967 289.371 100.967 288.864V280.182ZM106.188 291V282.273H107.529V291H106.188ZM106.87 280.818C106.609 280.818 106.383 280.729 106.194 280.551C106.008 280.373 105.915 280.159 105.915 279.909C105.915 279.659 106.008 279.445 106.194 279.267C106.383 279.089 106.609 279 106.87 279C107.131 279 107.355 279.089 107.54 279.267C107.73 279.445 107.825 279.659 107.825 279.909C107.825 280.159 107.73 280.373 107.54 280.551C107.355 280.729 107.131 280.818 106.87 280.818ZM117.121 282.273L113.894 291H112.531L109.303 282.273H110.758L113.167 289.227H113.258L115.667 282.273H117.121ZM118.891 291V282.273H120.232V291H118.891ZM119.573 280.818C119.312 280.818 119.086 280.729 118.897 280.551C118.711 280.373 118.619 280.159 118.619 279.909C118.619 279.659 118.711 279.445 118.897 279.267C119.086 279.089 119.312 279 119.573 279C119.835 279 120.058 279.089 120.244 279.267C120.433 279.445 120.528 279.659 120.528 279.909C120.528 280.159 120.433 280.373 120.244 280.551C120.058 280.729 119.835 280.818 119.573 280.818ZM126.484 282.273V283.409H121.961V282.273H126.484ZM123.279 280.182H124.62V288.5C124.62 288.879 124.675 289.163 124.785 289.352C124.898 289.538 125.042 289.663 125.217 289.727C125.395 289.788 125.582 289.818 125.779 289.818C125.927 289.818 126.048 289.811 126.143 289.795C126.237 289.777 126.313 289.761 126.37 289.75L126.643 290.955C126.552 290.989 126.425 291.023 126.262 291.057C126.099 291.095 125.893 291.114 125.643 291.114C125.264 291.114 124.893 291.032 124.529 290.869C124.169 290.706 123.87 290.458 123.631 290.125C123.397 289.792 123.279 289.371 123.279 288.864V280.182ZM129.364 294.273C129.137 294.273 128.934 294.254 128.756 294.216C128.578 294.182 128.455 294.148 128.387 294.114L128.728 292.932C129.054 293.015 129.342 293.045 129.592 293.023C129.842 293 130.063 292.888 130.256 292.688C130.453 292.491 130.633 292.17 130.796 291.727L131.046 291.045L127.819 282.273H129.273L131.683 289.227H131.773L134.183 282.273H135.637L131.933 292.273C131.766 292.723 131.559 293.097 131.313 293.392C131.067 293.691 130.781 293.913 130.455 294.057C130.133 294.201 129.77 294.273 129.364 294.273ZM145.793 282.273V283.409H141.089V282.273H145.793ZM142.498 291V281.068C142.498 280.568 142.615 280.152 142.85 279.818C143.085 279.485 143.39 279.235 143.765 279.068C144.14 278.902 144.536 278.818 144.952 278.818C145.282 278.818 145.551 278.845 145.759 278.898C145.968 278.951 146.123 279 146.225 279.045L145.839 280.205C145.771 280.182 145.676 280.153 145.555 280.119C145.437 280.085 145.282 280.068 145.089 280.068C144.646 280.068 144.326 280.18 144.129 280.403C143.935 280.627 143.839 280.955 143.839 281.386V291H142.498ZM149.013 279.364V291H147.673V279.364H149.013ZM155.015 291.182C154.227 291.182 153.536 290.994 152.941 290.619C152.35 290.244 151.888 289.72 151.555 289.045C151.225 288.371 151.06 287.583 151.06 286.682C151.06 285.773 151.225 284.979 151.555 284.301C151.888 283.623 152.35 283.097 152.941 282.722C153.536 282.347 154.227 282.159 155.015 282.159C155.803 282.159 156.492 282.347 157.083 282.722C157.678 283.097 158.14 283.623 158.469 284.301C158.803 284.979 158.969 285.773 158.969 286.682C158.969 287.583 158.803 288.371 158.469 289.045C158.14 289.72 157.678 290.244 157.083 290.619C156.492 290.994 155.803 291.182 155.015 291.182ZM155.015 289.977C155.613 289.977 156.106 289.824 156.492 289.517C156.879 289.21 157.165 288.807 157.35 288.307C157.536 287.807 157.629 287.265 157.629 286.682C157.629 286.098 157.536 285.555 157.35 285.051C157.165 284.547 156.879 284.14 156.492 283.83C156.106 283.519 155.613 283.364 155.015 283.364C154.416 283.364 153.924 283.519 153.538 283.83C153.151 284.14 152.865 284.547 152.68 285.051C152.494 285.555 152.401 286.098 152.401 286.682C152.401 287.265 152.494 287.807 152.68 288.307C152.865 288.807 153.151 289.21 153.538 289.517C153.924 289.824 154.416 289.977 155.015 289.977ZM162.697 291L160.038 282.273H161.447L163.333 288.955H163.424L165.288 282.273H166.719L168.56 288.932H168.651L170.538 282.273H171.947L169.288 291H167.969L166.06 284.295H165.924L164.015 291H162.697ZM181.765 291.182C180.977 291.182 180.286 290.994 179.691 290.619C179.1 290.244 178.638 289.72 178.305 289.045C177.975 288.371 177.81 287.583 177.81 286.682C177.81 285.773 177.975 284.979 178.305 284.301C178.638 283.623 179.1 283.097 179.691 282.722C180.286 282.347 180.977 282.159 181.765 282.159C182.553 282.159 183.242 282.347 183.833 282.722C184.428 283.097 184.89 283.623 185.219 284.301C185.553 284.979 185.719 285.773 185.719 286.682C185.719 287.583 185.553 288.371 185.219 289.045C184.89 289.72 184.428 290.244 183.833 290.619C183.242 290.994 182.553 291.182 181.765 291.182ZM181.765 289.977C182.363 289.977 182.856 289.824 183.242 289.517C183.629 289.21 183.915 288.807 184.1 288.307C184.286 287.807 184.379 287.265 184.379 286.682C184.379 286.098 184.286 285.555 184.1 285.051C183.915 284.547 183.629 284.14 183.242 283.83C182.856 283.519 182.363 283.364 181.765 283.364C181.166 283.364 180.674 283.519 180.288 283.83C179.901 284.14 179.615 284.547 179.43 285.051C179.244 285.555 179.151 286.098 179.151 286.682C179.151 287.265 179.244 287.807 179.43 288.307C179.615 288.807 179.901 289.21 180.288 289.517C180.674 289.824 181.166 289.977 181.765 289.977ZM189.107 285.75V291H187.766V282.273H189.062V283.636H189.175C189.38 283.193 189.691 282.837 190.107 282.568C190.524 282.295 191.062 282.159 191.721 282.159C192.312 282.159 192.829 282.28 193.272 282.523C193.715 282.761 194.06 283.125 194.306 283.614C194.552 284.098 194.675 284.712 194.675 285.455V291H193.335V285.545C193.335 284.86 193.156 284.326 192.8 283.943C192.444 283.557 191.956 283.364 191.335 283.364C190.906 283.364 190.524 283.456 190.187 283.642C189.853 283.828 189.59 284.098 189.397 284.455C189.204 284.811 189.107 285.242 189.107 285.75ZM205.421 282.273V283.409H200.898V282.273H205.421ZM202.217 280.182H203.558V288.5C203.558 288.879 203.612 289.163 203.722 289.352C203.836 289.538 203.98 289.663 204.154 289.727C204.332 289.788 204.52 289.818 204.717 289.818C204.864 289.818 204.986 289.811 205.08 289.795C205.175 289.777 205.251 289.761 205.308 289.75L205.58 290.955C205.489 290.989 205.362 291.023 205.2 291.057C205.037 291.095 204.83 291.114 204.58 291.114C204.201 291.114 203.83 291.032 203.467 290.869C203.107 290.706 202.808 290.458 202.569 290.125C202.334 289.792 202.217 289.371 202.217 288.864V280.182ZM208.967 285.75V291H207.626V279.364H208.967V283.636H209.08C209.285 283.186 209.592 282.828 210.001 282.562C210.414 282.294 210.963 282.159 211.648 282.159C212.243 282.159 212.764 282.278 213.211 282.517C213.658 282.752 214.004 283.114 214.251 283.602C214.501 284.087 214.626 284.705 214.626 285.455V291H213.285V285.545C213.285 284.852 213.105 284.316 212.745 283.938C212.389 283.555 211.895 283.364 211.262 283.364C210.823 283.364 210.429 283.456 210.08 283.642C209.736 283.828 209.463 284.098 209.262 284.455C209.065 284.811 208.967 285.242 208.967 285.75ZM217.079 291V282.273H218.42V291H217.079ZM217.761 280.818C217.499 280.818 217.274 280.729 217.085 280.551C216.899 280.373 216.806 280.159 216.806 279.909C216.806 279.659 216.899 279.445 217.085 279.267C217.274 279.089 217.499 279 217.761 279C218.022 279 218.246 279.089 218.431 279.267C218.621 279.445 218.715 279.659 218.715 279.909C218.715 280.159 218.621 280.373 218.431 280.551C218.246 280.729 218.022 280.818 217.761 280.818ZM227.058 284.227L225.853 284.568C225.777 284.367 225.665 284.172 225.518 283.983C225.374 283.79 225.177 283.631 224.927 283.506C224.677 283.381 224.357 283.318 223.967 283.318C223.433 283.318 222.987 283.441 222.631 283.688C222.279 283.93 222.103 284.239 222.103 284.614C222.103 284.947 222.224 285.21 222.467 285.403C222.709 285.597 223.088 285.758 223.603 285.886L224.898 286.205C225.679 286.394 226.26 286.684 226.643 287.074C227.025 287.46 227.217 287.958 227.217 288.568C227.217 289.068 227.073 289.515 226.785 289.909C226.501 290.303 226.103 290.614 225.592 290.841C225.08 291.068 224.486 291.182 223.808 291.182C222.917 291.182 222.181 290.989 221.597 290.602C221.014 290.216 220.645 289.652 220.489 288.909L221.762 288.591C221.883 289.061 222.112 289.413 222.45 289.648C222.79 289.883 223.236 290 223.785 290C224.41 290 224.906 289.867 225.273 289.602C225.645 289.333 225.83 289.011 225.83 288.636C225.83 288.333 225.724 288.08 225.512 287.875C225.3 287.667 224.974 287.511 224.535 287.409L223.08 287.068C222.281 286.879 221.694 286.585 221.319 286.188C220.948 285.786 220.762 285.284 220.762 284.682C220.762 284.189 220.9 283.754 221.177 283.375C221.457 282.996 221.838 282.699 222.319 282.483C222.804 282.267 223.353 282.159 223.967 282.159C224.83 282.159 225.508 282.348 226.001 282.727C226.497 283.106 226.849 283.606 227.058 284.227ZM233.917 291V279.364H235.258V283.659H235.371C235.47 283.508 235.606 283.314 235.781 283.08C235.959 282.841 236.212 282.629 236.542 282.443C236.875 282.254 237.326 282.159 237.894 282.159C238.629 282.159 239.277 282.343 239.837 282.71C240.398 283.078 240.835 283.598 241.15 284.273C241.464 284.947 241.621 285.742 241.621 286.659C241.621 287.583 241.464 288.384 241.15 289.062C240.835 289.737 240.4 290.259 239.843 290.631C239.286 290.998 238.644 291.182 237.917 291.182C237.356 291.182 236.907 291.089 236.57 290.903C236.233 290.714 235.974 290.5 235.792 290.261C235.61 290.019 235.47 289.818 235.371 289.659H235.212V291H233.917ZM235.235 286.636C235.235 287.295 235.332 287.877 235.525 288.381C235.718 288.881 236 289.273 236.371 289.557C236.743 289.837 237.197 289.977 237.735 289.977C238.296 289.977 238.763 289.83 239.138 289.534C239.517 289.235 239.801 288.833 239.991 288.33C240.184 287.822 240.281 287.258 240.281 286.636C240.281 286.023 240.186 285.47 239.996 284.977C239.811 284.481 239.529 284.089 239.15 283.801C238.775 283.509 238.303 283.364 237.735 283.364C237.19 283.364 236.731 283.502 236.36 283.778C235.989 284.051 235.709 284.434 235.519 284.926C235.33 285.415 235.235 285.985 235.235 286.636ZM245.013 279.364V291H243.673V279.364H245.013ZM250.038 291.205C249.485 291.205 248.983 291.1 248.532 290.892C248.081 290.68 247.723 290.375 247.458 289.977C247.193 289.576 247.06 289.091 247.06 288.523C247.06 288.023 247.159 287.617 247.356 287.307C247.553 286.992 247.816 286.746 248.146 286.568C248.475 286.39 248.839 286.258 249.237 286.17C249.638 286.08 250.041 286.008 250.447 285.955C250.977 285.886 251.407 285.835 251.737 285.801C252.07 285.763 252.312 285.701 252.464 285.614C252.619 285.527 252.697 285.375 252.697 285.159V285.114C252.697 284.553 252.543 284.117 252.237 283.807C251.933 283.496 251.473 283.341 250.856 283.341C250.216 283.341 249.714 283.481 249.35 283.761C248.987 284.042 248.731 284.341 248.583 284.659L247.31 284.205C247.538 283.674 247.841 283.261 248.219 282.966C248.602 282.667 249.019 282.458 249.469 282.341C249.924 282.22 250.371 282.159 250.81 282.159C251.091 282.159 251.413 282.193 251.776 282.261C252.144 282.326 252.498 282.46 252.839 282.665C253.183 282.869 253.469 283.178 253.697 283.591C253.924 284.004 254.038 284.557 254.038 285.25V291H252.697V289.818H252.629C252.538 290.008 252.386 290.21 252.174 290.426C251.962 290.642 251.68 290.826 251.327 290.977C250.975 291.129 250.545 291.205 250.038 291.205ZM250.242 290C250.772 290 251.219 289.896 251.583 289.688C251.951 289.479 252.227 289.21 252.413 288.881C252.602 288.551 252.697 288.205 252.697 287.841V286.614C252.64 286.682 252.515 286.744 252.322 286.801C252.132 286.854 251.913 286.902 251.663 286.943C251.416 286.981 251.176 287.015 250.941 287.045C250.71 287.072 250.522 287.095 250.379 287.114C250.03 287.159 249.704 287.233 249.401 287.335C249.102 287.434 248.86 287.583 248.674 287.784C248.492 287.981 248.401 288.25 248.401 288.591C248.401 289.057 248.574 289.409 248.918 289.648C249.267 289.883 249.708 290 250.242 290ZM257.826 285.75V291H256.485V282.273H257.781V283.636H257.894C258.099 283.193 258.409 282.837 258.826 282.568C259.243 282.295 259.781 282.159 260.44 282.159C261.031 282.159 261.548 282.28 261.991 282.523C262.434 282.761 262.779 283.125 263.025 283.614C263.271 284.098 263.394 284.712 263.394 285.455V291H262.053V285.545C262.053 284.86 261.875 284.326 261.519 283.943C261.163 283.557 260.674 283.364 260.053 283.364C259.625 283.364 259.243 283.456 258.906 283.642C258.572 283.828 258.309 284.098 258.116 284.455C257.923 284.811 257.826 285.242 257.826 285.75ZM267.094 287.818L267.072 286.159H267.344L271.163 282.273H272.822L268.754 286.386H268.64L267.094 287.818ZM265.844 291V279.364H267.185V291H265.844ZM271.39 291L267.981 286.682L268.935 285.75L273.094 291H271.39ZM24.7259 311.182C23.9077 311.182 23.2031 310.989 22.6122 310.602C22.0213 310.216 21.5668 309.684 21.2486 309.006C20.9304 308.328 20.7713 307.553 20.7713 306.682C20.7713 305.795 20.9342 305.013 21.2599 304.335C21.5895 303.653 22.0478 303.121 22.6349 302.739C23.2259 302.352 23.9152 302.159 24.7031 302.159C25.3168 302.159 25.8698 302.273 26.3622 302.5C26.8546 302.727 27.258 303.045 27.5724 303.455C27.8868 303.864 28.0819 304.341 28.1577 304.886H26.8168C26.7145 304.489 26.4872 304.136 26.1349 303.83C25.7865 303.519 25.3168 303.364 24.7259 303.364C24.2031 303.364 23.7448 303.5 23.3509 303.773C22.9607 304.042 22.6558 304.422 22.4361 304.915C22.2202 305.403 22.1122 305.977 22.1122 306.636C22.1122 307.311 22.2183 307.898 22.4304 308.398C22.6463 308.898 22.9493 309.286 23.3395 309.562C23.7334 309.839 24.1955 309.977 24.7259 309.977C25.0743 309.977 25.3906 309.917 25.6747 309.795C25.9588 309.674 26.1993 309.5 26.3963 309.273C26.5933 309.045 26.7334 308.773 26.8168 308.455H28.1577C28.0819 308.97 27.8944 309.434 27.5952 309.847C27.2997 310.256 26.9077 310.581 26.419 310.824C25.9342 311.062 25.3698 311.182 24.7259 311.182ZM32.6861 311.205C32.133 311.205 31.6312 311.1 31.1804 310.892C30.7296 310.68 30.3717 310.375 30.1065 309.977C29.8414 309.576 29.7088 309.091 29.7088 308.523C29.7088 308.023 29.8073 307.617 30.0043 307.307C30.2012 306.992 30.4645 306.746 30.794 306.568C31.1236 306.39 31.4872 306.258 31.8849 306.17C32.2865 306.08 32.6899 306.008 33.0952 305.955C33.6255 305.886 34.0554 305.835 34.3849 305.801C34.7183 305.763 34.9607 305.701 35.1122 305.614C35.2675 305.527 35.3452 305.375 35.3452 305.159V305.114C35.3452 304.553 35.1918 304.117 34.8849 303.807C34.5819 303.496 34.1217 303.341 33.5043 303.341C32.8641 303.341 32.3622 303.481 31.9986 303.761C31.6349 304.042 31.3793 304.341 31.2315 304.659L29.9588 304.205C30.1861 303.674 30.4891 303.261 30.8679 302.966C31.2505 302.667 31.6671 302.458 32.1179 302.341C32.5724 302.22 33.0194 302.159 33.4588 302.159C33.7391 302.159 34.0611 302.193 34.4247 302.261C34.7921 302.326 35.1463 302.46 35.4872 302.665C35.8319 302.869 36.1179 303.178 36.3452 303.591C36.5724 304.004 36.6861 304.557 36.6861 305.25V311H35.3452V309.818H35.277C35.1861 310.008 35.0346 310.21 34.8224 310.426C34.6103 310.642 34.3281 310.826 33.9759 310.977C33.6236 311.129 33.1937 311.205 32.6861 311.205ZM32.8906 310C33.4209 310 33.8679 309.896 34.2315 309.688C34.599 309.479 34.8755 309.21 35.0611 308.881C35.2505 308.551 35.3452 308.205 35.3452 307.841V306.614C35.2884 306.682 35.1634 306.744 34.9702 306.801C34.7808 306.854 34.5611 306.902 34.3111 306.943C34.0649 306.981 33.8243 307.015 33.5895 307.045C33.3584 307.072 33.1709 307.095 33.027 307.114C32.6785 307.159 32.3527 307.233 32.0497 307.335C31.7505 307.434 31.508 307.583 31.3224 307.784C31.1406 307.981 31.0497 308.25 31.0497 308.591C31.0497 309.057 31.2221 309.409 31.5668 309.648C31.9152 309.883 32.3565 310 32.8906 310ZM40.4744 305.75V311H39.1335V302.273H40.429V303.636H40.5426C40.7472 303.193 41.0578 302.837 41.4744 302.568C41.8911 302.295 42.429 302.159 43.0881 302.159C43.679 302.159 44.196 302.28 44.6392 302.523C45.0824 302.761 45.4271 303.125 45.6733 303.614C45.9195 304.098 46.0426 304.712 46.0426 305.455V311H44.7017V305.545C44.7017 304.86 44.5237 304.326 44.1676 303.943C43.8116 303.557 43.3229 303.364 42.7017 303.364C42.2737 303.364 41.8911 303.456 41.554 303.642C41.2206 303.828 40.9574 304.098 40.7642 304.455C40.571 304.811 40.4744 305.242 40.4744 305.75ZM55.3168 302.273L52.0895 311H50.7259L47.4986 302.273H48.9531L51.3622 309.227H51.4531L53.8622 302.273H55.3168ZM59.3892 311.205C58.8362 311.205 58.3343 311.1 57.8835 310.892C57.4328 310.68 57.0748 310.375 56.8097 309.977C56.5445 309.576 56.4119 309.091 56.4119 308.523C56.4119 308.023 56.5104 307.617 56.7074 307.307C56.9044 306.992 57.1676 306.746 57.4972 306.568C57.8267 306.39 58.1903 306.258 58.5881 306.17C58.9896 306.08 59.393 306.008 59.7983 305.955C60.3286 305.886 60.7585 305.835 61.0881 305.801C61.4214 305.763 61.6638 305.701 61.8153 305.614C61.9706 305.527 62.0483 305.375 62.0483 305.159V305.114C62.0483 304.553 61.8949 304.117 61.5881 303.807C61.285 303.496 60.8248 303.341 60.2074 303.341C59.5672 303.341 59.0653 303.481 58.7017 303.761C58.3381 304.042 58.0824 304.341 57.9347 304.659L56.6619 304.205C56.8892 303.674 57.1922 303.261 57.571 302.966C57.9536 302.667 58.3703 302.458 58.821 302.341C59.2756 302.22 59.7225 302.159 60.1619 302.159C60.4422 302.159 60.7642 302.193 61.1278 302.261C61.4953 302.326 61.8494 302.46 62.1903 302.665C62.535 302.869 62.821 303.178 63.0483 303.591C63.2756 304.004 63.3892 304.557 63.3892 305.25V311H62.0483V309.818H61.9801C61.8892 310.008 61.7377 310.21 61.5256 310.426C61.3134 310.642 61.0313 310.826 60.679 310.977C60.3267 311.129 59.8968 311.205 59.3892 311.205ZM59.5938 310C60.1241 310 60.571 309.896 60.9347 309.688C61.3021 309.479 61.5786 309.21 61.7642 308.881C61.9536 308.551 62.0483 308.205 62.0483 307.841V306.614C61.9915 306.682 61.8665 306.744 61.6733 306.801C61.4839 306.854 61.2642 306.902 61.0142 306.943C60.768 306.981 60.5275 307.015 60.2926 307.045C60.0616 307.072 59.8741 307.095 59.7301 307.114C59.3816 307.159 59.0559 307.233 58.7528 307.335C58.4536 307.434 58.2112 307.583 58.0256 307.784C57.8438 307.981 57.7528 308.25 57.7528 308.591C57.7528 309.057 57.9252 309.409 58.2699 309.648C58.6184 309.883 59.0597 310 59.5938 310ZM72.0185 304.227L70.8139 304.568C70.7382 304.367 70.6264 304.172 70.4787 303.983C70.3348 303.79 70.1378 303.631 69.8878 303.506C69.6378 303.381 69.3177 303.318 68.9276 303.318C68.3935 303.318 67.9484 303.441 67.5923 303.688C67.2401 303.93 67.0639 304.239 67.0639 304.614C67.0639 304.947 67.1851 305.21 67.4276 305.403C67.67 305.597 68.0488 305.758 68.5639 305.886L69.8594 306.205C70.6397 306.394 71.2211 306.684 71.6037 307.074C71.9863 307.46 72.1776 307.958 72.1776 308.568C72.1776 309.068 72.0336 309.515 71.7457 309.909C71.4616 310.303 71.0639 310.614 70.5526 310.841C70.0412 311.068 69.4465 311.182 68.7685 311.182C67.8783 311.182 67.1416 310.989 66.5582 310.602C65.9749 310.216 65.6056 309.652 65.4503 308.909L66.723 308.591C66.8442 309.061 67.0734 309.413 67.4105 309.648C67.7514 309.883 68.1965 310 68.7457 310C69.3707 310 69.867 309.867 70.2344 309.602C70.6056 309.333 70.7912 309.011 70.7912 308.636C70.7912 308.333 70.6851 308.08 70.473 307.875C70.2609 307.667 69.9351 307.511 69.4957 307.409L68.0412 307.068C67.242 306.879 66.6548 306.585 66.2798 306.188C65.9086 305.786 65.723 305.284 65.723 304.682C65.723 304.189 65.8613 303.754 66.1378 303.375C66.4181 302.996 66.7988 302.699 67.2798 302.483C67.7647 302.267 68.3139 302.159 68.9276 302.159C69.7912 302.159 70.4692 302.348 70.9616 302.727C71.4579 303.106 71.8101 303.606 72.0185 304.227ZM82.2415 311.182C81.4536 311.182 80.7623 310.994 80.1676 310.619C79.5767 310.244 79.1146 309.72 78.7812 309.045C78.4517 308.371 78.2869 307.583 78.2869 306.682C78.2869 305.773 78.4517 304.979 78.7812 304.301C79.1146 303.623 79.5767 303.097 80.1676 302.722C80.7623 302.347 81.4536 302.159 82.2415 302.159C83.0294 302.159 83.7188 302.347 84.3097 302.722C84.9044 303.097 85.3665 303.623 85.696 304.301C86.0294 304.979 86.196 305.773 86.196 306.682C86.196 307.583 86.0294 308.371 85.696 309.045C85.3665 309.72 84.9044 310.244 84.3097 310.619C83.7188 310.994 83.0294 311.182 82.2415 311.182ZM82.2415 309.977C82.84 309.977 83.3324 309.824 83.7188 309.517C84.1051 309.21 84.3911 308.807 84.5767 308.307C84.7623 307.807 84.8551 307.265 84.8551 306.682C84.8551 306.098 84.7623 305.555 84.5767 305.051C84.3911 304.547 84.1051 304.14 83.7188 303.83C83.3324 303.519 82.84 303.364 82.2415 303.364C81.643 303.364 81.1506 303.519 80.7642 303.83C80.3778 304.14 80.0919 304.547 79.9062 305.051C79.7206 305.555 79.6278 306.098 79.6278 306.682C79.6278 307.265 79.7206 307.807 79.9062 308.307C80.0919 308.807 80.3778 309.21 80.7642 309.517C81.1506 309.824 81.643 309.977 82.2415 309.977ZM92.1293 302.273V303.409H87.4247V302.273H92.1293ZM88.8338 311V301.068C88.8338 300.568 88.9512 300.152 89.1861 299.818C89.4209 299.485 89.7259 299.235 90.1009 299.068C90.4759 298.902 90.8717 298.818 91.2884 298.818C91.6179 298.818 91.8868 298.845 92.0952 298.898C92.3035 298.951 92.4588 299 92.5611 299.045L92.1747 300.205C92.1065 300.182 92.0118 300.153 91.8906 300.119C91.7732 300.085 91.6179 300.068 91.4247 300.068C90.9815 300.068 90.6615 300.18 90.4645 300.403C90.2713 300.627 90.1747 300.955 90.1747 301.386V311H88.8338ZM102.168 311.182C101.327 311.182 100.601 310.996 99.9915 310.625C99.3854 310.25 98.9176 309.727 98.5881 309.057C98.2623 308.383 98.0994 307.598 98.0994 306.705C98.0994 305.811 98.2623 305.023 98.5881 304.341C98.9176 303.655 99.3759 303.121 99.9631 302.739C100.554 302.352 101.243 302.159 102.031 302.159C102.486 302.159 102.935 302.235 103.378 302.386C103.821 302.538 104.224 302.784 104.588 303.125C104.952 303.462 105.241 303.909 105.457 304.466C105.673 305.023 105.781 305.708 105.781 306.523V307.091H99.054V305.932H104.418C104.418 305.439 104.319 305 104.122 304.614C103.929 304.227 103.652 303.922 103.293 303.699C102.937 303.475 102.516 303.364 102.031 303.364C101.497 303.364 101.035 303.496 100.645 303.761C100.259 304.023 99.9612 304.364 99.7528 304.784C99.5445 305.205 99.4403 305.655 99.4403 306.136V306.909C99.4403 307.568 99.554 308.127 99.7812 308.585C100.012 309.04 100.332 309.386 100.741 309.625C101.151 309.86 101.626 309.977 102.168 309.977C102.52 309.977 102.838 309.928 103.122 309.83C103.41 309.727 103.658 309.576 103.866 309.375C104.075 309.17 104.236 308.917 104.349 308.614L105.645 308.977C105.509 309.417 105.279 309.803 104.957 310.136C104.635 310.466 104.238 310.723 103.764 310.909C103.291 311.091 102.759 311.182 102.168 311.182ZM109.162 305.75V311H107.821V302.273H109.116V303.636H109.23C109.435 303.193 109.745 302.837 110.162 302.568C110.579 302.295 111.116 302.159 111.776 302.159C112.366 302.159 112.884 302.28 113.327 302.523C113.77 302.761 114.115 303.125 114.361 303.614C114.607 304.098 114.73 304.712 114.73 305.455V311H113.389V305.545C113.389 304.86 113.211 304.326 112.855 303.943C112.499 303.557 112.01 303.364 111.389 303.364C110.961 303.364 110.579 303.456 110.241 303.642C109.908 303.828 109.645 304.098 109.452 304.455C109.259 304.811 109.162 305.242 109.162 305.75ZM120.476 311.182C119.749 311.182 119.107 310.998 118.55 310.631C117.993 310.259 117.557 309.737 117.243 309.062C116.929 308.384 116.771 307.583 116.771 306.659C116.771 305.742 116.929 304.947 117.243 304.273C117.557 303.598 117.995 303.078 118.555 302.71C119.116 302.343 119.764 302.159 120.499 302.159C121.067 302.159 121.516 302.254 121.845 302.443C122.179 302.629 122.432 302.841 122.607 303.08C122.785 303.314 122.923 303.508 123.021 303.659H123.135V299.364H124.476V311H123.18V309.659H123.021C122.923 309.818 122.783 310.019 122.601 310.261C122.419 310.5 122.16 310.714 121.822 310.903C121.485 311.089 121.036 311.182 120.476 311.182ZM120.658 309.977C121.196 309.977 121.65 309.837 122.021 309.557C122.393 309.273 122.675 308.881 122.868 308.381C123.061 307.877 123.158 307.295 123.158 306.636C123.158 305.985 123.063 305.415 122.874 304.926C122.684 304.434 122.404 304.051 122.033 303.778C121.661 303.502 121.203 303.364 120.658 303.364C120.089 303.364 119.616 303.509 119.237 303.801C118.862 304.089 118.58 304.481 118.391 304.977C118.205 305.47 118.112 306.023 118.112 306.636C118.112 307.258 118.207 307.822 118.396 308.33C118.589 308.833 118.874 309.235 119.249 309.534C119.627 309.83 120.097 309.977 120.658 309.977ZM128.459 299.364V311H127.118V299.364H128.459ZM134.574 311.182C133.733 311.182 133.008 310.996 132.398 310.625C131.792 310.25 131.324 309.727 130.994 309.057C130.669 308.383 130.506 307.598 130.506 306.705C130.506 305.811 130.669 305.023 130.994 304.341C131.324 303.655 131.782 303.121 132.369 302.739C132.96 302.352 133.65 302.159 134.438 302.159C134.892 302.159 135.341 302.235 135.784 302.386C136.227 302.538 136.631 302.784 136.994 303.125C137.358 303.462 137.648 303.909 137.864 304.466C138.08 305.023 138.188 305.708 138.188 306.523V307.091H131.46V305.932H136.824C136.824 305.439 136.725 305 136.528 304.614C136.335 304.227 136.059 303.922 135.699 303.699C135.343 303.475 134.922 303.364 134.438 303.364C133.903 303.364 133.441 303.496 133.051 303.761C132.665 304.023 132.367 304.364 132.159 304.784C131.951 305.205 131.847 305.655 131.847 306.136V306.909C131.847 307.568 131.96 308.127 132.188 308.585C132.419 309.04 132.739 309.386 133.148 309.625C133.557 309.86 134.032 309.977 134.574 309.977C134.926 309.977 135.244 309.928 135.528 309.83C135.816 309.727 136.064 309.576 136.273 309.375C136.481 309.17 136.642 308.917 136.756 308.614L138.051 308.977C137.915 309.417 137.686 309.803 137.364 310.136C137.042 310.466 136.644 310.723 136.17 310.909C135.697 311.091 135.165 311.182 134.574 311.182ZM146.409 304.227L145.205 304.568C145.129 304.367 145.017 304.172 144.869 303.983C144.725 303.79 144.528 303.631 144.278 303.506C144.028 303.381 143.708 303.318 143.318 303.318C142.784 303.318 142.339 303.441 141.983 303.688C141.631 303.93 141.455 304.239 141.455 304.614C141.455 304.947 141.576 305.21 141.818 305.403C142.061 305.597 142.439 305.758 142.955 305.886L144.25 306.205C145.03 306.394 145.612 306.684 145.994 307.074C146.377 307.46 146.568 307.958 146.568 308.568C146.568 309.068 146.424 309.515 146.136 309.909C145.852 310.303 145.455 310.614 144.943 310.841C144.432 311.068 143.837 311.182 143.159 311.182C142.269 311.182 141.532 310.989 140.949 310.602C140.366 310.216 139.996 309.652 139.841 308.909L141.114 308.591C141.235 309.061 141.464 309.413 141.801 309.648C142.142 309.883 142.587 310 143.136 310C143.761 310 144.258 309.867 144.625 309.602C144.996 309.333 145.182 309.011 145.182 308.636C145.182 308.333 145.076 308.08 144.864 307.875C144.652 307.667 144.326 307.511 143.886 307.409L142.432 307.068C141.633 306.879 141.045 306.585 140.67 306.188C140.299 305.786 140.114 305.284 140.114 304.682C140.114 304.189 140.252 303.754 140.528 303.375C140.809 302.996 141.189 302.699 141.67 302.483C142.155 302.267 142.705 302.159 143.318 302.159C144.182 302.159 144.86 302.348 145.352 302.727C145.848 303.106 146.201 303.606 146.409 304.227ZM154.768 304.227L153.564 304.568C153.488 304.367 153.376 304.172 153.229 303.983C153.085 303.79 152.888 303.631 152.638 303.506C152.388 303.381 152.068 303.318 151.678 303.318C151.143 303.318 150.698 303.441 150.342 303.688C149.99 303.93 149.814 304.239 149.814 304.614C149.814 304.947 149.935 305.21 150.178 305.403C150.42 305.597 150.799 305.758 151.314 305.886L152.609 306.205C153.39 306.394 153.971 306.684 154.354 307.074C154.736 307.46 154.928 307.958 154.928 308.568C154.928 309.068 154.784 309.515 154.496 309.909C154.212 310.303 153.814 310.614 153.303 310.841C152.791 311.068 152.196 311.182 151.518 311.182C150.628 311.182 149.892 310.989 149.308 310.602C148.725 310.216 148.356 309.652 148.2 308.909L149.473 308.591C149.594 309.061 149.823 309.413 150.161 309.648C150.501 309.883 150.946 310 151.496 310C152.121 310 152.617 309.867 152.984 309.602C153.356 309.333 153.541 309.011 153.541 308.636C153.541 308.333 153.435 308.08 153.223 307.875C153.011 307.667 152.685 307.511 152.246 307.409L150.791 307.068C149.992 306.879 149.405 306.585 149.03 306.188C148.659 305.786 148.473 305.284 148.473 304.682C148.473 304.189 148.611 303.754 148.888 303.375C149.168 302.996 149.549 302.699 150.03 302.483C150.515 302.267 151.064 302.159 151.678 302.159C152.541 302.159 153.219 302.348 153.712 302.727C154.208 303.106 154.56 303.606 154.768 304.227ZM161.446 314.273V302.273H162.741V303.659H162.901C162.999 303.508 163.135 303.314 163.31 303.08C163.488 302.841 163.741 302.629 164.071 302.443C164.404 302.254 164.855 302.159 165.423 302.159C166.158 302.159 166.806 302.343 167.366 302.71C167.927 303.078 168.365 303.598 168.679 304.273C168.993 304.947 169.151 305.742 169.151 306.659C169.151 307.583 168.993 308.384 168.679 309.062C168.365 309.737 167.929 310.259 167.372 310.631C166.815 310.998 166.173 311.182 165.446 311.182C164.885 311.182 164.437 311.089 164.099 310.903C163.762 310.714 163.503 310.5 163.321 310.261C163.139 310.019 162.999 309.818 162.901 309.659H162.787V314.273H161.446ZM162.764 306.636C162.764 307.295 162.861 307.877 163.054 308.381C163.247 308.881 163.529 309.273 163.901 309.557C164.272 309.837 164.726 309.977 165.264 309.977C165.825 309.977 166.293 309.83 166.668 309.534C167.046 309.235 167.33 308.833 167.52 308.33C167.713 307.822 167.81 307.258 167.81 306.636C167.81 306.023 167.715 305.47 167.526 304.977C167.34 304.481 167.058 304.089 166.679 303.801C166.304 303.509 165.832 303.364 165.264 303.364C164.719 303.364 164.26 303.502 163.889 303.778C163.518 304.051 163.238 304.434 163.048 304.926C162.859 305.415 162.764 305.985 162.764 306.636ZM174.741 311.182C173.954 311.182 173.262 310.994 172.668 310.619C172.077 310.244 171.615 309.72 171.281 309.045C170.952 308.371 170.787 307.583 170.787 306.682C170.787 305.773 170.952 304.979 171.281 304.301C171.615 303.623 172.077 303.097 172.668 302.722C173.262 302.347 173.954 302.159 174.741 302.159C175.529 302.159 176.219 302.347 176.81 302.722C177.404 303.097 177.866 303.623 178.196 304.301C178.529 304.979 178.696 305.773 178.696 306.682C178.696 307.583 178.529 308.371 178.196 309.045C177.866 309.72 177.404 310.244 176.81 310.619C176.219 310.994 175.529 311.182 174.741 311.182ZM174.741 309.977C175.34 309.977 175.832 309.824 176.219 309.517C176.605 309.21 176.891 308.807 177.077 308.307C177.262 307.807 177.355 307.265 177.355 306.682C177.355 306.098 177.262 305.555 177.077 305.051C176.891 304.547 176.605 304.14 176.219 303.83C175.832 303.519 175.34 303.364 174.741 303.364C174.143 303.364 173.651 303.519 173.264 303.83C172.878 304.14 172.592 304.547 172.406 305.051C172.221 305.555 172.128 306.098 172.128 306.682C172.128 307.265 172.221 307.807 172.406 308.307C172.592 308.807 172.878 309.21 173.264 309.517C173.651 309.824 174.143 309.977 174.741 309.977ZM186.925 304.227L185.72 304.568C185.644 304.367 185.533 304.172 185.385 303.983C185.241 303.79 185.044 303.631 184.794 303.506C184.544 303.381 184.224 303.318 183.834 303.318C183.3 303.318 182.855 303.441 182.499 303.688C182.146 303.93 181.97 304.239 181.97 304.614C181.97 304.947 182.091 305.21 182.334 305.403C182.576 305.597 182.955 305.758 183.47 305.886L184.766 306.205C185.546 306.394 186.127 306.684 186.51 307.074C186.893 307.46 187.084 307.958 187.084 308.568C187.084 309.068 186.94 309.515 186.652 309.909C186.368 310.303 185.97 310.614 185.459 310.841C184.947 311.068 184.353 311.182 183.675 311.182C182.785 311.182 182.048 310.989 181.464 310.602C180.881 310.216 180.512 309.652 180.357 308.909L181.629 308.591C181.75 309.061 181.98 309.413 182.317 309.648C182.658 309.883 183.103 310 183.652 310C184.277 310 184.773 309.867 185.141 309.602C185.512 309.333 185.697 309.011 185.697 308.636C185.697 308.333 185.591 308.08 185.379 307.875C185.167 307.667 184.841 307.511 184.402 307.409L182.947 307.068C182.148 306.879 181.561 306.585 181.186 306.188C180.815 305.786 180.629 305.284 180.629 304.682C180.629 304.189 180.768 303.754 181.044 303.375C181.324 302.996 181.705 302.699 182.186 302.483C182.671 302.267 183.22 302.159 183.834 302.159C184.697 302.159 185.375 302.348 185.868 302.727C186.364 303.106 186.716 303.606 186.925 304.227ZM195.284 304.227L194.08 304.568C194.004 304.367 193.892 304.172 193.744 303.983C193.6 303.79 193.403 303.631 193.153 303.506C192.903 303.381 192.583 303.318 192.193 303.318C191.659 303.318 191.214 303.441 190.858 303.688C190.506 303.93 190.33 304.239 190.33 304.614C190.33 304.947 190.451 305.21 190.693 305.403C190.936 305.597 191.314 305.758 191.83 305.886L193.125 306.205C193.905 306.394 194.487 306.684 194.869 307.074C195.252 307.46 195.443 307.958 195.443 308.568C195.443 309.068 195.299 309.515 195.011 309.909C194.727 310.303 194.33 310.614 193.818 310.841C193.307 311.068 192.712 311.182 192.034 311.182C191.144 311.182 190.407 310.989 189.824 310.602C189.241 310.216 188.871 309.652 188.716 308.909L189.989 308.591C190.11 309.061 190.339 309.413 190.676 309.648C191.017 309.883 191.462 310 192.011 310C192.636 310 193.133 309.867 193.5 309.602C193.871 309.333 194.057 309.011 194.057 308.636C194.057 308.333 193.951 308.08 193.739 307.875C193.527 307.667 193.201 307.511 192.761 307.409L191.307 307.068C190.508 306.879 189.92 306.585 189.545 306.188C189.174 305.786 188.989 305.284 188.989 304.682C188.989 304.189 189.127 303.754 189.403 303.375C189.684 302.996 190.064 302.699 190.545 302.483C191.03 302.267 191.58 302.159 192.193 302.159C193.057 302.159 193.735 302.348 194.227 302.727C194.723 303.106 195.076 303.606 195.284 304.227ZM197.462 311V302.273H198.803V311H197.462ZM198.143 300.818C197.882 300.818 197.657 300.729 197.467 300.551C197.282 300.373 197.189 300.159 197.189 299.909C197.189 299.659 197.282 299.445 197.467 299.267C197.657 299.089 197.882 299 198.143 299C198.405 299 198.628 299.089 198.814 299.267C199.003 299.445 199.098 299.659 199.098 299.909C199.098 300.159 199.003 300.373 198.814 300.551C198.628 300.729 198.405 300.818 198.143 300.818ZM201.44 311V299.364H202.781V303.659H202.895C202.993 303.508 203.13 303.314 203.304 303.08C203.482 302.841 203.736 302.629 204.065 302.443C204.399 302.254 204.849 302.159 205.418 302.159C206.152 302.159 206.8 302.343 207.361 302.71C207.921 303.078 208.359 303.598 208.673 304.273C208.988 304.947 209.145 305.742 209.145 306.659C209.145 307.583 208.988 308.384 208.673 309.062C208.359 309.737 207.923 310.259 207.366 310.631C206.81 310.998 206.168 311.182 205.44 311.182C204.88 311.182 204.431 311.089 204.094 310.903C203.757 310.714 203.497 310.5 203.315 310.261C203.134 310.019 202.993 309.818 202.895 309.659H202.736V311H201.44ZM202.759 306.636C202.759 307.295 202.855 307.877 203.048 308.381C203.241 308.881 203.524 309.273 203.895 309.557C204.266 309.837 204.721 309.977 205.259 309.977C205.819 309.977 206.287 309.83 206.662 309.534C207.041 309.235 207.325 308.833 207.514 308.33C207.707 307.822 207.804 307.258 207.804 306.636C207.804 306.023 207.709 305.47 207.52 304.977C207.334 304.481 207.052 304.089 206.673 303.801C206.298 303.509 205.827 303.364 205.259 303.364C204.713 303.364 204.255 303.502 203.884 303.778C203.512 304.051 203.232 304.434 203.043 304.926C202.853 305.415 202.759 305.985 202.759 306.636ZM211.196 311V302.273H212.537V311H211.196ZM211.878 300.818C211.616 300.818 211.391 300.729 211.202 300.551C211.016 300.373 210.923 300.159 210.923 299.909C210.923 299.659 211.016 299.445 211.202 299.267C211.391 299.089 211.616 299 211.878 299C212.139 299 212.363 299.089 212.548 299.267C212.738 299.445 212.832 299.659 212.832 299.909C212.832 300.159 212.738 300.373 212.548 300.551C212.363 300.729 212.139 300.818 211.878 300.818ZM216.334 299.364V311H214.993V299.364H216.334ZM218.79 311V302.273H220.131V311H218.79ZM219.472 300.818C219.21 300.818 218.985 300.729 218.795 300.551C218.61 300.373 218.517 300.159 218.517 299.909C218.517 299.659 218.61 299.445 218.795 299.267C218.985 299.089 219.21 299 219.472 299C219.733 299 219.956 299.089 220.142 299.267C220.331 299.445 220.426 299.659 220.426 299.909C220.426 300.159 220.331 300.373 220.142 300.551C219.956 300.729 219.733 300.818 219.472 300.818ZM226.382 302.273V303.409H221.859V302.273H226.382ZM223.178 300.182H224.518V308.5C224.518 308.879 224.573 309.163 224.683 309.352C224.797 309.538 224.941 309.663 225.115 309.727C225.293 309.788 225.481 309.818 225.678 309.818C225.825 309.818 225.946 309.811 226.041 309.795C226.136 309.777 226.212 309.761 226.268 309.75L226.541 310.955C226.45 310.989 226.323 311.023 226.161 311.057C225.998 311.095 225.791 311.114 225.541 311.114C225.162 311.114 224.791 311.032 224.428 310.869C224.068 310.706 223.768 310.458 223.53 310.125C223.295 309.792 223.178 309.371 223.178 308.864V300.182ZM228.399 311V302.273H229.74V311H228.399ZM229.081 300.818C228.82 300.818 228.594 300.729 228.405 300.551C228.219 300.373 228.126 300.159 228.126 299.909C228.126 299.659 228.219 299.445 228.405 299.267C228.594 299.089 228.82 299 229.081 299C229.342 299 229.566 299.089 229.751 299.267C229.941 299.445 230.036 299.659 230.036 299.909C230.036 300.159 229.941 300.373 229.751 300.551C229.566 300.729 229.342 300.818 229.081 300.818ZM235.855 311.182C235.014 311.182 234.289 310.996 233.679 310.625C233.073 310.25 232.605 309.727 232.276 309.057C231.95 308.383 231.787 307.598 231.787 306.705C231.787 305.811 231.95 305.023 232.276 304.341C232.605 303.655 233.063 303.121 233.651 302.739C234.241 302.352 234.931 302.159 235.719 302.159C236.173 302.159 236.622 302.235 237.065 302.386C237.509 302.538 237.912 302.784 238.276 303.125C238.639 303.462 238.929 303.909 239.145 304.466C239.361 305.023 239.469 305.708 239.469 306.523V307.091H232.741V305.932H238.105C238.105 305.439 238.007 305 237.81 304.614C237.616 304.227 237.34 303.922 236.98 303.699C236.624 303.475 236.204 303.364 235.719 303.364C235.185 303.364 234.723 303.496 234.332 303.761C233.946 304.023 233.649 304.364 233.44 304.784C233.232 305.205 233.128 305.655 233.128 306.136V306.909C233.128 307.568 233.241 308.127 233.469 308.585C233.7 309.04 234.02 309.386 234.429 309.625C234.838 309.86 235.313 309.977 235.855 309.977C236.207 309.977 236.526 309.928 236.81 309.83C237.098 309.727 237.346 309.576 237.554 309.375C237.762 309.17 237.923 308.917 238.037 308.614L239.332 308.977C239.196 309.417 238.967 309.803 238.645 310.136C238.323 310.466 237.925 310.723 237.452 310.909C236.978 311.091 236.446 311.182 235.855 311.182ZM247.69 304.227L246.486 304.568C246.41 304.367 246.298 304.172 246.151 303.983C246.007 303.79 245.81 303.631 245.56 303.506C245.31 303.381 244.99 303.318 244.599 303.318C244.065 303.318 243.62 303.441 243.264 303.688C242.912 303.93 242.736 304.239 242.736 304.614C242.736 304.947 242.857 305.21 243.099 305.403C243.342 305.597 243.721 305.758 244.236 305.886L245.531 306.205C246.312 306.394 246.893 306.684 247.276 307.074C247.658 307.46 247.849 307.958 247.849 308.568C247.849 309.068 247.705 309.515 247.418 309.909C247.134 310.303 246.736 310.614 246.224 310.841C245.713 311.068 245.118 311.182 244.44 311.182C243.55 311.182 242.813 310.989 242.23 310.602C241.647 310.216 241.277 309.652 241.122 308.909L242.395 308.591C242.516 309.061 242.745 309.413 243.082 309.648C243.423 309.883 243.868 310 244.418 310C245.043 310 245.539 309.867 245.906 309.602C246.277 309.333 246.463 309.011 246.463 308.636C246.463 308.333 246.357 308.08 246.145 307.875C245.933 307.667 245.607 307.511 245.168 307.409L243.713 307.068C242.914 306.879 242.327 306.585 241.952 306.188C241.58 305.786 241.395 305.284 241.395 304.682C241.395 304.189 241.533 303.754 241.81 303.375C242.09 302.996 242.471 302.699 242.952 302.483C243.437 302.267 243.986 302.159 244.599 302.159C245.463 302.159 246.141 302.348 246.634 302.727C247.13 303.106 247.482 303.606 247.69 304.227ZM250.845 311.091C250.565 311.091 250.324 310.991 250.124 310.79C249.923 310.589 249.822 310.348 249.822 310.068C249.822 309.788 249.923 309.547 250.124 309.347C250.324 309.146 250.565 309.045 250.845 309.045C251.125 309.045 251.366 309.146 251.567 309.347C251.768 309.547 251.868 309.788 251.868 310.068C251.868 310.254 251.821 310.424 251.726 310.58C251.635 310.735 251.512 310.86 251.357 310.955C251.205 311.045 251.035 311.091 250.845 311.091Z" fill="#667085"/>
<circle cx="31" cy="31" r="28" fill="#C8951A" stroke="white" stroke-width="6"/>
<path d="M34 21H26C25.4696 21 24.9609 21.2107 24.5858 21.5858C24.2107 21.9609 24 22.4696 24 23V39C24 39.5304 24.2107 40.0391 24.5858 40.4142C24.9609 40.7893 25.4696 41 26 41H38C38.5304 41 39.0391 40.7893 39.4142 40.4142C39.7893 40.0391 40 39.5304 40 39V27L34 21Z" stroke="white" stroke-width="2" stroke-linecap="round" stroke-linejoin="round"/>
<path d="M34 21V27H40" stroke="white" stroke-width="2" stroke-linecap="round" stroke-linejoin="round"/>
<path d="M32 37V31" stroke="white" stroke-width="2" stroke-linecap="round" stroke-linejoin="round"/>
<path d="M29 34H35" stroke="white" stroke-width="2" stroke-linecap="round" stroke-linejoin="round"/>
</svg>
