<svg width="40" height="40" viewBox="0 0 40 40" fill="none" xmlns="http://www.w3.org/2000/svg">
<circle cx="20" cy="20" r="20" fill="#F8F9F9"/>
<path d="M20.0033 17.6786C18.7212 17.6786 17.6818 18.718 17.6818 20C17.6818 21.2821 18.7212 22.3215 20.0033 22.3215C21.2854 22.3215 22.3247 21.2821 22.3247 20C22.3247 18.718 21.2854 17.6786 20.0033 17.6786Z" fill="#C8951A"/>
<path fill-rule="evenodd" clip-rule="evenodd" d="M16.2672 13.6297C18.7302 13.3544 21.2764 13.3544 23.7393 13.6297C25.0953 13.7812 26.189 14.8496 26.3482 16.2104C26.6427 18.7282 26.6427 21.2719 26.3482 23.7897C26.189 25.1505 25.0953 26.2189 23.7393 26.3704C21.2764 26.6457 18.7302 26.6457 16.2672 26.3704C14.9112 26.2189 13.8175 25.1505 13.6584 23.7897C13.3639 21.2719 13.3639 18.7282 13.6584 16.2104C13.8175 14.8496 14.9112 13.7812 16.2672 13.6297ZM23.5747 15.7143C23.1802 15.7143 22.8604 16.0341 22.8604 16.4286C22.8604 16.8231 23.1802 17.1429 23.5747 17.1429C23.9692 17.1429 24.289 16.8231 24.289 16.4286C24.289 16.0341 23.9692 15.7143 23.5747 15.7143ZM16.6104 20C16.6104 18.1262 18.1294 16.6072 20.0033 16.6072C21.8771 16.6072 23.3961 18.1262 23.3961 20C23.3961 21.8739 21.8771 23.3929 20.0033 23.3929C18.1294 23.3929 16.6104 21.8739 16.6104 20Z" fill="#C8951A"/>
</svg>
