<svg width="19" height="19" viewBox="0 0 19 19" fill="none" xmlns="http://www.w3.org/2000/svg">
<path d="M0.734028 4.86188C0.740224 4.89665 0.745239 4.93142 0.747305 4.96648C0.773563 5.41646 1.11374 9.00674 5.39061 13.3782C5.39061 13.3782 9.08507 17.1432 12.9734 17.9348C12.9902 17.9383 13.0067 17.942 13.0235 17.9467C13.259 18.0107 15.2605 18.5166 16.2923 17.4819L17.7621 16.0384C17.7754 16.0253 17.7893 16.0126 17.8034 16.0004C17.9501 15.8744 18.9709 14.9312 17.9498 13.9284C16.9163 12.9134 15.6134 11.6759 15.4659 11.5357C15.4588 11.529 15.452 11.5223 15.4452 11.5154C15.3652 11.4337 14.6058 10.6989 13.7163 11.3702C13.6906 11.3896 13.6664 11.4114 13.6434 11.434L12.2042 12.8511C11.8817 13.1568 11.3696 13.1528 11.0518 12.8421L6.13499 8.03203C5.80484 7.70896 5.8134 7.18132 6.15387 6.86869L7.30452 5.81284C7.30452 5.81284 8.56522 4.66659 7.21129 3.4285L5.20149 1.45473C5.1891 1.44256 5.1773 1.4301 5.1655 1.41706C5.03568 1.27334 4.07238 0.289356 2.94209 1.38461C2.90757 1.41793 2.8701 1.44806 2.83027 1.47472C2.44672 1.73318 0.431024 3.17728 0.734028 4.86188Z" fill="white"/>
</svg>
