<svg width="40" height="40" viewBox="0 0 40 40" fill="none" xmlns="http://www.w3.org/2000/svg">
<circle cx="20" cy="20" r="20" fill="#F8F9F9"/>
<path d="M24.7811 17.6578C24.7897 17.7747 24.7897 17.891 24.7897 18.0072C24.7897 21.565 22.0818 25.6646 17.133 25.6646C15.6084 25.6646 14.1919 25.223 13 24.456C13.2165 24.4807 13.4249 24.4894 13.6501 24.4894C14.8614 24.4923 16.0384 24.0873 16.9914 23.3395C16.4298 23.3294 15.8854 23.1441 15.4341 22.8095C14.9829 22.475 14.6475 22.0079 14.4746 21.4735C14.6409 21.4982 14.8079 21.5149 14.983 21.5149C15.2242 21.5149 15.4667 21.4815 15.6919 21.4234C15.0824 21.3003 14.5343 20.9699 14.1409 20.4884C13.7475 20.0069 13.533 19.404 13.5338 18.7823V18.7489C13.8926 18.9486 14.3089 19.0736 14.7498 19.0903C14.3804 18.8448 14.0775 18.5117 13.8681 18.1207C13.6587 17.7297 13.5494 17.2929 13.5499 16.8494C13.5499 16.3496 13.6828 15.8913 13.916 15.4917C14.5922 16.3236 15.4357 17.0041 16.3916 17.4892C17.3476 17.9743 18.3948 18.2532 19.4654 18.3079C19.424 18.1075 19.3986 17.8997 19.3986 17.6912C19.3985 17.3377 19.468 16.9877 19.6031 16.6611C19.7383 16.3345 19.9365 16.0378 20.1865 15.7878C20.4364 15.5379 20.7332 15.3397 21.0598 15.2045C21.3863 15.0693 21.7364 14.9998 22.0898 15C22.8649 15 23.5644 15.3247 24.0561 15.8499C24.6586 15.7333 25.2364 15.5134 25.7639 15.1998C25.563 15.8217 25.1424 16.349 24.5806 16.683C25.115 16.6221 25.6372 16.4815 26.13 16.2661C25.762 16.8027 25.3059 17.2732 24.7811 17.6578Z" fill="#C8951A"/>
</svg>
