<svg width="40" height="40" viewBox="0 0 40 40" fill="none" xmlns="http://www.w3.org/2000/svg">
<circle cx="20" cy="20" r="20" fill="#F8F9F9"/>
<path fill-rule="evenodd" clip-rule="evenodd" d="M16.4186 14.9218C18.8012 14.7354 21.1948 14.7354 23.5774 14.9218L25.1779 15.047C26.0694 15.1167 26.7987 15.7849 26.9461 16.6669C27.3148 18.8736 27.3148 21.1263 26.9461 23.3331C26.7987 24.2151 26.0694 24.8832 25.1779 24.953L23.5774 25.0782C21.1948 25.2646 18.8012 25.2646 16.4186 25.0782L14.8181 24.953C13.9266 24.8832 13.1973 24.2151 13.05 23.3331C12.6813 21.1263 12.6813 18.8736 13.05 16.6669C13.1973 15.7849 13.9266 15.1167 14.8181 15.047L16.4186 14.9218ZM18.5694 21.7644V18.2356C18.5694 18.069 18.7511 17.9662 18.894 18.0519L21.8346 19.8162C21.9733 19.8995 21.9733 20.1005 21.8346 20.1837L18.894 21.9481C18.7511 22.0338 18.5694 21.9309 18.5694 21.7644Z" fill="#C8951A"/>
</svg>
