<svg width="22" height="21" viewBox="0 0 22 21" fill="none" xmlns="http://www.w3.org/2000/svg">
<ellipse cx="9.25234" cy="9.25233" rx="9.25234" ry="9.25233" transform="matrix(1 0 0 -1 1.99536 19.9998)" fill="#307268"/>
<path d="M11.2477 0.995092C16.6338 0.995092 21 5.36136 21 10.7474C21 16.1335 16.6338 20.4998 11.2477 20.4998C5.86163 20.4998 1.49536 16.1335 1.49536 10.7474C1.49536 5.36136 5.86163 0.995092 11.2477 0.995092Z" fill="#307268" stroke="#307268" stroke-linecap="round" stroke-linejoin="bevel"/>
<path d="M11.7106 12.2511C12.7965 12.2511 13.6767 11.3708 13.6767 10.285C13.6767 9.19911 12.7965 8.31885 11.7106 8.31885C10.6248 8.31885 9.74451 9.19911 9.74451 10.285C9.74451 11.3708 10.6248 12.2511 11.7106 12.2511Z" fill="white" fill-opacity="0.9"/>
<path d="M16.954 5.04195H14.8764L14.0638 4.15719C13.9416 4.0231 13.7929 3.91596 13.627 3.84261C13.4611 3.76926 13.2817 3.73131 13.1004 3.7312H10.3216C9.95456 3.7312 9.60066 3.88849 9.35162 4.15719L8.54551 5.04195H6.46797C5.74706 5.04195 5.15723 5.63178 5.15723 6.3527V14.2172C5.15723 14.9381 5.74706 15.5279 6.46797 15.5279H16.954C17.6749 15.5279 18.2647 14.9381 18.2647 14.2172V6.3527C18.2647 5.63178 17.6749 5.04195 16.954 5.04195ZM11.711 13.5618C9.90213 13.5618 8.4341 12.0938 8.4341 10.2849C8.4341 8.47611 9.90213 7.00807 11.711 7.00807C13.5198 7.00807 14.9878 8.47611 14.9878 10.2849C14.9878 12.0938 13.5198 13.5618 11.711 13.5618Z" fill="white" fill-opacity="0.9"/>
</svg>
