<svg width="18" height="18" viewBox="0 0 18 18" fill="none" xmlns="http://www.w3.org/2000/svg">
<path d="M12 12L9 9L6 12" stroke="white" stroke-linecap="round" stroke-linejoin="round"/>
<path d="M9 15.75L9 9" stroke="white" stroke-linecap="round" stroke-linejoin="round"/>
<path d="M15.6599 13.5674C16.3119 13.1089 16.8009 12.4546 17.0559 11.6993C17.3108 10.9441 17.3184 10.1272 17.0777 9.36732C16.8369 8.60742 16.3603 7.94402 15.7169 7.47337C15.0736 7.00272 14.297 6.74933 13.4999 6.74995H12.5549C12.3293 5.87085 11.9073 5.05439 11.3205 4.36201C10.7337 3.66963 9.9975 3.11939 9.1673 2.75271C8.33709 2.38604 7.43452 2.21247 6.52753 2.24509C5.62055 2.2777 4.73277 2.51565 3.93105 2.94102C3.12933 3.36639 2.43456 3.96809 1.89903 4.70082C1.3635 5.43356 1.00118 6.27823 0.839334 7.17126C0.677491 8.06429 0.720346 8.9824 0.964674 9.85646C1.209 10.7305 1.64843 11.5378 2.24989 12.2174" stroke="white" stroke-linecap="round" stroke-linejoin="round"/>
</svg>
