<svg width="18" height="18" viewBox="0 0 18 18" fill="none" xmlns="http://www.w3.org/2000/svg">
<circle cx="9.26611" cy="9.30664" r="8.5" fill="url(#paint0_linear_1269_41168)"/>
<path fill-rule="evenodd" clip-rule="evenodd" d="M11.2477 8.74594L9.96483 7.46304L10.8921 6.53526L12.1746 7.81768L11.2477 8.74594ZM7.94455 12.0524L6.52741 12.1815L6.65308 10.7743L9.32694 8.10044L10.6103 9.38382L7.94455 12.0524ZM12.8591 7.15552L12.8586 7.15505L11.5552 5.85168C11.2025 5.49989 10.5965 5.48323 10.2623 5.81883L5.97997 10.1012C5.82479 10.2559 5.72863 10.4616 5.70864 10.6791L5.52822 12.6641C5.51585 12.8046 5.56583 12.9436 5.66579 13.0435C5.75576 13.1335 5.87715 13.183 6.00235 13.183C6.01711 13.183 6.03139 13.1825 6.04567 13.1811L8.03071 13.0007C8.24874 12.9807 8.4539 12.885 8.60861 12.7303L12.8915 8.44747C13.238 8.09997 13.2233 7.52016 12.8591 7.15552Z" fill="white"/>
<defs>
<linearGradient id="paint0_linear_1269_41168" x1="9.26611" y1="0.806641" x2="9.26611" y2="17.8066" gradientUnits="userSpaceOnUse">
<stop stop-color="#6989FE"/>
<stop offset="1" stop-color="#3C64F4"/>
</linearGradient>
</defs>
</svg>
