<svg width="13" height="13" viewBox="0 0 13 13" fill="none" xmlns="http://www.w3.org/2000/svg" stroke-width=".25">
<path d="M7.48125 0.83125C7.48125 0.372163 7.10909 0 6.65 0C6.19091 0 5.81875 0.372164 5.81875 0.83125V5.81875H0.83125C0.372163 5.81875 0 6.19091 0 6.65C0 7.10909 0.372164 7.48125 0.83125 7.48125H5.81875V12.4688C5.81875 12.9278 6.19091 13.3 6.65 13.3C7.10909 13.3 7.48125 12.9278 7.48125 12.4688V7.48125H12.4688C12.9278 7.48125 13.3 7.10909 13.3 6.65C13.3 6.19091 12.9278 5.81875 12.4688 5.81875H7.48125V0.83125Z" fill="black" stroke-width=".25"/>
</svg>
