<svg width="17" height="18" viewBox="0 0 17 18" fill="none" xmlns="http://www.w3.org/2000/svg">
<path d="M4.25 6.75V1.5H12.75V6.75" stroke="white" stroke-linecap="round" stroke-linejoin="round"/>
<path d="M4.25008 13.5H2.83341C2.45769 13.5 2.09736 13.342 1.83168 13.0607C1.566 12.7794 1.41675 12.3978 1.41675 12V8.25C1.41675 7.85218 1.566 7.47064 1.83168 7.18934C2.09736 6.90804 2.45769 6.75 2.83341 6.75H14.1667C14.5425 6.75 14.9028 6.90804 15.1685 7.18934C15.4342 7.47064 15.5834 7.85218 15.5834 8.25V12C15.5834 12.3978 15.4342 12.7794 15.1685 13.0607C14.9028 13.342 14.5425 13.5 14.1667 13.5H12.7501" stroke="white" stroke-linecap="round" stroke-linejoin="round"/>
<path d="M12.75 10.5H4.25V16.5H12.75V10.5Z" stroke="white" stroke-linecap="round" stroke-linejoin="round"/>
</svg>
