<svg width="109" height="16" viewBox="0 0 109 16" fill="none" xmlns="http://www.w3.org/2000/svg">
<path d="M7.41268 0.776352C7.75493 -0.258784 9.24508 -0.258784 9.58732 0.776353L10.8101 4.47484C10.9632 4.93777 11.4021 5.2512 11.8974 5.2512H15.8545C16.9621 5.2512 17.4225 6.64396 16.5265 7.28371L13.3252 9.56951C12.9245 9.85561 12.7568 10.3627 12.9099 10.8257L14.1327 14.5242C14.4749 15.5593 13.2694 16.4201 12.3734 15.7803L9.172 13.4945C8.7713 13.2084 8.2287 13.2084 7.828 13.4945L4.62664 15.7803C3.73065 16.4201 2.52509 15.5593 2.86733 14.5242L4.09014 10.8257C4.24319 10.3627 4.07552 9.85561 3.67482 9.56951L0.473465 7.28371C-0.422533 6.64396 0.0379493 5.2512 1.14546 5.2512H5.10256C5.59785 5.2512 6.03682 4.93777 6.18987 4.47484L7.41268 0.776352Z" fill="#C8951A"/>
<path d="M30.4127 0.776352C30.7549 -0.258784 32.2451 -0.258784 32.5873 0.776353L33.8101 4.47484C33.9632 4.93777 34.4021 5.2512 34.8974 5.2512H38.8545C39.9621 5.2512 40.4225 6.64396 39.5265 7.28371L36.3252 9.56951C35.9245 9.85561 35.7568 10.3627 35.9099 10.8257L37.1327 14.5242C37.4749 15.5593 36.2694 16.4201 35.3734 15.7803L32.172 13.4945C31.7713 13.2084 31.2287 13.2084 30.828 13.4945L27.6266 15.7803C26.7306 16.4201 25.5251 15.5593 25.8673 14.5242L27.0901 10.8257C27.2432 10.3627 27.0755 9.85561 26.6748 9.56951L23.4735 7.28371C22.5775 6.64396 23.0379 5.2512 24.1455 5.2512H28.1026C28.5979 5.2512 29.0368 4.93777 29.1899 4.47484L30.4127 0.776352Z" fill="#C8951A"/>
<path d="M53.4127 0.776352C53.7549 -0.258784 55.2451 -0.258784 55.5873 0.776353L56.8101 4.47484C56.9632 4.93777 57.4021 5.2512 57.8974 5.2512H61.8545C62.9621 5.2512 63.4225 6.64396 62.5265 7.28371L59.3252 9.56951C58.9245 9.85561 58.7568 10.3627 58.9099 10.8257L60.1327 14.5242C60.4749 15.5593 59.2694 16.4201 58.3734 15.7803L55.172 13.4945C54.7713 13.2084 54.2287 13.2084 53.828 13.4945L50.6266 15.7803C49.7306 16.4201 48.5251 15.5593 48.8673 14.5242L50.0901 10.8257C50.2432 10.3627 50.0755 9.85561 49.6748 9.56951L46.4735 7.28371C45.5775 6.64396 46.0379 5.2512 47.1455 5.2512H51.1026C51.5979 5.2512 52.0368 4.93777 52.1899 4.47484L53.4127 0.776352Z" fill="#C8951A"/>
<path d="M76.4127 0.776352C76.7549 -0.258784 78.2451 -0.258784 78.5873 0.776353L79.8101 4.47484C79.9632 4.93777 80.4021 5.2512 80.8974 5.2512H84.8545C85.9621 5.2512 86.4225 6.64396 85.5265 7.28371L82.3252 9.56951C81.9245 9.85561 81.7568 10.3627 81.9099 10.8257L83.1327 14.5242C83.4749 15.5593 82.2694 16.4201 81.3734 15.7803L78.172 13.4945C77.7713 13.2084 77.2287 13.2084 76.828 13.4945L73.6266 15.7803C72.7306 16.4201 71.5251 15.5593 71.8673 14.5242L73.0901 10.8257C73.2432 10.3627 73.0755 9.85561 72.6748 9.56951L69.4735 7.28371C68.5775 6.64396 69.0379 5.2512 70.1455 5.2512H74.1026C74.5979 5.2512 75.0368 4.93777 75.1899 4.47484L76.4127 0.776352Z" fill="#C8951A"/>
<path d="M99.4127 0.776352C99.7549 -0.258784 101.245 -0.258784 101.587 0.776353L102.81 4.47484C102.963 4.93777 103.402 5.2512 103.897 5.2512H107.855C108.962 5.2512 109.423 6.64396 108.527 7.28371L105.325 9.56951C104.924 9.85561 104.757 10.3627 104.91 10.8257L106.133 14.5242C106.475 15.5593 105.269 16.4201 104.373 15.7803L101.172 13.4945C100.771 13.2084 100.229 13.2084 99.828 13.4945L96.6266 15.7803C95.7306 16.4201 94.5251 15.5593 94.8673 14.5242L96.0901 10.8257C96.2432 10.3627 96.0755 9.85561 95.6748 9.56951L92.4735 7.28371C91.5775 6.64396 92.0379 5.2512 93.1455 5.2512H97.1026C97.5979 5.2512 98.0368 4.93777 98.1899 4.47484L99.4127 0.776352Z" fill="#D4D4D8"/>
</svg>
