<svg width="16" height="14" viewBox="0 0 16 14" fill="none" xmlns="http://www.w3.org/2000/svg">
<g clip-path="url(#clip0_1808_35051)">
<path d="M14.5054 2.33301V5.83301H10.7554" stroke="#C8951A" stroke-linecap="round" stroke-linejoin="round"/>
<path d="M0.755371 11.667V8.16699H4.50537" stroke="#C8951A" stroke-linecap="round" stroke-linejoin="round"/>
<path d="M2.32412 5.2496C2.6411 4.41355 3.17983 3.66608 3.89004 3.07692C4.60025 2.48777 5.45879 2.07613 6.38555 1.88041C7.31231 1.6847 8.27709 1.7113 9.18987 1.95771C10.1026 2.20413 10.9337 2.66235 11.6054 3.2896L14.5054 5.83293M0.755371 8.16626L3.65537 10.7096C4.32709 11.3368 5.1581 11.7951 6.07088 12.0415C6.98365 12.2879 7.94843 12.3145 8.87519 12.1188C9.80196 11.9231 10.6605 11.5114 11.3707 10.9223C12.0809 10.3331 12.6196 9.58564 12.9366 8.7496" stroke="#C8951A" stroke-linecap="round" stroke-linejoin="round"/>
</g>
<defs>
<clipPath id="clip0_1808_35051">
<rect width="15" height="14" fill="white" transform="translate(0.130371)"/>
</clipPath>
</defs>
</svg>
