<svg width="29" height="10" viewBox="0 0 29 10" fill="none" xmlns="http://www.w3.org/2000/svg">
<g clip-path="url(#clip0_1808_35007)">
<path d="M12.5662 9.85605H10.217L11.6864 0.175781H14.0355L12.5662 9.85605Z" fill="#00579F"/>
<path d="M21.0824 0.412127C20.619 0.216261 19.8841 0 18.9753 0C16.6554 0 15.0217 1.3181 15.0117 3.20257C14.9924 4.59294 16.1814 5.36518 17.0706 5.82877C17.9795 6.30249 18.2884 6.61169 18.2884 7.03395C18.2792 7.68246 17.554 7.98139 16.8776 7.98139C15.9397 7.98139 15.4372 7.82727 14.6735 7.46647L14.3641 7.3118L14.0354 9.48481C14.5864 9.75226 15.6015 9.9896 16.6554 10C19.1203 10 20.7251 8.7023 20.7441 6.69409C20.7535 5.59212 20.1257 4.74774 18.7722 4.05776C17.9506 3.61484 17.4474 3.31618 17.4474 2.86299C17.457 2.451 17.873 2.02902 18.8005 2.02902C19.5642 2.00835 20.1253 2.20394 20.5504 2.39967L20.7629 2.50246L21.0824 0.412127Z" fill="#00579F"/>
<path d="M24.2052 6.42667C24.3986 5.87055 25.1431 3.71821 25.1431 3.71821C25.1333 3.73888 25.3361 3.15183 25.4521 2.79144L25.6163 3.62555C25.6163 3.62555 26.0612 5.94269 26.1578 6.42667C25.7906 6.42667 24.6692 6.42667 24.2052 6.42667ZM27.105 0.175781H25.2878C24.7275 0.175781 24.3018 0.350706 24.06 0.978957L20.5706 9.85591H23.0355C23.0355 9.85591 23.4413 8.66114 23.5285 8.40382C23.799 8.40382 26.1968 8.40382 26.5447 8.40382C26.6122 8.74367 26.825 9.85591 26.825 9.85591H29.0002L27.105 0.175781Z" fill="#00579F"/>
<path d="M8.25506 0.175781L5.95441 6.7768L5.70301 5.43803C5.27767 3.89327 3.94371 2.21493 2.45508 1.38041L4.56239 9.84578H7.0466L10.7391 0.175781H8.25506Z" fill="#00579F"/>
<path d="M3.81831 0.175781H0.0386672L0 0.371374C2.94835 1.17469 4.90099 3.11104 5.70324 5.43844L4.88159 0.989496C4.74632 0.371237 4.33062 0.196175 3.81831 0.175781Z" fill="#F4A622"/>
</g>
<defs>
<clipPath id="clip0_1808_35007">
<rect width="29" height="10" fill="white"/>
</clipPath>
</defs>
</svg>
