<svg width="25" height="26" viewBox="0 0 25 26" fill="none" xmlns="http://www.w3.org/2000/svg">
<g clip-path="url(#clip0_1440_33465)">
<path d="M0.53418 12.8445C0.533594 15.029 1.08672 17.162 2.13848 19.0421L0.433594 25.4657L6.80391 23.742C8.56585 24.7318 10.54 25.2505 12.5461 25.2506H12.5514C19.1739 25.2506 24.5648 19.6895 24.5677 12.8543C24.5689 9.54208 23.3201 6.42752 21.0512 4.0843C18.7826 1.74127 15.7655 0.450242 12.5509 0.44873C5.92754 0.44873 0.537012 6.00951 0.534277 12.8445" fill="url(#paint0_linear_1440_33465)"/>
<path d="M0.104492 12.8404C0.103809 15.1035 0.676758 17.3128 1.76602 19.2602L0 25.914L6.59873 24.1286C8.41689 25.1516 10.464 25.6909 12.547 25.6917H12.5523C19.4125 25.6917 24.9971 19.9306 25 12.8507C25.0012 9.41946 23.7074 6.19294 21.3574 3.76577C19.0071 1.3389 15.8821 0.00141085 12.5523 0C5.69101 0 0.107227 5.76031 0.104492 12.8404ZM4.03418 18.9248L3.78779 18.5212C2.75205 16.8217 2.20537 14.8578 2.20615 12.8412C2.2084 6.95641 6.84941 2.16868 12.5563 2.16868C15.3199 2.16989 17.9172 3.28164 19.8707 5.29876C21.8241 7.31608 22.899 9.99771 22.8983 12.8498C22.8958 18.7346 18.2547 23.5229 12.5523 23.5229H12.5482C10.6915 23.5219 8.87051 23.0074 7.28242 22.035L6.90449 21.8037L2.98867 22.8632L4.03418 18.9247V18.9248Z" fill="url(#paint1_linear_1440_33465)"/>
<path d="M9.44043 7.47219C9.20742 6.93778 8.96221 6.927 8.74062 6.91762C8.55918 6.90956 8.35176 6.91017 8.14453 6.91017C7.93711 6.91017 7.6001 6.99069 7.31523 7.31166C7.03008 7.63293 6.22656 8.4093 6.22656 9.98834C6.22656 11.5675 7.34111 13.0935 7.49648 13.3079C7.65205 13.5218 9.64814 16.8659 12.8095 18.1524C15.4368 19.2216 15.9715 19.0089 16.5417 18.9553C17.112 18.9019 18.3819 18.1792 18.641 17.4297C18.9003 16.6803 18.9003 16.038 18.8226 15.9037C18.7448 15.77 18.5374 15.6897 18.2264 15.5293C17.9152 15.3687 16.3861 14.5923 16.1011 14.4851C15.8159 14.3781 15.6086 14.3247 15.4012 14.6461C15.1937 14.9669 14.5981 15.6897 14.4166 15.9037C14.2353 16.1183 14.0537 16.145 13.7428 15.9845C13.4315 15.8234 12.4299 15.4849 11.2415 14.3916C10.3169 13.5409 9.69268 12.4903 9.51123 12.1689C9.32978 11.8481 9.4918 11.6741 9.64775 11.5142C9.7875 11.3704 9.95889 11.1394 10.1146 10.9521C10.2696 10.7646 10.3214 10.6309 10.4251 10.4168C10.5289 10.2026 10.477 10.0152 10.3993 9.85462C10.3214 9.69408 9.71699 8.10677 9.44043 7.47219Z" fill="white"/>
</g>
<defs>
<linearGradient id="paint0_linear_1440_33465" x1="1207.14" y1="2502.14" x2="1207.14" y2="0.44873" gradientUnits="userSpaceOnUse">
<stop stop-color="#1FAF38"/>
<stop offset="1" stop-color="#60D669"/>
</linearGradient>
<linearGradient id="paint1_linear_1440_33465" x1="1250" y1="2591.4" x2="1250" y2="0" gradientUnits="userSpaceOnUse">
<stop stop-color="#F9F9F9"/>
<stop offset="1" stop-color="white"/>
</linearGradient>
<clipPath id="clip0_1440_33465">
<rect width="25" height="26" fill="white"/>
</clipPath>
</defs>
</svg>
